<svg id="Layer_1" data-name="Layer 1" xmlns="http://www.w3.org/2000/svg" viewBox="0 0 1080 1080"><defs><style>.cls-1{fill:#053d58;}</style></defs><title>bg silang biru</title><path class="cls-1" d="M703,410.54l-7-7L566.51,533,547,513.49,650,410.54l-7-7-103,103L437.05,403.51l-7,7,103,103L513.49,533,384,403.51l-7,7L506.46,540,377,669.46l7,7L513.49,547,533,566.51l-103,103,7,7,103-103,103,103,7-7-103-103L566.51,547,696,676.49l7-7L573.54,540ZM540,559.48,520.52,540,540,520.52,559.48,540Z"/><path class="cls-1" d="M0,171A171,171,0,0,1,171,0H0Z"/><path class="cls-1" d="M1080,909a171,171,0,0,1-171,171,171.7,171.7,0,0,1,26.22,2H1080Z"/><path class="cls-1" d="M909,0a171,171,0,0,1,171,171V0Z"/><path class="cls-1" d="M0,909v173H144.78a171.7,171.7,0,0,1,26.22-2A171,171,0,0,1,0,909Z"/></svg>