<svg xmlns="http://www.w3.org/2000/svg" viewBox="0 0 608 608"><defs><style>.cls-1{fill:none;stroke:#f8bb3e;stroke-miterlimit:10;stroke-width:20px;}.cls-2{fill:#f8bb3e;}</style></defs><title>ki2</title><g id="Layer_2" data-name="Layer 2"><g id="kelas_inspirasi" data-name="kelas inspirasi"><circle class="cls-1" cx="304" cy="304" r="294"/><path class="cls-2" d="M432,279.83a18,18,0,0,0-33.86.07H361v-24h24a6,6,0,0,0,6-6h0V224.79a18,18,0,1,0-12,0v19.1H361v-12a6,6,0,0,0-6-6H343v-31.1a18,18,0,1,0-12,0v31.1H307V130.11a6,6,0,0,0-6-6h0c-74,0-132,53.59-132,122,0,32.5,12.9,75.53,33.67,112.28,3.73,6.6,8.6,13.54,13.74,20.89,10.89,15.52,23,33,24.33,48.17a17,17,0,0,0-7.2,14.24,17.73,17.73,0,0,0,4,11.14A18.54,18.54,0,0,0,232,466.11a18,18,0,0,0,18,18H352a18.12,18.12,0,0,0,18-18.23v-.2a17.91,17.91,0,0,0-5.52-12.92,18.54,18.54,0,0,0,4-11.5,17.19,17.19,0,0,0-17.23-17.17c-.26,0-.51,0-.77,0H307V309.9h12v18a6,6,0,0,0,6,6h18V341a18,18,0,1,0,12,0V327.9a6,6,0,0,0-6-6H331v-12h24a6,6,0,0,0,6-6h0v-12h37.1A18,18,0,0,0,432,279.83Zm-47-77.94a6,6,0,1,1-6,6,6,6,0,0,1,6-6ZM226.24,372.37c-5-7.1-9.68-13.8-13.13-19.89C193.6,318,181,276.19,181,246.1c0-59.83,49.6-107.09,114-109.87v41.92c-1.59.12-3.22.26-5,.48a6,6,0,0,0-5.14,4.71l-1.83,8.7c-1.5.36-3,.76-4.5,1.21l-6-6.66a6,6,0,0,0-6.82-1.52,89.64,89.64,0,0,0-18.88,11,6,6,0,0,0-2.09,6.66l2.75,8.39c-1.13,1.07-2.23,2.18-3.3,3.3l-8.39-2.75a6,6,0,0,0-6.66,2.09,90.12,90.12,0,0,0-11,18.88,6,6,0,0,0,1.52,6.82l6.67,6c-.45,1.48-.85,3-1.2,4.46l-9.34,1.86a6,6,0,0,0-4.82,5.88v20.47a6,6,0,0,0,4.83,5.88l9.33,1.86c.35,1.49.75,3,1.2,4.46l-6.67,6a6,6,0,0,0-1.52,6.83,90.12,90.12,0,0,0,11,18.88,6,6,0,0,0,6.66,2.09l8.39-2.76q1.6,1.71,3.3,3.31L244.8,333a6,6,0,0,0,2.08,6.66,90.44,90.44,0,0,0,18.89,11,6,6,0,0,0,6.82-1.51l6-6.67c1.49.45,3,.85,4.5,1.21l1.83,8.69a6,6,0,0,0,5.14,4.72c1.74.22,3.37.36,5,.48v66.47H252.48c-2.45-17.69-15-35.67-26.24-51.74ZM247,267.9a54.06,54.06,0,0,0,48,53.64v20.63l-1-4.72a6,6,0,0,0-4.81-4.68A65,65,0,0,1,278.75,330a6.17,6.17,0,0,0-2-.36,6,6,0,0,0-4.46,2l-5.65,6.3a77.91,77.91,0,0,1-9-5.31l2.61-7.92a6,6,0,0,0-1.83-6.46,66.14,66.14,0,0,1-7.67-7.67,6,6,0,0,0-6.45-1.82l-7.93,2.6a76.2,76.2,0,0,1-5.3-9l6.3-5.64a6,6,0,0,0,1.64-6.5,65.3,65.3,0,0,1-2.82-10.45,6,6,0,0,0-4.73-4.82L223,273.2V262.59l8.39-1.68a6,6,0,0,0,4.73-4.82,65.3,65.3,0,0,1,2.82-10.45,6,6,0,0,0-1.65-6.5L231,233.5a80.3,80.3,0,0,1,5.3-9l7.93,2.61a6,6,0,0,0,6.45-1.81,67.28,67.28,0,0,1,7.68-7.7,6,6,0,0,0,1.82-6.44l-2.61-7.92a79.37,79.37,0,0,1,9-5.31l5.65,6.3a6,6,0,0,0,6.5,1.64A63.7,63.7,0,0,1,289.2,203a6,6,0,0,0,4.8-4.68l1-4.72v20.63a54.06,54.06,0,0,0-48,53.65Zm48-41.52v83a41.94,41.94,0,0,1,0-83Zm63,239.73a6,6,0,0,1-6,6H250a6.13,6.13,0,0,1-6-6.22,1.48,1.48,0,0,0,0-.21,6,6,0,0,1,6-6H352a6.13,6.13,0,0,1,6,6.22c0,.06,0,.14,0,.21Zm-7.54-30a5.49,5.49,0,0,1,6,5,4.19,4.19,0,0,1,0,.61,6,6,0,0,1-6,6H251.53a6.1,6.1,0,0,1-6-6.21v-.21a5.42,5.42,0,0,1,5.65-5.18c.12,0,.24,0,.35,0ZM349,351.9a6,6,0,1,1-6,6,6,6,0,0,1,6-6Zm-12-180a6,6,0,1,1-6,6,6,6,0,0,1,6-6Zm12,126H307v-60h42Zm66-6a6,6,0,1,1,6-6,6,6,0,0,1-6,6Z"/><path class="cls-2" d="M358.86,398.37a101.51,101.51,0,0,0-5.6,11.72l11.16,4.42a89.94,89.94,0,0,1,4.95-10.34Z"/><path class="cls-2" d="M372.36,377.23c-2.36,3.39-4.71,6.84-7,10.32l10.07,6.52c2.18-3.37,4.46-6.7,6.74-10Z"/><path class="cls-2" d="M386,357.27c-2,3.21-4.28,6.54-6.64,9.94l9.85,6.85c2.48-3.56,4.83-7,6.94-10.4Z"/><path class="cls-2" d="M397.27,336.36q-2.58,5.4-5.4,10.67l10.59,5.66q2.94-5.51,5.64-11.16Z"/><path class="cls-2" d="M406.64,314.34c-1.39,3.71-2.88,7.43-4.45,11.11l11,4.7q2.46-5.77,4.65-11.59Z"/><path class="cls-2" d="M433,244.91,421,245v1.1c0,3.35-.16,6.91-.46,10.56l11.95,1c.34-4,.51-7.88.51-11.57Z"/><path class="cls-2" d="M429.94,219.37l-11.69,2.73a101.66,101.66,0,0,1,2,11.37l11.92-1.42a116,116,0,0,0-2.23-12.68Z"/><path class="cls-2" d="M421.31,195.12l-10.78,5.25A105.57,105.57,0,0,1,415,211l11.3-4a113.39,113.39,0,0,0-5-11.88Z"/><path class="cls-2" d="M407.59,173.39l-9.4,7.47a109.51,109.51,0,0,1,6.71,9.43L415,183.88a122.11,122.11,0,0,0-7.45-10.49Z"/><path class="cls-2" d="M389.61,155.08,382,164.33a113.42,113.42,0,0,1,8.55,7.85l8.56-8.42q-4.51-4.57-9.46-8.68Z"/><path class="cls-2" d="M368.38,140.78l-5.71,10.56c3.43,1.85,6.78,3.88,10,6l6.7-10c-3.51-2.35-7.2-4.58-11-6.62Z"/><path class="cls-2" d="M344.86,130.83l-3.63,11.44c3.73,1.18,7.41,2.54,10.93,4l4.69-11c-3.86-1.65-7.9-3.13-12-4.43Z"/><path class="cls-2" d="M320,125.32l-1.53,11.91c3.87.49,7.74,1.17,11.51,2l2.59-11.71c-4.11-.91-8.34-1.65-12.57-2.2Z"/><rect class="cls-2" x="133" y="447.89" width="12" height="12"/><rect class="cls-2" x="133" y="471.89" width="12" height="12"/><rect class="cls-2" x="145" y="459.89" width="12" height="12"/><rect class="cls-2" x="121" y="459.89" width="12" height="12"/><rect class="cls-2" x="463" y="123.89" width="12" height="12"/><rect class="cls-2" x="463" y="147.89" width="12" height="12"/><rect class="cls-2" x="475" y="135.89" width="12" height="12"/><rect class="cls-2" x="451" y="135.89" width="12" height="12"/></g></g></svg>