<svg id="simaba2_4x" data-name="simaba2@4x" xmlns="http://www.w3.org/2000/svg" width="145" height="62.943" viewBox="0 0 145 62.943">
  <defs>
    <style>
      .cls-1 {
        fill: #043d59;
      }

      .cls-1, .cls-2, .cls-3 {
        fill-rule: evenodd;
      }

      .cls-2 {
        fill: #f4bc3c;
      }
    </style>
  </defs>
  <path id="path0" class="cls-1" d="M25.309.057A5.749,5.749,0,0,1,24.19.179c-.235.017-.523.047-.641.068s-.268.04-.336.045a.488.488,0,0,0-.193.053.216.216,0,0,1-.168.008c-.053-.02-.1-.013-.1.015s-.061.055-.137.059a1.324,1.324,0,0,0-.259.044c-.067.021-.314.08-.549.133s-.468.111-.519.131-.112.041-.137.048a.241.241,0,0,0-.061.024,1.466,1.466,0,0,1-.216.038,1.385,1.385,0,0,0-.38.117,1.27,1.27,0,0,1-.348.112,1.844,1.844,0,0,0-.392.114c-.123.052-.24.078-.26.059s-.036-.01-.036.02-.068.059-.15.064a.445.445,0,0,0-.249.106c-.055.053-.12.085-.145.069a5.98,5.98,0,0,0-1.265.456c-.045.037-.082.047-.082.023s-.068,0-.15.053a.6.6,0,0,1-.236.1.255.255,0,0,0-.162.09c-.041.049-.1.075-.13.057s-.054-.007-.054.024-.062.077-.137.1l-.168.054c-.017.006-.092.044-.168.086s-.138.054-.138.028-.027-.007-.059.043-.079.092-.106.094A9.21,9.21,0,0,0,14.7,3.4a2.161,2.161,0,0,1-.244.143,3.874,3.874,0,0,0-.767.465c-.07.063-.145.1-.166.076s-.057.005-.078.06a.154.154,0,0,1-.123.1c-.047,0-.085.029-.085.064s-.027.047-.061.026-.078,0-.1.057a.145.145,0,0,1-.115.094.15.15,0,0,0-.117.1c-.021.055-.054.084-.073.065s-.167.059-.366.246c-.047.044-.085.063-.085.043a3.47,3.47,0,0,0-.781.581.258.258,0,0,1-.153.11,1.658,1.658,0,0,0-.408.3,2.151,2.151,0,0,1-.385.3,1.533,1.533,0,0,0-.32.272,2.37,2.37,0,0,1-.3.271,5.947,5.947,0,0,0-.7.628c-.055.064-.192.206-.306.316s-.186.2-.16.2-.066.1-.2.218a.836.836,0,0,0-.252.3.173.173,0,0,1-.079.128,6.156,6.156,0,0,0-.727,1.081.277.277,0,0,1-.076.141.792.792,0,0,0-.159.415c.008.013-.017.043-.056.066a.211.211,0,0,0-.084.127.921.921,0,0,1-.09.22c-.042.074-.057.135-.036.135s.008.038-.03.083a.578.578,0,0,0-.083.271c-.007.1-.037.187-.066.187s-.04.068-.024.151.01.151-.013.151-.046.034-.05.075-.026.224-.048.406a16.159,16.159,0,0,0-.023,1.8.85.85,0,0,0,.062.314.961.961,0,0,1,.081.276,4.24,4.24,0,0,0,.255.951c.025.066.05.134.054.151s.055.118.113.226.085.2.059.2.007.043.075.093.115.1.106.1a.778.778,0,0,0,.185.4c.028,0,.036.024.018.053s.007.087.057.128a.249.249,0,0,1,.091.158.324.324,0,0,0,.119.184c.066.055.105.123.088.15s0,.049.029.049.092.1.13.211.1.211.127.211.056.039.056.087a.208.208,0,0,0,.107.148c.059.034.085.062.058.063-.042,0,.228.4.328.484a2.68,2.68,0,0,1,.2.316.826.826,0,0,0,.224.286c.03,0,.055.038.055.084a.144.144,0,0,0,.092.119.139.139,0,0,1,.092.113A.277.277,0,0,0,9.7,19.6c.067.048.122.116.122.153a.419.419,0,0,0,.137.19,2.915,2.915,0,0,1,.29.323c.084.109.262.313.4.453s.325.35.424.467.208.2.244.177.044-.014.019.013c-.057.063.071.221.144.177.03-.018.054-.007.054.026a4.972,4.972,0,0,0,1.047.987c.028-.008.045.018.036.057a.058.058,0,0,0,.053.075,1.776,1.776,0,0,1,.4.349,1.855,1.855,0,0,0,.389.347c.033,0,.125.082.2.181a.48.48,0,0,0,.229.18.085.085,0,0,1,.085.085.116.116,0,0,0,.067.107,11.775,11.775,0,0,1,1.3,1.163c.352.331.873.818,1.159,1.082a2.456,2.456,0,0,1,.489.527c-.016.026.014.047.067.047a.165.165,0,0,1,.137.1c.06.155.217.319.305.319.043,0,.071.022.063.05a1.338,1.338,0,0,0,.305.361c.176.171.3.313.275.315s.016.029.091.059.137.1.137.147a.084.084,0,0,0,.071.092c.039,0,.054.017.033.037s0,.075.047.121a.624.624,0,0,1-.188.966,2.53,2.53,0,0,0-.316.2.965.965,0,0,1-.259.131c-.1.034-.182.084-.182.111s-.064.064-.142.083a1.545,1.545,0,0,0-.366.185c-.123.083-.224.136-.224.119s-.089.035-.2.115a1.933,1.933,0,0,1-.427.226c-.126.044-.229.1-.229.123s-.082.061-.183.083-.183.061-.183.089-.067.065-.148.086a.637.637,0,0,0-.231.112,3.778,3.778,0,0,1-.719.414c-.309.151-.843.45-1.088.609a3.468,3.468,0,0,1-.376.2,5.106,5.106,0,0,0-.518.294,2.574,2.574,0,0,1-.443.238c-.075.022-.137.068-.137.1s-.024.045-.053.027-.126.033-.214.114-.16.135-.16.121a1.266,1.266,0,0,0-.308.153,1.774,1.774,0,0,1-.366.179.059.059,0,0,0-.058.06c0,.033-.037.06-.081.06a1.368,1.368,0,0,0-.381.211,1.428,1.428,0,0,1-.374.211.412.412,0,0,0-.2.132c-.068.072-.124.112-.124.087s-.082,0-.183.062-.183.128-.183.154-.038.047-.085.047a.148.148,0,0,0-.122.094c-.02.052-.063.078-.094.059a.085.085,0,0,0-.107.041,1.242,1.242,0,0,1-.324.221,1.667,1.667,0,0,0-.387.271c-.062.07-.094.086-.072.036s-.014-.029-.081.045a.47.47,0,0,1-.164.135.759.759,0,0,0-.21.135c-.093.075-.23.176-.3.226s-.209.152-.3.228c-.272.23-.315.261-.315.224,0-.019-.034-.007-.076.028s-.246.183-.454.331a5.7,5.7,0,0,0-.94.771,1.142,1.142,0,0,1-.263.226,5.085,5.085,0,0,0-.829.853c0,.032-.028.041-.061.02s-.079.008-.1.063a1.343,1.343,0,0,1-.213.288.771.771,0,0,0-.174.245,1.67,1.67,0,0,1-.235.363,2.132,2.132,0,0,0-.436.791.228.228,0,0,1-.084.142.872.872,0,0,0-.164.538.225.225,0,0,1-.045.15.576.576,0,0,0-.046.293c.006.122-.011.208-.038.192s-.049.114-.048.29c0,.194.021.288.052.241s.052.018.054.181a1.26,1.26,0,0,0,.077.5.266.266,0,0,1,.029.09,2.02,2.02,0,0,0,.1.271.709.709,0,0,1,.067.226c-.005.025.022.045.061.045s.054.017.033.038.056.148.173.282a1.114,1.114,0,0,1,.211.3c0,.067.033.1.563.633.512.512.683.66.63.551-.024-.049.027-.014.114.079s.157.151.157.129.1.051.23.164a1.87,1.87,0,0,0,.442.29,1.145,1.145,0,0,1,.243.12,2.921,2.921,0,0,0,.8.363c.064,0,.116.027.116.06s.053.06.119.06a.2.2,0,0,1,.153.055,1.286,1.286,0,0,0,.385.16,2.446,2.446,0,0,1,.417.155.522.522,0,0,0,.183.07c.064.012.241.059.392.1s.3.086.336.09.184.041.336.082a6.537,6.537,0,0,0,1.067.236,1.189,1.189,0,0,1,.275.04,15.5,15.5,0,0,0,2.349.017,4.372,4.372,0,0,1,.6-.079,1.735,1.735,0,0,0,.488-.081.968.968,0,0,1,.31-.088c.376-.057.832-.193.789-.234-.021-.021.019-.023.09,0s.128,0,.128-.031.055-.053.122-.041.122,0,.122-.034.069-.057.153-.057.152-.031.152-.07.018-.052.04-.031.077.009.122-.027.082-.049.082-.027.062.006.137-.036a1.091,1.091,0,0,1,.168-.08,1.356,1.356,0,0,0,.488-.222c0-.027.054-.048.12-.048a1.67,1.67,0,0,0,.473-.188,5.507,5.507,0,0,0,1.067-.619.159.159,0,0,1,.092-.07c.1-.009.384-.168.384-.218,0-.029.068-.078.153-.109s.152-.087.152-.122.026-.049.057-.031.1-.026.152-.1.1-.115.1-.091.051,0,.113-.062a2.931,2.931,0,0,1,.29-.226,11.584,11.584,0,0,0,1.367-1.325.89.89,0,0,1,.245-.264.756.756,0,0,0,.243-.286c0-.045.027-.082.06-.082s.1-.079.151-.175a1.327,1.327,0,0,1,.171-.256c.164-.167.345-.457.307-.494-.021-.021-.007-.038.033-.038s.071-.054.071-.121.027-.12.061-.12.061-.04.061-.09.029-.09.065-.09.048-.027.027-.06,0-.06.037-.06.057-.018.035-.039.014-.126.081-.232.1-.21.081-.232-.006-.039.035-.039.059-.025.04-.056A.069.069,0,0,1,23,40.223a.069.069,0,0,0,.028-.095c-.019-.031,0-.056.04-.056s.057-.017.036-.038,0-.116.053-.211.078-.173.061-.173.011-.1.06-.211a8.038,8.038,0,0,0,.309-1.174,1.54,1.54,0,0,1,.062-.241,4.09,4.09,0,0,0,.142-.934,9.835,9.835,0,0,0,.07-1.749.687.687,0,0,1-.048-.222,4.831,4.831,0,0,0-.171-.919c-.054-.2-.1-.395-.106-.436s-.03-.075-.057-.075-.046-.048-.041-.106c.018-.206-.011-.323-.071-.287-.034.021-.045,0-.026-.051a.108.108,0,0,0-.032-.128.071.071,0,0,1-.032-.1.233.233,0,0,0-.034-.18,1.076,1.076,0,0,1-.091-.227,1.644,1.644,0,0,0-.243-.567c-.034-.025-.041-.045-.016-.045.048,0-.132-.492-.2-.543a.363.363,0,0,1-.074-.151c-.019-.066-.074-.215-.122-.331-.085-.2-.036-.792.059-.7.019.019.086-.023.148-.094s.113-.111.113-.09.089-.015.2-.08a4.378,4.378,0,0,1,.427-.216c.126-.054.229-.122.229-.152s.04-.054.09-.054a1.457,1.457,0,0,0,.613-.289.321.321,0,0,1,.2-.088c.075-.005.136-.031.136-.057a.034.034,0,0,1,.046-.035.644.644,0,0,0,.236-.088c.1-.055.208-.083.229-.063s.038.006.038-.033a.084.084,0,0,1,.093-.07,2.461,2.461,0,0,0,.5-.19,2.474,2.474,0,0,1,.456-.181c.025.005.046-.018.046-.051a.071.071,0,0,1,.077-.06,5.5,5.5,0,0,0,1.082-.451.824.824,0,0,1,.275-.118.777.777,0,0,0,.286-.134c.057-.05.126-.078.154-.06a.845.845,0,0,0,.355-.114,1.788,1.788,0,0,1,.376-.146.333.333,0,0,0,.171-.1c.054-.054.116-.081.136-.061s.074.007.119-.03.082-.049.082-.028.089-.008.2-.065a2.515,2.515,0,0,1,.229-.111c.046-.01.382-.154.5-.215a.591.591,0,0,1,.225-.054.207.207,0,0,0,.157-.06.183.183,0,0,1,.142-.06,1.029,1.029,0,0,0,.332-.121c.126-.066.228-.1.228-.083s.045,0,.1-.045.1-.071.107-.057a2.6,2.6,0,0,0,.494-.16,5.712,5.712,0,0,1,.717-.228c.126-.023.229-.068.229-.1s.027-.04.061-.02.061.006.061-.033.042-.054.1-.034a.5.5,0,0,0,.29-.05,1.559,1.559,0,0,1,.315-.106.292.292,0,0,0,.157-.066.483.483,0,0,1,.213-.081c.1-.018.206-.04.239-.048s.171-.035.305-.061a1.384,1.384,0,0,0,.379-.13.708.708,0,0,1,.317-.084.319.319,0,0,0,.22-.061.069.069,0,0,1,.091-.029.066.066,0,0,0,.089-.026.1.1,0,0,1,.114-.029.786.786,0,0,0,.333-.06c.141-.049.257-.074.257-.055s.043,0,.095-.043c.1-.081.1-.053,0,.424-.018.083-.044.34-.059.572s-.047.557-.072.723a11.509,11.509,0,0,0,.146,3.239.9.9,0,0,1,.1.3c.023.124.069.226.1.226s.045.027.024.061,0,.077.057.1.08.06.061.089.042.128.135.22a1.028,1.028,0,0,1,.171.2c0,.017.023.023.049.015s.039.013.03.047.067.108.168.165a.857.857,0,0,1,.232.179.183.183,0,0,0,.137.075c.049,0,.088.027.088.06s.021.056.046.051a.7.7,0,0,1,.229.071,6.1,6.1,0,0,0,2.238-.054c.088-.033.178-.042.2-.02s.06.007.085-.033a.54.54,0,0,1,.287-.108.8.8,0,0,0,.3-.092.319.319,0,0,1,.183-.057.5.5,0,0,0,.243-.09.455.455,0,0,1,.221-.089.274.274,0,0,0,.18-.092c.042-.05.09-.079.1-.064a6.785,6.785,0,0,0,1.053-.506,3.08,3.08,0,0,1,.305-.173,5.349,5.349,0,0,0,.843-.535.271.271,0,0,1,.133-.076.37.37,0,0,0,.159-.105.376.376,0,0,1,.154-.105c.026,0,.092-.054.146-.12s.081-.08.059-.03.029.016.115-.075a.67.67,0,0,1,.2-.165,2.434,2.434,0,0,0,.384-.286c.188-.157.38-.313.426-.346s.24-.21.432-.392A13.326,13.326,0,0,0,48.327,26.5a3.462,3.462,0,0,1,.327-.363c.168-.171.367-.391.443-.49l.366-.477c.126-.164.277-.347.335-.406a.362.362,0,0,0,.107-.171.451.451,0,0,1,.122-.192.437.437,0,0,0,.122-.208.074.074,0,0,1,.067-.079c.037,0,.053-.038.035-.085a.129.129,0,0,1,0-.12c.156-.154.051-.882-.157-1.1-.068-.071-.108-.145-.087-.165s0-.036-.042-.036a.328.328,0,0,1-.18-.115,1.159,1.159,0,0,0-.752-.124.883.883,0,0,1-.108.021,10.784,10.784,0,0,0-1.4,1.265c0,.014-.254.282-.564.6s-.6.625-.65.693a.764.764,0,0,1-.228.2.407.407,0,0,0-.179.19c-.02.064-.052.1-.069.083-.035-.034-.231.139-.231.2s-.2.241-.27.241c-.036,0-.066.022-.066.049a.437.437,0,0,1-.1.165c-.053.064-.075.076-.049.027s-.14.086-.369.3a8.885,8.885,0,0,1-1.394,1.228.915.915,0,0,0-.279.207,1.445,1.445,0,0,1-.254.208c0-.013-.06.032-.134.1a.481.481,0,0,1-.2.124.517.517,0,0,0-.209.151.751.751,0,0,1-.29.186c-.08.02-.146.058-.146.085s-.1.081-.213.119-.214.091-.214.118-.061.069-.137.093l-.168.054c-.017.006-.085.04-.153.076-.449.242-1.291.316-1.465.129a1.629,1.629,0,0,1-.235-1.132,8.312,8.312,0,0,1,.082-1.114,1.641,1.641,0,0,0,.082-.485.991.991,0,0,1,.069-.324,1,1,0,0,0,.071-.32.761.761,0,0,1,.078-.309.816.816,0,0,0,.087-.309,2.036,2.036,0,0,1,.1-.408.61.61,0,0,0,.055-.211,1.031,1.031,0,0,1,.069-.277,10.1,10.1,0,0,0,.281-1.121,5.89,5.89,0,0,1,.178-.6,1.706,1.706,0,0,0,.123-.493.066.066,0,0,1,.033-.086A.069.069,0,0,0,40.6,22c-.019-.031-.011-.056.019-.056a2.324,2.324,0,0,0,.216-.822c.006-.072.03-.118.053-.1s.043-.022.044-.081a7.174,7.174,0,0,1,.1-.814.393.393,0,0,0-.044-.328c-.067-.081-.067-.092,0-.054s.058,0-.013-.132c-.052-.1-.081-.192-.066-.208s-.026-.077-.094-.137a.36.36,0,0,1-.123-.176,1.119,1.119,0,0,0-.391-.4.522.522,0,0,1-.16-.123c-.068-.067-.15-.106-.183-.087s-.059.005-.059-.031-.026-.052-.057-.033a.074.074,0,0,1-.1-.031.107.107,0,0,0-.124-.034c-.046.017-.1.011-.112-.014s-.12-.037-.231-.025-.243.024-.293.027a.729.729,0,0,0-.26.122c-.092.064-.168.1-.168.072s-.067.034-.15.129-.14.182-.128.194-.015.092-.06.179a.314.314,0,0,0-.052.206c.017.027.006.049-.024.049s-.058.1-.063.214a.791.791,0,0,1-.054.286.745.745,0,0,0-.092.343.317.317,0,0,1-.051.15,1.191,1.191,0,0,0-.09.331,1.538,1.538,0,0,1-.081.331,1.212,1.212,0,0,0-.111.452,1.818,1.818,0,0,1-.064.3,1.4,1.4,0,0,0-.058.206.489.489,0,0,1-.076.181.481.481,0,0,0-.075.179c-.02.1-.167.152-.525.173-.042,0-.076.021-.076.042s-.075.033-.168.028a.44.44,0,0,0-.244.051c-.042.033-.076.039-.076.015s-.046-.008-.1.038-.089.059-.057.007.013-.062-.1-.019a2.048,2.048,0,0,1-.549.136,1.262,1.262,0,0,0-.284.076.553.553,0,0,1-.277.051c-.019-.019-.072,0-.118.034a.783.783,0,0,1-.308.1,1.1,1.1,0,0,0-.286.065.88.88,0,0,1-.225.066.642.642,0,0,0-.233.086c-.038.031-.085.039-.106.019s-.087-.016-.147.01-.137.054-.171.064a3.215,3.215,0,0,1-.442.1c-.042,0-.076.029-.076.059s-.026.038-.057.019a.069.069,0,0,0-.094.024.1.1,0,0,1-.116.029.483.483,0,0,0-.257.043.706.706,0,0,1-.224.063c-.025-.005-.046.015-.046.045s-.048.048-.107.039a.472.472,0,0,0-.257.081.432.432,0,0,1-.168.082.041.041,0,0,0-.033-.01c-.008,0-.092.01-.186.017a.351.351,0,0,0-.214.073.165.165,0,0,1-.134.053.71.71,0,0,0-.282.1.813.813,0,0,1-.309.11,1.154,1.154,0,0,0-.358.115.6.6,0,0,1-.288.085.124.124,0,0,0-.123.03.342.342,0,0,1-.119.067,2.87,2.87,0,0,0-.473.172,2.193,2.193,0,0,1-.336.113.205.205,0,0,0-.142.082.046.046,0,0,1-.068.03.694.694,0,0,0-.309.1,2.142,2.142,0,0,1-.41.151.917.917,0,0,0-.283.113.793.793,0,0,1-.254.105.665.665,0,0,0-.211.075.568.568,0,0,1-.177.069.211.211,0,0,0-.129.082.119.119,0,0,1-.1.061.607.607,0,0,0-.176.023.788.788,0,0,1-.146.028c-.013,0-.04.019-.061.047-.06.081-.33.218-.284.144s-.4.119-.462.2a.1.1,0,0,1-.077.044.786.786,0,0,0-.221.086.782.782,0,0,1-.216.086,7.2,7.2,0,0,0-.9.4c-.092.049-.168.073-.168.054s-.062,0-.137.039a.4.4,0,0,1-.183.063c-.025-.007-.046.016-.046.051s-.025.048-.056.03-.093,0-.138.046a.685.685,0,0,1-.264.126.794.794,0,0,0-.281.133.608.608,0,0,1-.244.115c-.08.015-.155.055-.166.088a.116.116,0,0,1-.108.061.5.5,0,0,0-.193.057,6.5,6.5,0,0,1-1.146.486c-.1,0-.1.011-.027.059.05.032.067.059.036.059a.974.974,0,0,1-.275-.23,1.347,1.347,0,0,0-.33-.27c-.061-.022-.1-.064-.077-.094s-.034-.1-.118-.152-.152-.124-.152-.156a2.628,2.628,0,0,0-.4-.458,3.34,3.34,0,0,1-.4-.443.729.729,0,0,0-.355-.3.074.074,0,0,1-.072-.076,1.4,1.4,0,0,0-.348-.376c-.191-.165-.441-.388-.554-.5a.887.887,0,0,0-.263-.2c-.031,0-.111-.088-.178-.2s-.121-.168-.122-.135-.111-.059-.244-.206a1.463,1.463,0,0,0-.243-.239,2.635,2.635,0,0,1-.354-.306c-.195-.183-.474-.427-.619-.543s-.393-.335-.551-.487a2.077,2.077,0,0,0-.387-.314.159.159,0,0,1-.1-.134c0-.053-.025-.08-.056-.061s-.114-.046-.184-.143a.65.65,0,0,0-.249-.215c-.066-.021-.12-.072-.12-.114,0-.111-.274-.346-.34-.293-.031.025-.037.022-.012-.008.046-.055-.171-.277-.271-.277-.03,0-.044-.02-.03-.045.035-.062-.306-.374-.355-.325-.022.021-.03.007-.019-.032s-.089-.176-.224-.3a4.781,4.781,0,0,1-.84-.944c.019-.019-.011-.051-.066-.072s-.1-.069-.1-.107a.609.609,0,0,0-.179-.236.925.925,0,0,1-.218-.286c-.021-.065-.064-.119-.1-.119a.061.061,0,0,1-.057-.063,4.483,4.483,0,0,0-.579-.854c-.034-.024-.038-.045-.011-.045s.007-.044-.046-.1a.319.319,0,0,1-.1-.181c0-.047-.027-.086-.06-.086s-.077-.068-.1-.15-.064-.151-.1-.151-.043-.024-.025-.053-.007-.087-.057-.127-.076-.1-.059-.123a.063.063,0,0,0-.027-.085.721.721,0,0,1-.149-.216c-.05-.1-.07-.167-.043-.151s0-.075-.069-.2a1.317,1.317,0,0,1-.126-.36c-.005-.069-.03-.126-.056-.126s-.03-.041-.011-.09.012-.09-.017-.09c-.047,0-.077-.215-.081-.6a.426.426,0,0,0-.053-.211,6.5,6.5,0,0,1-.013-1.271,1.5,1.5,0,0,0,.043-.27.914.914,0,0,1,.092-.344.125.125,0,0,0,.026-.131.049.049,0,0,1,.023-.078c.033-.011.072-.088.087-.171a.97.97,0,0,1,.04-.165.288.288,0,0,0,.027-.076c.008-.033.022-.081.03-.105a.23.23,0,0,0,.007-.09c0-.025.022-.045.057-.045s.049-.025.03-.055a.049.049,0,0,1,.015-.075,2.156,2.156,0,0,0,.253-.442,2.143,2.143,0,0,1,.3-.495c.054-.04.071-.074.038-.076s0-.044.077-.1.123-.117.106-.144.01-.083.06-.124a.251.251,0,0,0,.091-.161c0-.048.027-.07.061-.049s.061-.006.061-.059a.151.151,0,0,1,.092-.13c.051-.019.092-.059.092-.089a.8.8,0,0,1,.183-.243.753.753,0,0,0,.183-.25c0-.034.014-.047.032-.03a1.908,1.908,0,0,0,.591-.568c-.011-.025.008-.045.042-.045a1,1,0,0,0,.294-.231,1.112,1.112,0,0,1,.273-.226,4.7,4.7,0,0,0,.7-.552A.263.263,0,0,1,13.66,7.8c.035,0,.093-.055.13-.122s.091-.107.122-.089.1-.035.156-.118.121-.139.146-.124.1-.026.174-.091a.46.46,0,0,1,.185-.118.242.242,0,0,0,.131-.09,4.56,4.56,0,0,1,.839-.573.668.668,0,0,0,.208-.147c.088-.081.177-.131.2-.111s.037.007.037-.03.1-.1.214-.143.213-.1.213-.12.1-.075.213-.113.214-.095.214-.125.041-.056.092-.056.092-.027.092-.06.021-.057.046-.053c.128.02.2-.014.162-.077-.024-.038-.017-.053.016-.033s.153-.022.269-.094a3.306,3.306,0,0,1,.707-.338c.021,0,.057-.029.081-.067a.215.215,0,0,1,.129-.084,4.206,4.206,0,0,0,.512-.221,2.28,2.28,0,0,1,.473-.192c.025.008.046-.013.046-.046s.021-.056.046-.051a.674.674,0,0,0,.218-.06.982.982,0,0,1,.229-.07.061.061,0,0,0,.057-.064c0-.035.027-.047.061-.026s.061.009.061-.026.021-.058.046-.051a.369.369,0,0,0,.175-.058c.071-.039.142-.058.158-.043a1.779,1.779,0,0,0,.474-.152,3.194,3.194,0,0,1,.528-.181c.045,0,.083-.025.083-.055s.116-.074.259-.1a2.528,2.528,0,0,0,.473-.132,2.114,2.114,0,0,1,.641-.155.6.6,0,0,0,.19-.059.988.988,0,0,1,.275-.07c.114-.016.276-.046.359-.066s.243-.047.355-.06a2.134,2.134,0,0,0,.335-.067A2.817,2.817,0,0,1,25.1,2.71c.134-.015.313-.043.4-.062s.338-.052.564-.072a1.238,1.238,0,0,0,.412-.074,4.986,4.986,0,0,1,1.373-.084c.842-.009,1.374.028,1.333.094-.015.025.07.045.189.045.281,0,.288,0,.421.071a1.194,1.194,0,0,0,.275.09,3.7,3.7,0,0,1,.376.082.466.466,0,0,0,.137,0c.059-.006.107.014.107.043s.034.057.076.061c.76.068,1.693.734,1.693,1.209a.209.209,0,0,0,.062.16.069.069,0,0,1,.027.094c-.019.031-.009.056.022.056a7.382,7.382,0,0,1,.115,2.318,3.541,3.541,0,0,0-.059.376c0,.074-.026.135-.047.135-.039,0-.054.064-.077.331-.007.083-.029.15-.049.15s-.039.083-.042.185a.526.526,0,0,1-.076.268.141.141,0,0,0-.031.146c.022.034.012.063-.02.063s-.128.216-.158.421a.346.346,0,0,1-.041.09A1.352,1.352,0,0,0,32,9.151c-.027.1-.054.194-.059.211-.035.1-.11.288-.159.392a1.356,1.356,0,0,0-.082.241,2.627,2.627,0,0,1-.216.572.381.381,0,0,0-.051.15.515.515,0,0,1-.107.216c-.048.052-.066.115-.042.139s.006.067-.041.1a.3.3,0,0,0-.107.19.289.289,0,0,1-.082.175.308.308,0,0,0-.088.175.55.55,0,0,1-.084.206.479.479,0,0,0-.078.19.31.31,0,0,1-.061.15.307.307,0,0,0-.061.151.454.454,0,0,1-.1.2.322.322,0,0,0-.071.29c0,.021-.025.057-.062.08a.267.267,0,0,0-.09.157,3.367,3.367,0,0,1-.184.464,1.439,1.439,0,0,0-.146.422.366.366,0,0,1-.054.2c-.149.264.029,1.172.23,1.172.033,0,.092.067.129.148s.092.134.121.117.068.009.088.06c.046.119.573.465.643.422a.137.137,0,0,1,.126.013c.266.163,1.237-.23,1.042-.422-.021-.021,0-.038.037-.038s.058-.027.037-.06-.015-.06.012-.06.086-.088.132-.2c.2-.476.276-.642.48-1.039.119-.232.247-.46.284-.508.053-.069.049-.077-.024-.04-.051.025-.042.007.017-.042a.446.446,0,0,0,.136-.226.328.328,0,0,1,.079-.172A.711.711,0,0,0,33.707,13a1.227,1.227,0,0,1,.142-.271,1.947,1.947,0,0,0,.2-.437c.034-.124.091-.226.125-.226s.048-.024.029-.053a.355.355,0,0,1,.051-.226c.081-.166.239-.523.343-.775a4.127,4.127,0,0,0,.223-.722,1.393,1.393,0,0,1,.115-.339c.046-.087.068-.173.05-.191s0-.085.03-.148a1.231,1.231,0,0,0,.077-.4c.008-.155.033-.281.054-.281s.04-.034.041-.076c0-.086.065-.483.111-.707.017-.083.042-.2.054-.271s.051-.229.086-.361A5.548,5.548,0,0,0,35.45,6.05c-.041,0-.067-.162-.069-.437,0-.091-.032-.165-.07-.165s-.053-.016-.033-.035,0-.124-.048-.233-.067-.215-.046-.236.01-.038-.026-.038-.084-.061-.109-.135S35,4.621,34.991,4.6l-.063-.151a.979.979,0,0,0-.141-.226c-.051-.058-.074-.106-.051-.106a2.884,2.884,0,0,0-.561-.781c-.056-.032-.081-.059-.056-.06.053,0-.128-.221-.488-.587-.143-.146-.26-.245-.26-.221s-.086-.056-.191-.177a.764.764,0,0,0-.254-.22.326.326,0,0,1-.16-.09A7.894,7.894,0,0,0,30.872.891.729.729,0,0,1,30.653.8a.64.64,0,0,0-.26-.065C30.286.731,30.2.7,30.2.677s-.062-.049-.137-.051A2.472,2.472,0,0,1,29.59.514a1.873,1.873,0,0,0-.458-.1A.22.22,0,0,1,28.978.38a1.271,1.271,0,0,0-.4-.083A1.625,1.625,0,0,1,28.155.21a.4.4,0,0,0-.229-.021c-.092.013-.168,0-.168-.027,0-.064-.086-.07-1.377-.106a9.495,9.495,0,0,0-1.073,0M87.8,1.479c-.076.027-.137.034-.137.015s-.037-.005-.082.031-.1.05-.12.029-.132.033-.246.119-.221.143-.238.126-.127.059-.244.168a1.352,1.352,0,0,1-.244.2,2.453,2.453,0,0,0-.328.285c-.163.157-.4.38-.523.5a1.2,1.2,0,0,0-.2.212,4.448,4.448,0,0,1-.383.414c-.224.228-.5.529-.621.668s-.266.3-.332.368-.1.115-.068.115-.022.056-.111.125-.161.157-.161.2-.055.105-.122.147a.244.244,0,0,0-.122.162.257.257,0,0,1-.107.165,2.213,2.213,0,0,0-.443.561.272.272,0,0,1-.076.117,1.908,1.908,0,0,0-.168.214,1.986,1.986,0,0,1-.168.214.266.266,0,0,0-.076.143.059.059,0,0,1-.051.064c-.028,0-.089.075-.137.166a1.911,1.911,0,0,1-.332.466.67.67,0,0,0-.151.256c0,.041-.025.075-.056.075s-.119.1-.2.226a2.785,2.785,0,0,1-.247.34c-.059.063-.094.135-.079.159s-.015.061-.067.081-.079.062-.059.094-.022.089-.093.126-.115.082-.1.1-.029.1-.1.181a.647.647,0,0,0-.133.192.594.594,0,0,1-.134.185,1.883,1.883,0,0,0-.256.4.707.707,0,0,1-.216.291c-.052.02-.095.063-.095.1a1.073,1.073,0,0,1-.154.288l-.229.341a1.587,1.587,0,0,1-.143.184,1.629,1.629,0,0,0-.176.279,1.348,1.348,0,0,1-.145.238,1.736,1.736,0,0,0-.312.476.16.16,0,0,1-.076.108.907.907,0,0,0-.268.394c-.02.058-.06.106-.09.106s-.054.04-.054.09-.021.091-.046.092-.1.073-.163.16-.085.14-.031.109.006.036-.093.141-.153.191-.122.192.009.029-.049.063-.107.091-.107.127a.277.277,0,0,1-.107.152c-.069.056-.074.072-.015.047s.023.019-.061.091-.111.111-.061.086.016.026-.076.112a.546.546,0,0,0-.168.232.649.649,0,0,1-.168.253c-.092.1-.127.158-.076.134s.049-.01-.015.043a.278.278,0,0,0-.107.152.547.547,0,0,1-.167.219c-.092.084-.148.153-.125.153s-.025.072-.108.159a.566.566,0,0,0-.149.232.467.467,0,0,1-.118.206c-.065.074-.236.315-.381.536a6.22,6.22,0,0,1-.368.517c-.058.063-.091.138-.073.166s.005.051-.027.051a1.251,1.251,0,0,0-.277.385,1.437,1.437,0,0,1-.31.419.143.143,0,0,0-.092.118.353.353,0,0,1-.122.192.36.36,0,0,0-.122.175.864.864,0,0,1-.184.277,1.975,1.975,0,0,0-.259.376c-.041.091-.1.165-.125.165s-.035.024-.016.053-.035.125-.119.214a.618.618,0,0,0-.151.218.059.059,0,0,1-.061.057c-.034,0-.061.041-.061.09s-.027.09-.061.09-.061.041-.061.09-.021.091-.046.091a1.13,1.13,0,0,0-.314.442c0,.028-.048.088-.109.134s-.088.083-.06.085.014.039-.031.085a1.988,1.988,0,0,0-.172.218c-.051.074-.139.2-.2.273a.649.649,0,0,0-.107.171.8.8,0,0,1-.15.193,1.485,1.485,0,0,0-.228.334c-.043.1-.1.175-.124.175s-.047.034-.047.075a.488.488,0,0,1-.152.217c-.083.078-.138.163-.122.188s-.039.119-.122.208a.617.617,0,0,0-.151.218.058.058,0,0,1-.057.057.847.847,0,0,0-.229.3.946.946,0,0,1-.221.3c-.027,0-.034.025-.014.056s-.014.092-.073.135a.853.853,0,0,0-.194.245c-.048.091-.109.166-.137.166s-.051.034-.051.077a.339.339,0,0,1-.124.182c-.069.058-.106.136-.082.173s.015.051-.026.026-.084.019-.108.112a.394.394,0,0,1-.109.2c-.122.078-.322.34-.222.29.05-.025.023.01-.061.078s-.134.125-.11.126-.04.089-.139.2a1.045,1.045,0,0,0-.217.331c-.019.074-.073.135-.12.135a.088.088,0,0,0-.085.09.083.083,0,0,1-.071.09c-.039,0-.054.017-.033.038s-.043.108-.142.194a.541.541,0,0,0-.18.232c0,.042-.068.12-.153.174s-.152.136-.152.182-.021.077-.046.069a1.445,1.445,0,0,0-.361.3c-.388.388-.573.471-.706.318-.149-.172-.293-.77-.166-.693.026.016.051-.181.055-.437a16.839,16.839,0,0,1,.1-1.7c.019-.116.048-.373.064-.572a2.614,2.614,0,0,1,.113-.765.206.206,0,0,0,.014-.151,1.209,1.209,0,0,1,.027-.379c.059-.35.1-.617.14-.964.014-.116.042-.279.062-.361a9.153,9.153,0,0,0,.118-.978c0-.058.019-.106.039-.106s.04-.047.046-.106.022-.2.034-.316a1.364,1.364,0,0,1,.068-.313.207.207,0,0,0,0-.168.131.131,0,0,1,.022-.141,2.789,2.789,0,0,0,.167-.973,2.726,2.726,0,0,1,.085-.466.7.7,0,0,0,.031-.286c-.013-.066,0-.121.021-.121s.046-.047.048-.106c.005-.167.085-.871.122-1.069A16.4,16.4,0,0,0,68.2,14.6c-.028,0-.035-.04-.016-.09s0-.09-.033-.09-.064-.02-.06-.045a.172.172,0,0,0,0-.075,1.22,1.22,0,0,1-.033-.135.855.855,0,0,0-.193-.289c-.2-.215-.612-.536-.544-.426.036.057.017.057-.081,0-.071-.044-.128-.1-.128-.132s-.041-.037-.09-.018a.121.121,0,0,1-.141-.057.267.267,0,0,0-.2-.1.5.5,0,0,1-.221-.062c-.365-.271-.986-.075-1.524.482-.216.223-.466.481-.557.572s-.138.166-.106.166,0,.042-.076.094-.135.121-.135.154a1.286,1.286,0,0,1-.26.327,1.276,1.276,0,0,0-.252.313c0,.025-.044.081-.107.125s-.114.1-.114.135a1.158,1.158,0,0,1-.294.4c-.044.046-.063.083-.041.083s0,.043-.057.095a.313.313,0,0,0-.1.167.314.314,0,0,1-.107.169,1.966,1.966,0,0,0-.376.487.46.46,0,0,1-.1.15,4.881,4.881,0,0,0-.576.78.411.411,0,0,1-.11.172.435.435,0,0,0-.107.148,1.78,1.78,0,0,1-.225.307,1.352,1.352,0,0,0-.229.335.359.359,0,0,1-.12.167c-.066.059-.109.127-.094.15s-.052.126-.147.229-.159.2-.141.22-.012.049-.067.07-.087.059-.071.084-.038.117-.119.2-.131.158-.109.158-.022.056-.1.124-.116.154-.093.19.014.049-.019.03-.154.136-.268.348a1.362,1.362,0,0,1-.233.36c-.014-.013-.078.074-.143.194a1.7,1.7,0,0,1-.2.3.282.282,0,0,0-.086.136.8.8,0,0,1-.158.237c-.087.1-.135.186-.107.186s.01.027-.04.058-.092.08-.092.109a.362.362,0,0,1-.107.157.35.35,0,0,0-.107.182.353.353,0,0,1-.122.186.361.361,0,0,0-.122.214.165.165,0,0,1-.1.142c-.055.021-.085.053-.067.07s-.033.1-.114.189-.133.17-.117.186-.011.06-.061.1a.374.374,0,0,0-.118.2,1.3,1.3,0,0,1-.235.391,1.4,1.4,0,0,0-.36.6c.007.025-.016.045-.052.045s-.048.027-.027.061,0,.077-.057.1-.08.06-.061.09.006.054-.028.054-.127.129-.208.286-.206.381-.277.5-.149.251-.172.3a2.161,2.161,0,0,1-.184.277.777.777,0,0,0-.142.245.406.406,0,0,1-.107.175,1.447,1.447,0,0,0-.184.267c-.042.083-.13.232-.2.331s-.171.275-.233.391-.2.35-.3.522a.8.8,0,0,0-.153.346c.02.02,0,.035-.036.035s-.071.053-.071.117a.2.2,0,0,1-.087.165.216.216,0,0,0-.1.092c-.045.2-.082.287-.124.287-.027,0-.085.1-.127.211s-.1.211-.13.211-.037.024-.019.054-.008.07-.058.089-.086.056-.08.081a1.171,1.171,0,0,1-.238.488.285.285,0,0,0-.077.166c0,.047-.022.086-.048.086a.788.788,0,0,0-.168.308.863.863,0,0,1-.193.336.085.085,0,0,0-.039.113c.018.047.007.085-.025.085s-.11.1-.174.224-.2.364-.312.535a.934.934,0,0,0-.165.34c.017.016-.012.046-.064.065s-.1,0-.1-.068-.009-.246-.015-.419.014-.316.044-.316.04-.016.02-.035a.507.507,0,0,1,.049-.272c.046-.13.085-.249.087-.266a.283.283,0,0,1,.007-.044c.013-.039.062-.329.074-.437a.267.267,0,0,1,.06-.155.617.617,0,0,0,.077-.267,4.023,4.023,0,0,1,.12-.53.783.783,0,0,0,.05-.359c-.022-.036-.009-.044.032-.019s.07,0,.07-.081a1.01,1.01,0,0,1,.012-.169c.007-.025.063-.221.126-.436a3.984,3.984,0,0,0,.189-.828c.005-.074.029-.135.053-.135s.028-.04.009-.09,0-.09.043-.09.062-.015.043-.034a.46.46,0,0,1,.025-.249,2.559,2.559,0,0,0,.129-.606c0-.074.03-.135.059-.135s.037-.025.017-.056a.069.069,0,0,1,.027-.094.314.314,0,0,0,.062-.219.739.739,0,0,1,.058-.288,1.135,1.135,0,0,0,.09-.277c.017-.094.065-.322.105-.506a2.191,2.191,0,0,0,.063-.381.035.035,0,0,1,.037-.045c.026,0,.052-.047.057-.105a2.168,2.168,0,0,1,.116-.571.808.808,0,0,0,.062-.248.445.445,0,0,1,.067-.217.291.291,0,0,0,.065-.154,4.09,4.09,0,0,1,.184-.768c.037-.091.054-.165.037-.165s-.005-.048.026-.105a2.425,2.425,0,0,0,.158-.647,1.986,1.986,0,0,1,.092-.3,1.22,1.22,0,0,0,.067-.2.06.06,0,0,1,0-.03c0-.008.015-.069.026-.135a1.666,1.666,0,0,1,.117-.4.2.2,0,0,0,.005-.165c-.022-.035-.014-.063.018-.063s.058-.061.059-.135a2.882,2.882,0,0,1,.105-.5,11.7,11.7,0,0,0,.309-1.228,1.039,1.039,0,0,1,.062-.256.7.7,0,0,0,.059-.172c.015-.066.04-.175.054-.241a.737.737,0,0,1,.064-.179,2.079,2.079,0,0,0,.109-.588c0-.074.026-.135.05-.135a1,1,0,0,0,.113-.376,2.16,2.16,0,0,1,.128-.557.335.335,0,0,0,.032-.121,1.044,1.044,0,0,1,.1-.361,2.851,2.851,0,0,0,.12-.6,2.121,2.121,0,0,1,.089-.286,2.816,2.816,0,0,0,.122-.494.807.807,0,0,1,.1-.317c.037-.043.051-.079.033-.079s-.007-.088.026-.2a5.759,5.759,0,0,0,.264-1.255.044.044,0,0,1,.03-.064c.055-.02.1-.166.157-.562a3.02,3.02,0,0,1,.146-.632,2.913,2.913,0,0,0,.147-.738c0-.058.021-.106.05-.106s.049-.02.043-.045a.366.366,0,0,1,.038-.153c.026-.059.033-.122.014-.141a.478.478,0,0,1,.044-.253.676.676,0,0,0,.051-.3.177.177,0,0,1,.031-.15,2.077,2.077,0,0,0,.167-.615c0-.033.027-.162.052-.285s.046-.246.048-.271a.241.241,0,0,1,.05-.106.334.334,0,0,0,.036-.2c-.007-.074.014-.135.045-.135s.04-.044.019-.1a.185.185,0,0,1,.017-.165,5.413,5.413,0,0,0,.156-1.272,1.015,1.015,0,0,0-.046-.422.585.585,0,0,1-.068-.17c0-.028-.056-.089-.121-.135s-.093-.087-.061-.088S58.1,5.583,58,5.533s-.168-.116-.168-.148-.049-.058-.11-.058a.29.29,0,0,1-.178-.067,2.372,2.372,0,0,0-.506-.306.85.85,0,0,1-.183-.114.206.206,0,0,0-.122-.043c-.422-.027-.63-.019-.663.027a1.075,1.075,0,0,1-.208.16c-.093.059-.153.132-.134.164s.01.057-.021.057-.078.061-.1.135-.051.149-.058.166a1.971,1.971,0,0,0-.148.468,1.887,1.887,0,0,0-.044.433c.007.1-.013.16-.046.14s-.041.031-.016.13a.328.328,0,0,1-.014.235,1.664,1.664,0,0,0-.092.491,3.96,3.96,0,0,1-.177,1.084,1.236,1.236,0,0,0-.076.331.271.271,0,0,1-.044.159,2.161,2.161,0,0,0-.118.7c0,.058-.019.106-.045.106s-.05.034-.054.075a5.761,5.761,0,0,1-.137.647,3.211,3.211,0,0,0-.079.431c-.006.088-.03.148-.053.134s-.043.022-.044.081a1.237,1.237,0,0,1-.082.476,2.338,2.338,0,0,0-.124.609c0,.041-.025.075-.053.075s-.051.05-.051.111a4.416,4.416,0,0,1-.125.587,6.855,6.855,0,0,0-.2.958.883.883,0,0,1-.091.261c-.042.077-.063.154-.047.17a.42.42,0,0,1-.027.221,3.99,3.99,0,0,0-.092.4,1.311,1.311,0,0,1-.094.32,3.872,3.872,0,0,0-.194.855.956.956,0,0,1-.088.246,1.606,1.606,0,0,0-.107.421.988.988,0,0,1-.094.353.375.375,0,0,0-.056.211,1.526,1.526,0,0,1-.085.393.917.917,0,0,0-.063.346c.011.059-.007.107-.042.107s-.051.034-.036.075a.7.7,0,0,1-.053.3c-.044.125-.085.247-.09.271s-.018.072-.027.1c-.084.3-.175.672-.184.749a.815.815,0,0,1-.05.185,3.029,3.029,0,0,0-.1.376,4.556,4.556,0,0,1-.222.9.819.819,0,0,0-.062.252,1.206,1.206,0,0,1-.076.307,10.018,10.018,0,0,0-.283,1.074c-.013.06-.043.169-.067.241a2.014,2.014,0,0,0-.061.251,1.571,1.571,0,0,1-.105.392,1.216,1.216,0,0,0-.059.274.782.782,0,0,1-.066.257.865.865,0,0,0-.075.238,6.324,6.324,0,0,1-.206.752c-.033.107-.029.153.01.129s.04,0,0,.075a4.521,4.521,0,0,0-.23.714.624.624,0,0,1-.022.09c-.007.016-.023.077-.038.135s-.035.139-.046.181-.042.184-.069.316a1.015,1.015,0,0,1-.108.315.178.178,0,0,0-.027.158.154.154,0,0,1-.036.151c-.038.037-.046.068-.018.068s.019.037-.019.082a.74.74,0,0,0-.084.331c-.008.137-.037.249-.064.249s-.035.022-.018.05a.806.806,0,0,1-.055.331c-.047.155-.066.281-.043.282s.015.021-.02.045a2.7,2.7,0,0,0-.247.827.412.412,0,0,1-.025.12.658.658,0,0,0-.04.151,1.447,1.447,0,0,1-.082.331.472.472,0,0,0-.033.122c-.013.067-.093.379-.178.693a4.67,4.67,0,0,0-.155.754.445.445,0,0,1-.055.241.9.9,0,0,0-.092.328c-.02.149-.05.365-.066.479a1.825,1.825,0,0,1-.064.3,4.193,4.193,0,0,0-.111.774c0,.074-.021.135-.042.135s-.042.034-.046.075a2.678,2.678,0,0,1-.092.527,7.415,7.415,0,0,0,.045,3.435c.085.181.155.3.156.271s.045,0,.1.079a.659.659,0,0,0,.229.194,2.777,2.777,0,0,1,.52.313.624.624,0,0,0,.309.105.394.394,0,0,1,.238.074c.205.2,1.6-.024,1.6-.26,0-.03.035-.055.078-.055.087,0,.294-.215.249-.259-.016-.016.041-.083.127-.149s.156-.15.156-.184a.162.162,0,0,1,.081-.112,1.459,1.459,0,0,0,.257-.36c.1-.172.2-.3.224-.283s.048,0,.048-.037a1.778,1.778,0,0,1,.213-.4,3.567,3.567,0,0,0,.214-.353c0-.013.119-.223.264-.465s.33-.577.412-.743a2.21,2.21,0,0,1,.225-.381c.042-.044.061-.1.042-.135s-.012-.055.015-.055.086-.082.131-.182a1.068,1.068,0,0,1,.165-.264.4.4,0,0,0,.1-.164,1.076,1.076,0,0,1,.146-.263c.071-.1.235-.384.365-.632a4.325,4.325,0,0,1,.276-.482,1.859,1.859,0,0,0,.246-.557c-.005-.025.023-.045.062-.045s.055-.016.036-.035.031-.131.112-.249a.861.861,0,0,0,.148-.3c0-.047.025-.07.056-.051s.074-.047.1-.147.07-.181.107-.181.048-.018.025-.041.019-.1.092-.181.114-.14.091-.14c-.041,0,.132-.3.209-.361a4.61,4.61,0,0,0,.276-.482,5.354,5.354,0,0,1,.273-.482c.042-.036.134-.27.106-.272a.825.825,0,0,1,.145-.177c.091-.1.151-.2.134-.224s-.006-.049.024-.049c.048,0,.141-.152.2-.331a.742.742,0,0,1,.13-.177.322.322,0,0,0,.12-.283c0-.021.049-.086.115-.145a.367.367,0,0,0,.12-.159,5.138,5.138,0,0,1,.476-.742A.545.545,0,0,0,59.093,27a.724.724,0,0,1,.157-.207c.09-.1.153-.193.139-.216s.04-.1.121-.176.133-.171.115-.215.027-.11.1-.147.112-.094.093-.125,0-.057.039-.057.059-.015.04-.034.032-.1.113-.191a.857.857,0,0,0,.183-.3c.02-.077.06-.14.09-.14s.055-.041.055-.09.027-.09.061-.09.061-.038.061-.083a.254.254,0,0,1,.093-.159c.051-.042.082-.088.068-.1s.04-.095.119-.18.133-.173.119-.2.029-.088.1-.145.105-.129.085-.161-.008-.059.028-.059a.074.074,0,0,0,.065-.08.465.465,0,0,1,.15-.22c.083-.077.137-.161.121-.188s.023-.1.088-.157a.51.51,0,0,0,.139-.2.463.463,0,0,1,.1-.176,14.521,14.521,0,0,0,1.013-1.558c.023-.075.065-.122.092-.106s.1-.067.163-.186l.174-.331c.033-.063.08-.115.1-.115a1.515,1.515,0,0,0,.274-.346,2.267,2.267,0,0,1,.278-.366.121.121,0,0,0,.047-.106c0-.047.028-.085.062-.085s.109-.1.168-.226a1.746,1.746,0,0,1,.247-.376,1.79,1.79,0,0,0,.227-.309c.277-.514.393-.153.217.677a2.012,2.012,0,0,0-.057.391,2.164,2.164,0,0,1-.037.384c-.028.182-.06.4-.07.482s-.031.232-.045.331c-.059.414-.152,1.15-.156,1.235a4.63,4.63,0,0,1-.085.662,5.626,5.626,0,0,0-.071.565,3.011,3.011,0,0,1-.059.452,2.444,2.444,0,0,0-.059.4,5.444,5.444,0,0,1-.129.813,13.144,13.144,0,0,0,.055,2.469,3.943,3.943,0,0,1,.1.765.225.225,0,0,0,.06.169.315.315,0,0,1,.06.217c0,.35.855,1.519,1.09,1.489.115-.014.194.016.165.064-.041.065.136.141.215.093.031-.019.056-.007.056.025,0,.054.29.173.537.22a.918.918,0,0,1,.134.034.455.455,0,0,0,.092.023,2.886,2.886,0,0,1,.28.083,2.75,2.75,0,0,0,.97.008.191.191,0,0,1,.083,0,.229.229,0,0,0,.137-.06c.047-.038.085-.053.085-.033s.11-.02.244-.089.244-.15.244-.18.038-.054.086-.054a7.659,7.659,0,0,0,1.744-1.554.456.456,0,0,1,.137-.176c.212-.194.4-.43.368-.461-.016-.016.029-.064.1-.108s.128-.1.128-.122a1.323,1.323,0,0,1,.244-.282,1.157,1.157,0,0,0,.244-.292,1.45,1.45,0,0,1,.259-.33,3.861,3.861,0,0,0,.412-.529,3.727,3.727,0,0,1,.321-.442,1.185,1.185,0,0,0,.206-.306.691.691,0,0,1,.09-.182l.206-.254a.748.748,0,0,0,.153-.256.066.066,0,0,1,.065-.067c.036,0,.049-.024.031-.054s.009-.07.061-.09.078-.063.057-.1-.009-.061.026-.061.149-.149.254-.331a1.133,1.133,0,0,1,.237-.331c.027,0,.065-.048.085-.106a3.876,3.876,0,0,1,.327-.506c.625-.861.8-1.124.77-1.154s.026-.062.1-.1.127-.1.127-.132a.966.966,0,0,1,.182-.29c.1-.124.168-.239.153-.254s.04-.092.124-.169a.466.466,0,0,0,.152-.227.388.388,0,0,1,.137-.2c.075-.066.1-.1.046-.08-.081.035-.081.03,0-.041a2.068,2.068,0,0,0,.427-.587.059.059,0,0,1,.049-.064c.027,0,.1-.095.152-.211s.13-.211.164-.211.062-.054.062-.121.027-.12.061-.12.061-.042.061-.094.023-.08.051-.063.116-.083.2-.222a2.2,2.2,0,0,1,.219-.329,5.653,5.653,0,0,0,.365-.542,4.978,4.978,0,0,1,.357-.527,1.892,1.892,0,0,0,.361-.533.4.4,0,0,1,.087-.163c.283-.326.368-.447.34-.49-.017-.027.012-.066.064-.086a.147.147,0,0,0,.1-.122.143.143,0,0,1,.092-.12.141.141,0,0,0,.092-.115.316.316,0,0,1,.1-.174c.053-.052.076-.095.052-.095s.01-.047.075-.105a3.031,3.031,0,0,0,.51-.736.084.084,0,0,1,.046-.072,2.125,2.125,0,0,0,.381-.589c0-.033.055-.089.122-.124a.219.219,0,0,0,.122-.153.332.332,0,0,1,.122-.192.332.332,0,0,0,.122-.18.074.074,0,0,1,.071-.077c.039,0,.056-.015.037-.034s.031-.1.112-.189a.6.6,0,0,0,.146-.211.288.288,0,0,1,.076-.14c.184-.2.219-.258.184-.292s-.008-.036.028-.036.124-.115.2-.256a1.536,1.536,0,0,1,.2-.318,1.136,1.136,0,0,0,.264-.405c.019-.058.06-.105.09-.105s.054-.042.054-.094.027-.077.061-.057.061-.005.061-.057.021-.094.046-.094a.94.94,0,0,0,.252-.4c0-.021.04-.063.094-.092a.219.219,0,0,0,.1-.175c0-.066.027-.1.061-.084s.061-.005.061-.057.023-.094.051-.094.089-.074.137-.165a1.341,1.341,0,0,1,.158-.241,3.939,3.939,0,0,0,.455-.707.279.279,0,0,1,.113-.133.685.685,0,0,0,.182-.256c.042-.1.1-.183.131-.183s.053-.041.053-.09.027-.09.061-.09A.071.071,0,0,0,84.8,8.5a.488.488,0,0,1,.153-.217.489.489,0,0,0,.152-.212.324.324,0,0,1,.107-.17,2.516,2.516,0,0,0,.384-.469,1.341,1.341,0,0,1,.228-.26.082.082,0,0,0,.042-.106c-.02-.031.007-.073.06-.093s.1-.059.1-.087a4.152,4.152,0,0,1,.655-.741.729.729,0,0,0,.168-.221c0-.1.4-.4.473-.349a.479.479,0,0,0,.154-.063c.159-.084.161.03.014.625a4.728,4.728,0,0,0-.141.753.626.626,0,0,1-.06.221.778.778,0,0,0-.069.241,3.74,3.74,0,0,1-.119.469.913.913,0,0,0-.067.326c.015.015,0,.064-.041.109s-.052.1-.03.121.015.068-.014.1a3.751,3.751,0,0,0-.226.774.42.42,0,0,1-.026.075,1.709,1.709,0,0,0-.087.391,1.09,1.09,0,0,1-.111.346c-.034.041-.045.075-.025.075s.01.069-.023.154a2.648,2.648,0,0,0-.142.644c0,.058-.026.106-.052.106s-.048.046-.048.1a9.188,9.188,0,0,1-.256,1.133,3.271,3.271,0,0,0-.126.587c-.006.058-.031.105-.055.105s-.045.048-.047.106a1.439,1.439,0,0,1-.12.52c-.039.1-.058.187-.042.2s-.01.106-.059.2a.96.96,0,0,0-.089.374.516.516,0,0,1-.042.246.7.7,0,0,0-.1.34.494.494,0,0,1-.055.157,1.149,1.149,0,0,0-.074.3,1.22,1.22,0,0,1-.144.551c-.041.074-.062.135-.046.135a.651.651,0,0,1-.053.271c-.045.149-.068.271-.051.271s.005.034-.028.075a1.969,1.969,0,0,0-.179.677.784.784,0,0,1-.075.241.261.261,0,0,0-.036.151,1.037,1.037,0,0,1-.066.3,6.2,6.2,0,0,0-.229.9,1.6,1.6,0,0,1-.092.321,1.455,1.455,0,0,0-.086.376c-.008.113-.031.206-.05.206s-.037.034-.04.075a1.737,1.737,0,0,1-.135.587.173.173,0,0,0-.05.121,1.156,1.156,0,0,1-.039.211c-.019.066-.066.242-.1.391s-.085.312-.1.361a.416.416,0,0,0-.018.172.376.376,0,0,1-.031.181,1.5,1.5,0,0,0-.057.144.5.5,0,0,1-.028.076.551.551,0,0,0-.03.09.286.286,0,0,1-.028.075,2.411,2.411,0,0,0-.094.444,2.015,2.015,0,0,1-.089.346c-.033.087-.044.158-.024.158s0,.04-.04.09-.056.09-.031.09.018.034-.015.075A.278.278,0,0,0,83,23.78a.442.442,0,0,1-.051.241,1.111,1.111,0,0,0-.13.5c0,.071-.027.117-.052.1s-.048.021-.051.081a2.052,2.052,0,0,1-.035.259c-.017.083-.037.184-.045.224a.246.246,0,0,1-.052.111.139.139,0,0,0,0,.128.113.113,0,0,1-.036.134.364.364,0,0,0-.1.22,3,3,0,0,1-.086.372c-.033.108-.045.2-.026.2s0,.041-.042.09-.06.09-.041.09a.721.721,0,0,1-.058.307,2.446,2.446,0,0,0-.1.482c0,.1-.025.175-.05.175a1.676,1.676,0,0,0-.139.647.063.063,0,0,1-.053.075c-.033,0-.047.034-.032.075a.281.281,0,0,1-.031.186,1.072,1.072,0,0,0-.083.241c-.014.072-.041.2-.06.281s-.042.191-.051.241a1.6,1.6,0,0,1-.089.264c-.041.1-.061.186-.047.2a.42.42,0,0,1-.052.218.711.711,0,0,0-.061.3.147.147,0,0,1-.033.135c-.027.017-.034.089-.015.16s.011.116-.033.089-.067,0-.067.066a2.291,2.291,0,0,1-.068.378,2.25,2.25,0,0,0-.067.389.354.354,0,0,1-.064.2.188.188,0,0,0-.029.171c.021.054.011.079-.024.057s-.064.033-.068.117-.01.2-.013.259a.21.21,0,0,1-.051.138,2.09,2.09,0,0,0-.127.645c0,.041-.021.075-.042.075s-.044.078-.052.175a2.07,2.07,0,0,1-.1.429,1.6,1.6,0,0,0-.091.425,1.017,1.017,0,0,1-.053.309,6.718,6.718,0,0,0-.267,1.132.313.313,0,0,1-.059.163.127.127,0,0,0-.021.132.07.07,0,0,1-.026.1c-.034.021-.051.1-.036.185s.006.147-.02.147-.05.034-.053.076a6.776,6.776,0,0,1-.177.858c-.052.2-.105.443-.12.542s-.044.248-.066.331-.046.191-.055.241-.034.158-.057.241a1.267,1.267,0,0,0-.041.286c0,.075-.021.135-.048.135s-.041.048-.032.106a.261.261,0,0,1-.042.18.189.189,0,0,0-.023.17.307.307,0,0,1-.03.219,1.522,1.522,0,0,0-.1.432.889.889,0,0,1-.076.339.182.182,0,0,0-.053.121,3.644,3.644,0,0,1-.124.736,2.14,2.14,0,0,0-.079.378.644.644,0,0,1-.069.253.25.25,0,0,0-.014.2c.022.068.016.123-.012.123-.046,0-.083.182-.1.5,0,.058-.025.106-.047.106s-.047.1-.053.211c-.022.428-.033.512-.068.512s-.04.1-.044.214a.844.844,0,0,1-.043.27,2.53,2.53,0,0,0-.129.63l-.047.3a1.258,1.258,0,0,1-.053.211.571.571,0,0,0-.033.181,1.341,1.341,0,0,1-.03.241,2.608,2.608,0,0,0-.113.714.359.359,0,0,1-.028.181.849.849,0,0,0-.057.2.488.488,0,0,1-.025.121.686.686,0,0,0-.036.135c-.013.066-.053.256-.09.421a5.559,5.559,0,0,0-.152.916.618.618,0,0,0,.032.35.177.177,0,0,1,.06.138c0,.12.258.433.358.433a.064.064,0,0,1,.069.056c0,.053.155.125.262.122a.308.308,0,0,1,.142.091.417.417,0,0,0,.374.1.062.062,0,0,1,.076.056c0,.145.984,0,1.03-.151a.06.06,0,0,1,.065-.048c.026.007.085-.061.131-.151a.84.84,0,0,1,.128-.195,3.888,3.888,0,0,0,.2-.921.874.874,0,0,1,.064-.228,1.171,1.171,0,0,0,.06-.311,3.719,3.719,0,0,1,.111-.706,3.967,3.967,0,0,0,.124-.707c0-.074.029-.135.057-.135s.038-.034.024-.075a.377.377,0,0,1,.022-.206,2.906,2.906,0,0,0,.089-.482,2.114,2.114,0,0,1,.087-.442.5.5,0,0,0,.034-.226c-.007-.075.008-.135.033-.135s.044-.061.043-.135c0-.254.041-.467.1-.467.03,0,.04-.038.021-.085a.129.129,0,0,1,.007-.123.434.434,0,0,0,.049-.2.66.66,0,0,1,.025-.178.359.359,0,0,0,.028-.12,2.049,2.049,0,0,1,.056-.256,2.521,2.521,0,0,0,.064-.331.73.73,0,0,1,.033-.181,4.592,4.592,0,0,0,.2-1.011.123.123,0,0,1,.031-.121.774.774,0,0,0,.1-.283c.042-.249.1-.547.117-.632a.462.462,0,0,1,.053-.123,1.346,1.346,0,0,0,.077-.331c.021-.148.047-.336.059-.419A1.767,1.767,0,0,1,82.3,39.2a1.1,1.1,0,0,0,.067-.2.8.8,0,0,1,.027-.15c.018-.074.044-.2.057-.286a.519.519,0,0,1,.038-.151.338.338,0,0,0,.031-.12c.01-.066.034-.188.053-.271.066-.295.1-.455.133-.663a.8.8,0,0,1,.106-.3c.057-.07.053-.077-.021-.034s-.079.038-.015-.04a.667.667,0,0,0,.1-.267,1.919,1.919,0,0,1,.094-.415,2.053,2.053,0,0,0,.04-.27.665.665,0,0,1,.081-.3.575.575,0,0,0,.088-.264,1.266,1.266,0,0,1,.07-.285,1.2,1.2,0,0,0,.066-.279c.018-.125.04-.268.047-.318a1.327,1.327,0,0,1,.078-.241,2.5,2.5,0,0,0,.115-.422c.027-.149.052-.284.056-.3s.04-.128.081-.246a1.81,1.81,0,0,0,.083-.434c0-.12.034-.2.064-.184s.049-.016.041-.078a1.318,1.318,0,0,1,.064-.383,3.588,3.588,0,0,0,.144-.737c0-.058.025-.106.049-.106a1.547,1.547,0,0,0,.149-.572.8.8,0,0,1,.042-.151c.04-.1.172-.636.2-.813.012-.066.034-.2.049-.306a3.9,3.9,0,0,1,.153-.535,1.085,1.085,0,0,0,.093-.4.207.207,0,0,1,.029-.162,1.137,1.137,0,0,0,.089-.288.889.889,0,0,1,.038-.176,1.526,1.526,0,0,0,.092-.361c.02-.1.065-.275.1-.391a6.633,6.633,0,0,0,.191-.858c.005-.058.027-.106.048-.106s.032-.061.026-.135a.347.347,0,0,1,.05-.213.48.48,0,0,0,.057-.256c0-.1.022-.178.054-.178s.054-.034.048-.076a.356.356,0,0,1,.026-.165,1.282,1.282,0,0,0,.061-.241,1.285,1.285,0,0,1,.06-.241,3.2,3.2,0,0,0,.122-.617c0-.058.026-.105.048-.105s.057-.088.078-.2.068-.331.105-.5.069-.335.072-.376a.074.074,0,0,1,.062-.075c.031,0,.042-.038.025-.085a.13.13,0,0,1,.009-.125.164.164,0,0,0,.045-.081,6.8,6.8,0,0,1,.2-.82.555.555,0,0,0,.049-.181,1.481,1.481,0,0,1,.141-.565.332.332,0,0,0,.042-.225c-.018-.047-.008-.086.022-.086.048,0,.072-.1.145-.6a.456.456,0,0,1,.051-.15,3.7,3.7,0,0,0,.211-.806.985.985,0,0,1,.058-.255,1.32,1.32,0,0,0,.109-.459c0-.074.031-.135.06-.135s.038-.038.02-.084a.13.13,0,0,1,.005-.122.255.255,0,0,0,.053-.111c.008-.04.032-.141.052-.224a2.994,2.994,0,0,0,.114-.557c0-.058.025-.106.051-.106s.03-.041.011-.09-.012-.09.017-.09.056-.074.061-.165a1.746,1.746,0,0,1,.1-.413,2.365,2.365,0,0,0,.115-.4.474.474,0,0,1,.059-.194.279.279,0,0,0,.011-.183c-.015-.08,0-.146.027-.146.046,0,.083-.14.225-.873a.475.475,0,0,0,.011-.156c-.007-.02.019-.074.058-.12a.814.814,0,0,0,.11-.3l.062-.331a1.023,1.023,0,0,1,.036-.151.5.5,0,0,0,.025-.09c.006-.033.048-.182.094-.331a3.046,3.046,0,0,0,.093-.363,2.086,2.086,0,0,1,.076-.3,3.383,3.383,0,0,0,.1-.441,1.161,1.161,0,0,1,.076-.3.474.474,0,0,0,.055-.159,2.286,2.286,0,0,1,.075-.288c.035-.108.066-.21.068-.225s.016-.063.03-.1.044-.184.069-.317.055-.275.066-.316.032-.123.046-.181a.362.362,0,0,1,.035-.106,1.209,1.209,0,0,0,.082-.376c.005-.074.033-.135.061-.135s.037-.04.018-.088a.105.105,0,0,1,.025-.125.064.064,0,0,0,.029-.085.37.37,0,0,1,.058-.224,1.2,1.2,0,0,0,.1-.373A.415.415,0,0,1,90,8.419a.064.064,0,0,0,.012-.089.124.124,0,0,1,.022-.131,1.045,1.045,0,0,0,.1-.344c.025-.149.056-.325.069-.392s.038-.215.055-.331.047-.306.067-.422.047-.319.061-.452.03-.288.037-.346.031-.106.054-.106.036-.047.026-.106a.681.681,0,0,1,.034-.256,4.887,4.887,0,0,0-.008-2.17c-.03-.057-.038-.12-.017-.141s.007-.038-.031-.038-.053-.041-.034-.09,0-.09-.036-.09-.054-.027-.034-.06.009-.06-.027-.06-.065-.039-.065-.087a.256.256,0,0,0-.112-.165.735.735,0,0,1-.185-.214.246.246,0,0,0-.166-.135c-.051,0-.078-.024-.06-.053s-.049-.087-.149-.128-.182-.1-.182-.128-.052-.053-.116-.053a.171.171,0,0,1-.152-.094c-.02-.052-.062-.078-.093-.06A.05.05,0,0,1,89,1.653c-.026-.077-.237-.129-.629-.157A2.472,2.472,0,0,1,88,1.452a.382.382,0,0,0-.2.027M145.38,1.6c0,.023-.056.056-.124.074s-.117.055-.109.082a.378.378,0,0,1-.061.186c-.042.074-.061.135-.041.135s0,.056-.032.124a.859.859,0,0,0-.083.256,1.4,1.4,0,0,1-.087.3,1.73,1.73,0,0,0-.1.361,4.132,4.132,0,0,1-.184.768,4.1,4.1,0,0,0-.133.6,1.423,1.423,0,0,1-.091.378.2.2,0,0,0-.021.167c.02.033,0,.059-.038.059s-.059.016-.038.036a.61.61,0,0,1-.044.3.66.66,0,0,0-.048.294c.018.018,0,.073-.045.124s-.063.092-.046.092.007.1-.023.226-.07.321-.088.437a1.754,1.754,0,0,1-.072.3,1.057,1.057,0,0,0-.056.181c-.01.049-.048.212-.084.361s-.074.312-.083.361-.033.145-.054.211a2.88,2.88,0,0,0-.07.331,3.731,3.731,0,0,1-.091.408c-.032.108-.06.21-.063.226a.372.372,0,0,1-.008.044,3.216,3.216,0,0,0-.082.467,1.8,1.8,0,0,1-.055.3,2.644,2.644,0,0,0-.068.271,1.461,1.461,0,0,1-.1.361,1.37,1.37,0,0,0-.034.227,1.168,1.168,0,0,1-.089.348.223.223,0,0,0-.031.174.367.367,0,0,1-.032.224,6,6,0,0,0-.209.924,3,3,0,0,1-.079.331.824.824,0,0,0-.04.286c.009.058-.007.106-.036.106a1.646,1.646,0,0,0-.148.693.235.235,0,0,1-.05.155.585.585,0,0,0-.067.271,1.676,1.676,0,0,1-.094.417.675.675,0,0,0-.048.316c.014.074,0,.135-.033.135s-.044.04-.025.089a.106.106,0,0,1-.026.125c-.034.021-.044.089-.024.152a.26.26,0,0,1-.011.19.489.489,0,0,0-.059.136c-.006.033-.029.155-.05.271s-.068.319-.1.451a6.371,6.371,0,0,0-.169.843c-.039.232-.075.482-.081.557s-.034.135-.062.135-.035.054-.014.12.011.12-.022.12-.061.048-.061.106a2.649,2.649,0,0,1-.126.789.422.422,0,0,0-.036.242c.014.07.005.128-.019.128s-.053.075-.063.166a1.608,1.608,0,0,1-.1.512.293.293,0,0,0-.013.192c.019.048.008.1-.024.105s-.067.156-.077.323a1.364,1.364,0,0,1-.058.366,2.457,2.457,0,0,0-.13.66.788.788,0,0,1-.058.252,2.711,2.711,0,0,0-.1.506c-.035.242-.076.535-.093.65-.031.215-.157.356-.2.226a2.328,2.328,0,0,0-1.448-.891c-.342.013-.388.022-.388.074,0,.027-.041.05-.092.05s-.091.024-.091.053a5,5,0,0,1-.564.612,3.081,3.081,0,0,0-.544.625c.011.036,0,.045-.026.02s-.167.077-.316.226a2.022,2.022,0,0,1-.3.271.674.674,0,0,0-.174.15.528.528,0,0,1-.194.151.468.468,0,0,0-.182.135c-.187.2-.306.286-.381.286a.128.128,0,0,0-.1.086.57.57,0,0,1-.242.184c-.115.053-.209.124-.209.155a.061.061,0,0,1-.064.057c-.063,0-.146.058-.351.245a3.1,3.1,0,0,1-.409.266,2.253,2.253,0,0,0-.336.214,1.428,1.428,0,0,1-.279.166,1.328,1.328,0,0,0-.328.219.26.26,0,0,1-.154.095.359.359,0,0,0-.185.121.366.366,0,0,1-.213.12.362.362,0,0,0-.212.119c-.06.066-.13.107-.156.091s-.063.014-.083.066-.06.079-.089.062-.111.022-.182.088a.54.54,0,0,1-.162.117,7.942,7.942,0,0,0-.855.445,1.791,1.791,0,0,1-.305.146,2.015,2.015,0,0,0-.244.079l-.214.08c-.017.006-.1.04-.183.077-.131.057-.324.132-.427.166-.3.1-.722.15-.744.09a.155.155,0,0,0-.1-.07c-.342-.079-.866-1.314-.558-1.314a.8.8,0,0,0,.094-.376,2.135,2.135,0,0,1,.094-.472.87.87,0,0,0,.071-.241.7.7,0,0,1,.068-.221c.026-.042.033-.076.015-.076s-.006-.069.027-.154a1.951,1.951,0,0,0,.119-.81c-.008-.149-.014-.332-.013-.406s-.016-.135-.038-.135-.045-.068-.052-.151c-.022-.264-.037-.331-.074-.331-.02,0-.04-.074-.045-.164s-.04-.174-.077-.186a.051.051,0,0,1-.033-.077c.019-.03.005-.055-.03-.055a.073.073,0,0,1-.065-.078,1.3,1.3,0,0,0-.182-.361.985.985,0,0,1-.153-.283c.036,0-.047-.1-.53-.617a1.834,1.834,0,0,0-.462-.406c-.047,0-.068-.027-.047-.06s-.021-.06-.092-.06-.115-.023-.1-.051c.033-.053-.55-.37-.682-.37a.071.071,0,0,1-.075-.064c0-.035-.027-.047-.061-.026s-.061.014-.061-.014-.048-.055-.107-.059c-.22-.017-.352-.049-.384-.091a3.014,3.014,0,0,0-1.156.021c0,.023-.055.027-.122.01s-.122,0-.122.03-.055.047-.122.03-.122,0-.122.036-.082.067-.183.067-.183.029-.183.064-.029.046-.064.025a.166.166,0,0,0-.162.042c-.054.044-.108.073-.12.065a.8.8,0,0,0-.242.075,1.311,1.311,0,0,1-.284.091c-.035,0-.047.016-.027.036s-.1.108-.259.2a5.086,5.086,0,0,0-.988.742c-.095.089-.172.149-.172.134a4.341,4.341,0,0,0-.439.4,2.792,2.792,0,0,1-.5.423.672.672,0,0,0-.24.149c-.1.082-.2.136-.223.121s-.063.014-.083.065-.064.077-.1.056-.062-.007-.062.03-.027.051-.061.03-.061-.008-.061.027-.055.064-.122.064-.122.025-.122.056-.089.074-.2.1a.63.63,0,0,0-.229.081,5.687,5.687,0,0,1-.579.309,4.074,4.074,0,0,0-.594.33c-.03.04-.045.04-.046,0s-.03-.02-.065.03c-.056.081-.061.081-.049,0a2.733,2.733,0,0,0-.15-.873.817.817,0,0,1-.078-.19.572.572,0,0,0-.142-.2c-.072-.071-.115-.155-.1-.186a4,4,0,0,0-.98-.963.318.318,0,0,1-.174-.093,4.338,4.338,0,0,0-.845-.422c-.025-.007-.066-.019-.092-.029a.886.886,0,0,0-.107-.028,2.077,2.077,0,0,1-.24-.084.845.845,0,0,0-.3-.063c-.212.016-.279,0-.279-.07,0-.036.039-.052.087-.034a.1.1,0,0,0,.122-.057c.019-.05.063-.073.1-.053s.061.012.061-.019.082-.09.182-.131.17-.094.155-.118.074-.1.2-.17a3.631,3.631,0,0,0,.849-.735c-.026,0-.012-.039.031-.085s.092-.076.109-.066.1-.063.183-.161.31-.343.5-.544a1.69,1.69,0,0,0,.351-.451c0-.047.026-.07.058-.051s.091-.026.132-.1a.865.865,0,0,1,.171-.217c.078-.064.079-.072.005-.041-.05.022-.016-.019.076-.091s.168-.158.168-.191a.644.644,0,0,1,.183-.23.623.623,0,0,0,.183-.235.06.06,0,0,1,.051-.066,4.453,4.453,0,0,0,.67-.834c.056-.078.191-.254.3-.391a1.085,1.085,0,0,0,.2-.322.2.2,0,0,1,.107-.134c.059-.034.08-.062.048-.063s0-.044.076-.1a.3.3,0,0,0,.135-.181c0-.048.025-.087.055-.087s.083-.081.119-.181.089-.181.118-.181.087-.061.126-.135.119-.2.178-.29.166-.247.24-.361a3.282,3.282,0,0,1,.2-.282c.037-.042.051-.076.03-.076s.006-.043.059-.095a.322.322,0,0,0,.1-.184c0-.049.027-.073.061-.052s.061,0,.061-.052a.3.3,0,0,1,.076-.172,2.956,2.956,0,0,0,.389-.619,1.267,1.267,0,0,1,.246-.35c.047-.027.071-.072.054-.1s.011-.066.064-.086.082-.057.066-.082.051-.162.149-.3a1.279,1.279,0,0,0,.178-.315.062.062,0,0,1,.065-.058c.035,0,.048-.027.027-.06s-.012-.06.02-.06.094-.088.138-.2a1.079,1.079,0,0,1,.161-.276c.044-.044.064-.106.044-.136s.017-.13.08-.221a3.254,3.254,0,0,0,.243-.466c.071-.165.17-.38.221-.477a.369.369,0,0,0,.062-.226c-.017-.027,0-.049.033-.049s.06-.02.055-.045a1.428,1.428,0,0,1,.127-.336.7.7,0,0,0,.1-.326c-.02-.019.01-.085.065-.145s.083-.111.06-.111,0-.08.052-.177a.94.94,0,0,0,.093-.365.78.78,0,0,1,.066-.309,3.559,3.559,0,0,0,.138-1.03c0-.124.028-.226.057-.226s.037-.025.018-.055a3.082,3.082,0,0,1-.063-.557,5.345,5.345,0,0,0-.193-1.2c-.016-.05-.021-.094-.011-.1s-.033-.066-.1-.135-.094-.127-.067-.127.008-.047-.044-.106a.754.754,0,0,1-.133-.271c-.022-.091-.067-.165-.1-.165a.06.06,0,0,1-.06-.06,3.707,3.707,0,0,0-1.577-1.345.872.872,0,0,1-.223-.083,2.468,2.468,0,0,0-1.038-.014.609.609,0,0,1-.213.073,1.716,1.716,0,0,0-.334.1.693.693,0,0,1-.231.069c-.026-.005-.063.031-.082.08s-.06.076-.09.057a1.376,1.376,0,0,0-.6.405c0,.027-.056.05-.126.05s-.109.027-.088.06-.005.06-.057.06-.1.025-.1.056-.055.074-.123.095-.107.064-.088.095,0,.056-.045.056a4.864,4.864,0,0,0-.923.9c.006.018-.049.066-.122.107s-.115.074-.092.075-.08.131-.229.288a1.394,1.394,0,0,0-.27.348.307.307,0,0,1-.107.156,1.446,1.446,0,0,0-.2.23c-.051.074-.152.206-.225.292s-.121.177-.105.2-.007.067-.049.094a3.864,3.864,0,0,0-.6.887c.006.03-.034.079-.087.108s-.1.081-.1.115a.3.3,0,0,1-.092.152c-.051.05-.078.113-.061.14s-.014.066-.069.087-.084.054-.064.073-.018.091-.083.16a.43.43,0,0,0-.118.234c0,.06-.032.109-.071.109s-.054.017-.033.038-.015.113-.081.205a.673.673,0,0,0-.12.225.239.239,0,0,1-.091.133c-.05.041-.076.1-.057.128s.006.053-.027.053-.093.1-.134.226a.842.842,0,0,1-.117.256,7.565,7.565,0,0,0-.549,1.084,1.54,1.54,0,0,1-.182.34,1.764,1.764,0,0,0-.22.484c-.021.11-.061.2-.09.2s-.1.149-.15.331-.123.331-.154.331-.057.038-.057.085a2.846,2.846,0,0,1-.313.712.591.591,0,0,0-.053.226c0,.066-.032.121-.071.121s-.054.017-.033.038.006.1-.033.165a.346.346,0,0,0-.056.18.226.226,0,0,1-.071.151,1.151,1.151,0,0,0-.2.429c-.008.03-.038.109-.17.452a1.3,1.3,0,0,0-.071.221.144.144,0,0,1-.042.081.13.13,0,0,0-.008.125c.018.046,0,.085-.038.085s-.056.025-.037.055.014.064-.012.075a1.459,1.459,0,0,0-.225.659c.019.03,0,.054-.037.054s-.055.04-.036.09,0,.09-.034.09-.051.018-.029.04.009.077-.029.122-.052.1-.032.119.005.094-.034.164a.7.7,0,0,0-.078.188,1.566,1.566,0,0,1-.156.406.642.642,0,0,0-.057.256c0,.083-.026.151-.059.151s-.043.042-.023.092a.22.22,0,0,1-.057.2.669.669,0,0,0-.126.284,3.6,3.6,0,0,1-.087.361.564.564,0,0,0-.029.256c.014.041,0,.075-.038.075s-.048.04-.029.09.007.09-.027.09-.055.047-.045.106a1.149,1.149,0,0,1-.09.388.808.808,0,0,0-.079.311c.016.016,0,.082-.036.147a1.39,1.39,0,0,0-.1.376.892.892,0,0,1-.108.35c-.063.077-.06.083.016.039s.078-.036.022.034a1.079,1.079,0,0,0-.11.384,1.667,1.667,0,0,1-.072.347,2.134,2.134,0,0,0-.116.59,1.337,1.337,0,0,1-.033.226.7.7,0,0,0-.05.274,10.041,10.041,0,0,1-1.96,1.964c-.151.117-.328.26-.393.319a.4.4,0,0,1-.2.107.142.142,0,0,0-.117.09.144.144,0,0,1-.12.09c-.047,0-.085.026-.085.057a.859.859,0,0,1-.3.226,1,1,0,0,0-.3.214c0,.025-.041.045-.092.045s-.092.025-.092.055a1.361,1.361,0,0,1-.4.274,1.33,1.33,0,0,0-.4.276c0,.031-.036.057-.08.057a.454.454,0,0,0-.213.123c-.074.068-.134.1-.134.081s-.05,0-.111.057a1.078,1.078,0,0,1-.305.166c-.107.037-.194.091-.194.121s-.042.054-.093.054a.15.15,0,0,0-.128.09c-.019.049-.055.078-.079.063s-.143.039-.265.121a1,1,0,0,1-.285.148.432.432,0,0,0-.191.125.612.612,0,0,1-.255.149.309.309,0,0,0-.178.1c-.027.042-.049.056-.05.03s-.063-.013-.138.028a1.384,1.384,0,0,1-.168.082c-.017,0-.108.039-.2.078a.982.982,0,0,1-.229.07.059.059,0,0,0-.057.06c0,.033-.02.054-.046.047a.4.4,0,0,0-.183.062c-.075.042-.137.057-.137.036s-.034-.012-.076.022a1.933,1.933,0,0,1-.747.138.609.609,0,0,0-.137-.022c-.042,0-.076-.026-.076-.056s-.026-.038-.057-.019-.086-.013-.12-.072-.064-.079-.065-.046c0,.072-.258-.323-.293-.452a2.2,2.2,0,0,1,.027-.911,2.117,2.117,0,0,0,.09-.482.636.636,0,0,1,.062-.3.642.642,0,0,0,.086-.271,1.393,1.393,0,0,1,.066-.283,3.674,3.674,0,0,0-.055-1.942l-.166-.436c-.041-.108-.1-.2-.133-.2s-.042-.027-.021-.06.011-.06-.021-.06-.086-.074-.119-.165a5.01,5.01,0,0,0-1.292-1.371c-.027.017-.063,0-.079-.047a.923.923,0,0,0-.327-.217c-.163-.077-.372-.18-.465-.227s-.168-.073-.168-.056-.089-.005-.2-.049a2.727,2.727,0,0,0-.7-.09,3.868,3.868,0,0,0-1.6.333c-.151.049-.327.1-.392.115a.284.284,0,0,0-.159.093.116.116,0,0,1-.1.059.462.462,0,0,0-.2.1.58.58,0,0,1-.2.108.145.145,0,0,0-.1.067.83.83,0,0,1-.241.167,2.156,2.156,0,0,0-.425.324.8.8,0,0,1-.276.21c-.026-.008-.047.027-.047.079s-.022.08-.049.064-.185.122-.351.307-.387.43-.492.543a2.1,2.1,0,0,0-.273.367,2.334,2.334,0,0,1-.222.332.615.615,0,0,0-.139.256c0,.047-.027.086-.061.086s-.061.041-.061.09-.027.09-.061.09-.061.052-.061.116a.331.331,0,0,1-.088.2.618.618,0,0,0-.129.245c-.022.087-.066.158-.1.158s-.04.029-.018.064,0,.109-.049.165a.906.906,0,0,0-.163.471c0,.021-.022.056-.056.077a.39.39,0,0,0-.092.218.7.7,0,0,1-.042.18,6.429,6.429,0,0,0,.054,2.06c.036.068.049.139.028.16s-.007.038.033.038.071.048.071.106a1.435,1.435,0,0,0,.434.677.736.736,0,0,1,.19.256c-.007.025.021.046.063.046s.141.081.22.18.169.164.2.146.071.007.09.056a.754.754,0,0,0,.467.228.04.04,0,0,1,.046.043c0,.2,1.741.277,1.888.083a.3.3,0,0,1,.156-.064.35.35,0,0,0,.193-.109c.039-.049.087-.089.107-.086.123.013.161,0,.128-.056-.021-.033-.007-.06.03-.06.068,0,.152-.059.387-.271a.507.507,0,0,1,.182-.12,1.605,1.605,0,0,0,.332-.271c.156-.149.262-.231.237-.181s.018.016.1-.075a.5.5,0,0,1,.214-.166c.039,0,.114-.061.167-.135s.118-.135.143-.135a.787.787,0,0,0,.228-.168c.769-.718.775-.723.831-.625a1.011,1.011,0,0,0,.131.173,3.112,3.112,0,0,1,.225.289c.082.116.177.241.212.277s.145.169.246.293a5.8,5.8,0,0,0,.749.738c.083.074.179.117.213.1s.046-.011.025.023c-.033.053.209.212.342.224a.161.161,0,0,1,.092.065,3.211,3.211,0,0,0,.884.4.169.169,0,0,1,.127.037.918.918,0,0,0,.253.1c.1.026.224.063.275.081a5.272,5.272,0,0,0,1.312-.017,1.258,1.258,0,0,1,.213-.068c.05-.009.219-.057.376-.108a.7.7,0,0,1,.32-.055c.02.02.036,0,.036-.035s.055-.07.123-.07a.585.585,0,0,0,.229-.056,1.346,1.346,0,0,1,.366-.128,1.274,1.274,0,0,0,.213-.1.7.7,0,0,1,.243-.092c.025.007.046-.016.046-.051s.024-.049.053-.031.115-.021.191-.085.159-.106.184-.09.08-.012.122-.061a.248.248,0,0,1,.152-.09.248.248,0,0,0,.152-.09c.041-.049.1-.075.13-.057s.054,0,.054-.034.027-.051.061-.03.061.008.061-.027a.068.068,0,0,1,.071-.064.831.831,0,0,0,.275-.154c.112-.085.2-.137.2-.116s.089-.026.2-.1a3.674,3.674,0,0,1,.333-.21,5.1,5.1,0,0,0,.567-.323,4.618,4.618,0,0,1,.7-.473.44.44,0,0,0,.168-.1.391.391,0,0,1,.154-.091c.026,0,.086-.053.133-.117s.108-.1.135-.087.05,0,.05-.033.043-.064.1-.064.078-.027.057-.06-.014-.06.015-.06a.446.446,0,0,0,.177-.114c.121-.111.584-.369.495-.276a.09.09,0,0,0,.007.113,1.343,1.343,0,0,1,.126.292c.04.124.1.226.126.226s.089.072.133.16a.593.593,0,0,0,.2.226.785.785,0,0,1,.153.1,1.111,1.111,0,0,0,.3.142c.208.042.18.131-.128.425a10.055,10.055,0,0,0-1.2,1.331,6.254,6.254,0,0,0-.361.7.185.185,0,0,1-.021.06,3.213,3.213,0,0,0-.085,1.49c.023.083.044.168.047.19a.185.185,0,0,0,.051.086.256.256,0,0,1,.046.155c0,.061.029.111.065.111s.049.025.03.055c-.041.065.609.736.663.683.02-.02.036-.006.036.03s.1.1.213.135.214.092.214.12.048.043.107.034a.408.408,0,0,1,.232.065,3.513,3.513,0,0,0,1.737-.084,2.242,2.242,0,0,1,.437-.158,2.512,2.512,0,0,0,.788-.416.132.132,0,0,1,.092-.053,7.647,7.647,0,0,0,1.61-1.527c0-.052.027-.078.061-.058s.061.015.061-.012a.992.992,0,0,1,.183-.259,1.363,1.363,0,0,0,.219-.322.722.722,0,0,1,.154-.228c.065-.064.1-.14.086-.168s.009-.085.059-.125a.24.24,0,0,0,.091-.144.333.333,0,0,1,.122-.173.352.352,0,0,0,.122-.224c0-.066.026-.121.057-.121.052,0,.13-.165.163-.345a.427.427,0,0,1,.11-.17.322.322,0,0,0,.1-.152.265.265,0,0,1,.091-.237.717.717,0,0,0,.124-.256c.023-.091.068-.166.1-.166s.043-.024.025-.053.007-.087.057-.128a.278.278,0,0,0,.091-.188c0-.062.025-.113.055-.113s.071-.068.093-.151.067-.15.1-.15.049-.024.03-.053.09-.117.24-.2a.759.759,0,0,0,.273-.192c0-.027.026-.033.057-.014s.085-.013.118-.072.076-.1.094-.094a1.275,1.275,0,0,0,.314-.105,2.083,2.083,0,0,1,.327-.119,3.236,3.236,0,0,1,.086.762,2.316,2.316,0,0,0,.138.91c.054.082.071.132.037.111s0,.091.08.249a4.7,4.7,0,0,0,1.335,1.364,3.952,3.952,0,0,1,.434.178,2.839,2.839,0,0,0,1.678.1.178.178,0,0,1,.076,0c.025,0,.046-.02.046-.053s.052-.06.115-.06a1.213,1.213,0,0,0,.678-.384,1.03,1.03,0,0,1,.3-.218.131.131,0,0,0,.1-.088,1.317,1.317,0,0,1,.349-.295,4.738,4.738,0,0,0,.486-.363.664.664,0,0,1,.229-.157c.032,0,.058-.041.058-.09s.027-.09.06-.09c.074,0,.223-.119.662-.529l.34-.318.081.152c.044.083.107.152.14.152s.059.039.059.087a.3.3,0,0,0,.136.181c.074.051.116.094.092.094s.049.122.231.323c.034.038.123.147.2.242s.136.159.136.142a2.056,2.056,0,0,1,.344.292,1.231,1.231,0,0,0,.39.295c.026-.016.064.016.085.07s.055.083.074.064.092.016.16.079.148.1.177.083.052-.006.052.026.1.1.229.157.3.139.381.186a.678.678,0,0,0,.255.087.186.186,0,0,1,.141.061.375.375,0,0,0,.244.06.376.376,0,0,1,.244.06,3.983,3.983,0,0,0,1.327-.051c.126-.031.229-.041.229-.021s.033,0,.073-.036a.35.35,0,0,1,.214-.072c.077,0,.14-.03.14-.067s.04-.052.087-.034.1.007.108-.026.088-.067.172-.076a1.36,1.36,0,0,0,.3-.081c.084-.035.276-.106.427-.158a4.738,4.738,0,0,0,.952-.468c.046-.038.086-.046.087-.017s.043,0,.094-.068.1-.116.119-.111c.063.023.273-.059.273-.107a.042.042,0,0,1,.046-.046c.128.02.2-.014.162-.077-.026-.041-.017-.053.022-.03s.109,0,.162-.055.1-.079.1-.06c0,.049.316-.154.416-.267.071-.079.075-.08.034,0-.026.05.087-.017.252-.15s.278-.206.252-.165c-.049.078.479-.254.622-.391a.27.27,0,0,1,.144-.077.941.941,0,0,0,.286-.183l.312-.256a.206.206,0,0,1,.137-.058c.026.008.047-.01.047-.041s.05-.072.111-.091a1.774,1.774,0,0,0,.392-.305,2.355,2.355,0,0,1,.31-.271,3.575,3.575,0,0,0,.615-.527.726.726,0,0,1,.253-.2,6.91,6.91,0,0,0,1.186-1.236c0-.049.027-.089.061-.089s.061.095.061.211-.026.211-.057.211-.057.048-.057.106a3.448,3.448,0,0,1-.089.677,6.575,6.575,0,0,0-.131.873,1.247,1.247,0,0,1-.054.271,1.94,1.94,0,0,0-.065.361c-.015.149-.045.379-.067.512s-.044.336-.049.452a.826.826,0,0,1-.048.271.31.31,0,0,0-.019.177.314.314,0,0,1-.02.179.647.647,0,0,0-.054.214c-.04.4-.085.771-.112.935a9.277,9.277,0,0,0-.112,1.219.924.924,0,0,1-.048.376,8.1,8.1,0,0,0-.037,1.144,8.141,8.141,0,0,0,.044,1.144c.022,0,.043.034.045.075a1.545,1.545,0,0,0,.112.533.435.435,0,0,1,.079.228c.011.075.373.452.375.389,0-.029.021-.025.046.009a.753.753,0,0,0,.406.211.289.289,0,0,1,.169.08.374.374,0,0,0,.2.089,9.067,9.067,0,0,0,1.326-.043,4.272,4.272,0,0,0-.005-1.271,10.785,10.785,0,0,1,.012-2.285c.056-.07.051-.077-.022-.034s-.078.036-.021-.034a2.027,2.027,0,0,0,.108-.618,7.2,7.2,0,0,1,.092-.783,3,3,0,0,0,.062-.462,2.049,2.049,0,0,1,.064-.512.406.406,0,0,0,.028-.12c.01-.066.048-.3.083-.512a10.265,10.265,0,0,0,.154-1.069c0-.075.027-.135.057-.135s.048-.075.042-.166a1.013,1.013,0,0,1,0-.226,1.888,1.888,0,0,0,.03-.211,1.289,1.289,0,0,1,.026-.181,2.987,2.987,0,0,0,.092-.452c.035-.264.1-.7.127-.843.012-.066.051-.307.086-.534a2.914,2.914,0,0,1,.1-.467.933.933,0,0,0,.037-.294c0-.132.027-.24.055-.24s.052-.088.053-.2a1.293,1.293,0,0,1,.09-.542.289.289,0,0,0,.015-.192c-.019-.047-.011-.1.017-.106a.775.775,0,0,0,.085-.35,3.258,3.258,0,0,1,.132-.721,5.407,5.407,0,0,0,.131-.784,1.119,1.119,0,0,1,.082-.331.347.347,0,0,0,.034-.2c-.007-.074.006-.135.029-.135s.043-.034.046-.075c.007-.094.059-.388.1-.587.054-.238.108-.5.122-.6.007-.05.05-.253.1-.452a2.342,2.342,0,0,0,.07-.409.3.3,0,0,1,.044-.151,3.37,3.37,0,0,0,.146-.81c0-.058.025-.106.044-.106s.037-.047.04-.106a3.593,3.593,0,0,1,.15-.72,1.631,1.631,0,0,0,.068-.376c0-.1.023-.183.044-.183.041,0,.074-.164.087-.437,0-.091.025-.165.047-.165a1.919,1.919,0,0,0,.133-.677c0-.058.016-.106.04-.106s.046-.034.051-.075.016-.156.026-.256a.764.764,0,0,1,.069-.26c.028-.043.035-.095.016-.113s-.009-.081.022-.138a1.009,1.009,0,0,0,.071-.323c.008-.121.037-.219.065-.219s.037-.068.022-.151-.008-.15.016-.15c.042,0,.052-.05.075-.392.006-.083.027-.15.049-.15s.041-.061.046-.135a1.682,1.682,0,0,1,.049-.286,3.52,3.52,0,0,0,.07-.361,2.339,2.339,0,0,1,.069-.331,1.412,1.412,0,0,0,.051-.211,3.134,3.134,0,0,1,.153-.728c.03-.055.039-.114.02-.132s-.007-.083.026-.143a1.348,1.348,0,0,0,.1-.322c.02-.116.066-.346.1-.512s.074-.356.084-.422a1.116,1.116,0,0,1,.057-.211,1.3,1.3,0,0,0,.054-.3.532.532,0,0,1,.056-.241.659.659,0,0,0,.059-.271.61.61,0,0,1,.063-.272.9.9,0,0,0,.063-.346c.011-.173.038-.315.061-.315s.044-.047.046-.105a2.482,2.482,0,0,1,.126-.708.931.931,0,0,0,.081-.3c.019-.133.063-.369.1-.526a2.043,2.043,0,0,0,.057-.331.173.173,0,0,1,0-.076,1.179,1.179,0,0,0,.032-.121c.011-.049.036-.158.055-.241s.064-.286.1-.452.078-.369.1-.452a2.273,2.273,0,0,0,.02-1.072c-.081-.158-.544-.646-.544-.573,0,.02-.063-.028-.141-.108a.669.669,0,0,0-.228-.164.241.241,0,0,1-.132-.09.154.154,0,0,0-.092-.073,1.313,1.313,0,0,1-.257-.112c-.206-.108-.676-.172-.676-.091M120.9,4.99a.129.129,0,0,0,0,.12,3.847,3.847,0,0,1,.008,1.06c-.022,0-.038.061-.036.135a2.323,2.323,0,0,1-.154.707,4.187,4.187,0,0,0-.131.492.173.173,0,0,1-.046.081.13.13,0,0,0-.009.125c.018.047,0,.085-.038.085s-.054.027-.033.06.013.06-.017.06-.084.088-.12.2a4.6,4.6,0,0,1-.429,1.024c-.051.058-.074.106-.051.106s-.041.156-.143.346a1.953,1.953,0,0,0-.185.422c0,.042-.022.075-.05.075a.77.77,0,0,0-.18.3,1.2,1.2,0,0,1-.194.335.2.2,0,0,0-.064.153.2.2,0,0,1-.082.162c-.12.07-.292.352-.244.4.022.022.013.04-.022.04a2.625,2.625,0,0,0-.507.765.478.478,0,0,1-.124.187c-.068.073-.107.132-.085.132s-.047.1-.152.226a2.922,2.922,0,0,0-.443.6,4.148,4.148,0,0,1-.612.789c-.026.011-.032.045-.013.076s.005.055-.03.055-.065.04-.065.09-.027.09-.061.09-.061.039-.061.087a.169.169,0,0,1-.07.13c-.047.029-.055.014-.024-.042s-.024,0-.111.1a.831.831,0,0,0-.159.23,1.138,1.138,0,0,1-.215.271.877.877,0,0,0-.213.3.07.07,0,0,1-.061.076c-.034,0-.061.042-.061.094s-.027.077-.061.056-.061-.012-.061.02a1.057,1.057,0,0,1-.212.29,1.429,1.429,0,0,0-.213.27,6.368,6.368,0,0,1-.706.782,1.068,1.068,0,0,0-.21.264.544.544,0,0,1-.153.187.619.619,0,0,0-.152.177.327.327,0,0,1-.092.128c-.117.116-.116.063,0-.167a.444.444,0,0,0,.064-.264.142.142,0,0,1,.049-.146.325.325,0,0,0,.08-.222.265.265,0,0,1,.076-.2.082.082,0,0,0,.037-.109.071.071,0,0,1,.021-.1,2.422,2.422,0,0,0,.261-.8c0-.042.031-.075.061-.075s.039-.025.019-.056a.069.069,0,0,1,.027-.094.167.167,0,0,0,.062-.131,2.437,2.437,0,0,1,.254-.655.951.951,0,0,0,.072-.211.513.513,0,0,1,.062-.164.845.845,0,0,0,.077-.234,1.386,1.386,0,0,1,.118-.327.78.78,0,0,0,.089-.248.821.821,0,0,1,.094-.255,1.37,1.37,0,0,0,.117-.3c.013-.069.026-.132.029-.14a.035.035,0,0,0-.011-.03.7.7,0,0,1,.122-.205.732.732,0,0,0,.137-.274.26.26,0,0,1,.073-.156c.04-.04.051-.072.023-.072s-.018-.038.02-.084a.581.581,0,0,0,.1-.221.311.311,0,0,1,.092-.177.242.242,0,0,0,.075-.17c.006-.072.033-.13.062-.13s.034-.027.014-.06-.009-.06.027-.06.065-.051.065-.113a.276.276,0,0,1,.089-.186c.049-.04.086-.091.081-.113a2.061,2.061,0,0,1,.329-.672c.027,0,.05-.042.05-.094a.82.82,0,0,1,.168-.311.851.851,0,0,0,.152-.237,3.207,3.207,0,0,1,.411-.771.2.2,0,0,0,.062-.155c0-.064.023-.117.05-.117.066,0,.339-.481.275-.484-.027,0,0-.029.057-.063s.107-.088.107-.121a.457.457,0,0,1,.122-.189.437.437,0,0,0,.122-.218.327.327,0,0,1,.093-.184,3.018,3.018,0,0,0,.48-.668c-.023,0,.016-.05.087-.111s.112-.129.091-.151.006-.039.062-.039.095-.022.086-.049a5.271,5.271,0,0,1,1.152-1.064.989.989,0,0,0,.285-.2c.027-.042.073-.063.1-.045a.068.068,0,0,0,.091-.029c.057-.091.11-.074.072.023m-80.31,8.054a.694.694,0,0,0-.294.243c-.019.06-.061.109-.092.109s-.05.02-.042.045-.033.1-.091.165l-.28.315a1.3,1.3,0,0,1-.4.287.609.609,0,0,0-.223.125c0,.018.034.016.076-.005s.023,0-.042.057a.5.5,0,0,1-.153.095c-.182,0-.294.98-.123,1.086.049.031.068.056.041.057-.063,0,.151.362.215.362.026,0,.048.036.048.08,0,.1.255.341.358.341.042,0,.059.027.038.061s.012.079.072.1a.886.886,0,0,1,.229.15.4.4,0,0,0,.193.108.106.106,0,0,1,.1.064.2.2,0,0,0,.142.086.454.454,0,0,1,.121.031,2.723,2.723,0,0,0,1.037.049c.184-.039.458-.182.458-.24,0-.028.033-.051.074-.051a2.719,2.719,0,0,0,.756-.794c.2-.387.222-1.429.03-1.553a.989.989,0,0,1-.157-.24,2.723,2.723,0,0,0-.733-.785.646.646,0,0,1-.229-.153c-.092-.084-.167-.135-.167-.113s-.044,0-.1-.04A.493.493,0,0,0,41.281,13l-.253-.049a.673.673,0,0,0-.442.1m55.649,10.8.1.21-.2.194a.837.837,0,0,0-.192.226c.005.018-.016.026-.046.017s-.055.026-.055.076-.028.09-.062.09-.107.094-.163.208-.124.194-.152.177-.068.012-.089.065a4.451,4.451,0,0,1-.7.815,1.561,1.561,0,0,0-.266.311c.011.011-.019.055-.066.1s-.085.064-.085.047a1.923,1.923,0,0,0-.33.284c-.708.676-1.122.947-1.445.947-.1,0-.116-.017-.064-.08a.756.756,0,0,0,.1-.3.907.907,0,0,1,.154-.379.57.57,0,0,0,.124-.232.479.479,0,0,1,.151-.218.515.515,0,0,0,.153-.2.628.628,0,0,1,.154-.223.689.689,0,0,0,.152-.208.636.636,0,0,1,.155-.2c.085-.084.284-.285.442-.447a7.7,7.7,0,0,1,.715-.617c.235-.178.46-.35.5-.383a.271.271,0,0,1,.106-.06.757.757,0,0,0,.186-.132.726.726,0,0,1,.29-.152c.075-.011.146-.047.157-.079.043-.125.184-.049.28.152m28.978-.018c.083.195-.094.632-.224.552-.026-.016-.047,0-.047.026a.706.706,0,0,1-.156.229c-.086.1-.216.245-.29.332s-.285.327-.469.535a1.76,1.76,0,0,0-.32.43c.008.029-.026.052-.076.052a.091.091,0,0,0-.092.09.092.092,0,0,1-.093.09c-.051,0-.119.068-.151.151s-.088.151-.124.151a1.435,1.435,0,0,0-.363.3,1.416,1.416,0,0,1-.366.3c-.038,0-.052.027-.031.06s0,.06-.05.06a.25.25,0,0,0-.161.087,2.4,2.4,0,0,1-.684.353c-.112.037-.111.007.035-.606.026-.108.072-.2.1-.2.052,0,.19-.259.2-.381a.329.329,0,0,1,.124-.135c.065-.047.093-.086.061-.087s-.01-.03.049-.063a.2.2,0,0,0,.107-.137.907.907,0,0,1,.213-.306,1.618,1.618,0,0,0,.214-.259,3.42,3.42,0,0,1,.366-.373,4.357,4.357,0,0,1,.366-.324,2.957,2.957,0,0,0,.5-.427c.1-.1.173-.152.173-.124s.043,0,.1-.066.078-.076.057-.026,0,.038.056-.027.1-.1.1-.071.043,0,.1-.049a.322.322,0,0,1,.176-.095.25.25,0,0,0,.155-.09c.042-.049.1-.075.13-.057s.054,0,.054-.031c0-.143.194-.051.271.128m-10.821.426c0,.041.019.156.036.256a3.1,3.1,0,0,1-.061,1.28.142.142,0,0,0-.01.135c.021.033.009.06-.027.06a.066.066,0,0,0-.065.067,1.673,1.673,0,0,1-.595.533.073.073,0,0,0-.076.063c0,.033-.041.06-.092.06s-.092.029-.092.064-.027.047-.061.026-.061-.007-.061.03-.026.052-.057.032-.086.013-.12.072-.064.083-.065.054-.047-.016-.1.03-.1.077-.107.069c-.017-.039-.28.065-.28.111,0,.029-.021.048-.046.04a1.858,1.858,0,0,0-.564.256.526.526,0,0,1-.388.076c-.022-.022.02-.1.093-.18s.11-.14.082-.14,0-.061.074-.135a.855.855,0,0,0,.167-.271c.023-.074.067-.135.1-.135s.057-.04.057-.09.029-.09.065-.09.048-.027.027-.06-.009-.06.027-.06.065-.039.065-.087a.207.207,0,0,1,.107-.148c.059-.034.081-.062.049-.063s0-.057.076-.125a.4.4,0,0,0,.134-.211c0-.048.028-.088.063-.088s.081-.047.1-.106a.581.581,0,0,1,.105-.17c.035-.036.147-.17.247-.3.527-.672,1.178-1.139,1.194-.857m-1.305,5.329c-.082.4-.128.529-.231.639-.061.064-.093.147-.072.183s.019.049-.006.027-.172.094-.329.256a1.7,1.7,0,0,1-.332.295.454.454,0,0,0-.169.12.407.407,0,0,1-.217.12c-.052,0-.081.023-.063.051s-.077.083-.21.123-.242.095-.242.123-.064.067-.142.086a1.6,1.6,0,0,0-.373.19l-.231.155.128-.161a.6.6,0,0,0,.128-.229c0-.037.055-.1.122-.143a.244.244,0,0,0,.122-.154,1.559,1.559,0,0,1,.374-.406c.206-.18.408-.359.45-.4a2.917,2.917,0,0,1,.282-.211,6.054,6.054,0,0,0,.773-.661c.213-.208.279-.21.236,0M20.361,31.728a.808.808,0,0,1,.231.343c.021.1.067.174.1.174s.048.038.03.084a.132.132,0,0,0,.009.126.2.2,0,0,1,.049.1.332.332,0,0,0,.023.085.564.564,0,0,1,.03.09.278.278,0,0,0,.028.075A1.166,1.166,0,0,1,20.9,33a.7.7,0,0,0,.079.241.264.264,0,0,1,.03.178.311.311,0,0,0,.019.178.547.547,0,0,1,.052.184c.008.068.03.259.051.425s.034.586.03.934c-.01.877-.019,1.024-.067,1.024-.023,0-.042.047-.041.106a4.986,4.986,0,0,1-.141.967c-.034.11-.067.232-.074.271a.506.506,0,0,1-.064.156c-.038.06-.031.071.023.038s.058-.014,0,.1a.651.651,0,0,0-.082.239.365.365,0,0,1-.081.189.217.217,0,0,0-.063.145.37.37,0,0,1-.061.187c-.042.074-.061.135-.042.135s-.008.063-.059.14-.075.159-.052.181.009.04-.03.04-.071.049-.071.108a.281.281,0,0,1-.053.165,9.975,9.975,0,0,0-.572.976c-.1.174-.2.316-.237.316s-.046.022-.029.049-.064.154-.179.282a1.5,1.5,0,0,0-.211.267,2.514,2.514,0,0,1-.3.345c-.165.171-.281.329-.259.351s.01.032-.027.021a2.257,2.257,0,0,0-.543.462c-.261.265-.452.441-.426.391s-.007-.036-.075.03a1.188,1.188,0,0,1-.448.331c-.035,0-.047.027-.026.06s-.005.06-.057.06a.407.407,0,0,0-.217.12.452.452,0,0,1-.168.12.349.349,0,0,0-.142.075,1.65,1.65,0,0,1-.437.265c-.059.02-.107.057-.107.083s-.082.076-.183.11-.183.092-.183.126a.073.073,0,0,1-.077.065,1.373,1.373,0,0,0-.32.119,1.4,1.4,0,0,1-.314.118.145.145,0,0,0-.106.1c-.02.052-.061.079-.092.06a1.061,1.061,0,0,0-.412.127,3.347,3.347,0,0,1-.478.182.4.4,0,0,0-.18.08.4.4,0,0,1-.23.059c-.094,0-.171.029-.171.064s-.026.048-.057.029a.069.069,0,0,0-.094.024.1.1,0,0,1-.122.026.338.338,0,0,0-.227.046.811.811,0,0,1-.249.087.971.971,0,0,0-.153.024.518.518,0,0,1-.152,0c-.059-.006-.107.011-.107.038s-.089.055-.2.063a2.283,2.283,0,0,0-.625.084,14,14,0,0,1-1.952-.037,3.064,3.064,0,0,0-.351-.039c-.059,0-.107-.028-.107-.063s-.055-.049-.122-.032-.138.006-.157-.025a.114.114,0,0,0-.107-.045,1.4,1.4,0,0,1-.5-.121.424.424,0,0,0-.092-.042c-.017,0-.113-.042-.213-.085a1.986,1.986,0,0,0-.258-.1.458.458,0,0,1-.172-.111.329.329,0,0,0-.184-.1c-.048,0-.087-.02-.087-.046s-.089-.085-.2-.132a1.576,1.576,0,0,1-.4-.3c-.113-.118-.237-.2-.275-.194s-.05,0-.026-.021-.011-.1-.077-.167a.423.423,0,0,1-.118-.2c0-.043-.023-.079-.051-.079s-.054-.034-.058-.076-.048-.216-.1-.388a2,2,0,0,1,.056-1.187c.05-.119.078-.216.061-.216s.02-.088.081-.2a2.836,2.836,0,0,0,.187-.421c.042-.124.1-.226.127-.226s.095-.085.147-.188a10.21,10.21,0,0,1,1.986-2.038c.074-.039.12-.086.1-.1s.131-.14.33-.271a1.358,1.358,0,0,0,.363-.294c0-.03.041-.055.092-.055s.092-.029.092-.064.028-.047.061-.026.078,0,.1-.054a.769.769,0,0,1,.3-.22,1.362,1.362,0,0,0,.377-.259.476.476,0,0,1,.188-.147c.122-.025.376-.2.376-.262,0-.029.041-.053.092-.053s.092-.027.092-.06.041-.06.092-.06.092-.027.092-.06a.059.059,0,0,1,.058-.06,3.6,3.6,0,0,0,.72-.46.6.6,0,0,1,.2-.112c.067-.021.122-.064.122-.094a.063.063,0,0,1,.067-.056,1.305,1.305,0,0,0,.339-.181,1.4,1.4,0,0,1,.329-.181.059.059,0,0,0,.058-.06.062.062,0,0,1,.064-.06.447.447,0,0,0,.192-.119c.071-.065.152-.1.181-.086s.069-.01.089-.062.061-.079.091-.061.055,0,.055-.03.02-.059.046-.053a.708.708,0,0,0,.381-.191.689.689,0,0,1,.26-.154,1.412,1.412,0,0,0,.29-.153,1.107,1.107,0,0,1,.26-.134c.126-.052.229-.122.229-.156s.041-.046.092-.027.092,0,.092-.035.027-.053.061-.033.061.009.061-.026.069-.079.153-.1.152-.062.152-.091.039-.053.087-.053a.326.326,0,0,0,.183-.095c.053-.052.1-.077.1-.056s.079-.017.175-.084.192-.105.214-.084.039.007.039-.032a.078.078,0,0,1,.083-.07.585.585,0,0,0,.244-.125c.089-.069.161-.1.162-.076s.024.014.052-.03a.231.231,0,0,1,.136-.093.836.836,0,0,0,.238-.113,2.663,2.663,0,0,1,.366-.188,1.979,1.979,0,0,0,.381-.218c.092-.072.168-.116.168-.1s.1-.034.222-.116a.914.914,0,0,1,.3-.148.076.076,0,0,0,.083-.064c0-.035.027-.047.061-.026s.061,0,.061-.037.015-.059.034-.04a1.029,1.029,0,0,0,.381-.174,2.362,2.362,0,0,1,.515-.242c.092-.019.168-.056.168-.083,0-.1.29-.011.473.15m119.772,7.1a2.351,2.351,0,0,0-.573.453c-.037.044-.115.132-.174.2s-.086.117-.061.118-.008.042-.073.09-.1.089-.074.089-.024.073-.107.162-.137.185-.119.215-.007.1-.056.155a2.572,2.572,0,0,0-.321.643,1.8,1.8,0,0,0,.29,1.8.625.625,0,0,1,.17.258.629.629,0,0,0,.185.259c.169.164.254.205.379.186a.039.039,0,0,1,.046.039c0,.051.2.142.61.281.3.1.854.127.854.039,0-.03.08-.073.178-.094.184-.04.493-.266.493-.36a.4.4,0,0,1,.105-.168c.118-.129.178-.949.07-.949-.033,0-.046-.022-.029-.049a.328.328,0,0,0-.055-.212,1.6,1.6,0,0,1-.09-.191c-.018-.115-.084-.2-.13-.176-.03.018-.055-.009-.055-.06s-.023-.094-.051-.094c-.06,0-.075-.154-.035-.349.015-.076.055-.122.087-.1s.061,0,.064-.043c.01-.172.434-.438.75-.47s.6-.294.435-.409a.233.233,0,0,1-.078-.123,1.558,1.558,0,0,0-.539-.553.172.172,0,0,1-.128-.081,2.43,2.43,0,0,0-.934-.43c-.033.02-.06.013-.06-.017s-.034-.055-.076-.056-.227-.018-.412-.038a1.055,1.055,0,0,0-.488.038" transform="translate(-2.503 7.244)"/>
  <path id="path1" class="cls-2" d="M27.073.031c0,.017.066.048.146.068s.146.008.146-.03S27.3,0,27.219,0s-.146.014-.146.031M28,.26A.206.206,0,0,0,28.189.3c.117-.025.108-.036-.054-.073C28.02.2,27.966.215,28,.26M22.566,4.247c-.1.085.131.071.28-.017.1-.059.093-.068-.047-.057a.484.484,0,0,0-.233.073m-9.59,2.032a.4.4,0,0,0-.13.215c0,.062.014.064.044.006a1.117,1.117,0,0,1,.187-.22c.079-.074.119-.133.087-.131a.534.534,0,0,0-.188.129m103.579.261c-.021.048-.062.068-.089.044s-.067-.006-.087.039,0,.08.04.079c.108,0,.255-.14.212-.2-.02-.027-.054-.011-.075.037m-.7.563c-.1.087-.149.158-.117.158.058,0,.375-.312.32-.315a.937.937,0,0,0-.2.157m-83.518.239c0,.154.012.216.027.14a.89.89,0,0,0,0-.279c-.015-.077-.027-.014-.027.139m86.908.818c.052.464.08.476.08.033,0-.2-.027-.373-.059-.373s-.044.13-.021.34M16.461,8.021c-.08.063-.12.114-.087.114a.558.558,0,0,0,.2-.114c.08-.063.12-.114.087-.114a.555.555,0,0,0-.2.114m71,.057a1.866,1.866,0,0,0-.031.342c0,.088.029.02.058-.151.057-.332.033-.5-.028-.191m-71.79.669-.175.205.189-.171a.9.9,0,0,0,.19-.206c0-.059-.025-.039-.2.172m16.59.073a.892.892,0,0,0,.023.279.915.915,0,0,0,.047-.279c.013-.154,0-.28-.023-.28s-.047.126-.047.28M32,10.5l-.056.243c-.016.068-.006.1.022.081a.542.542,0,0,0,.079-.243c.03-.218,0-.274-.045-.081m81.333,1.257a1.319,1.319,0,0,0-.169.459,1.137,1.137,0,0,0,.146-.279c.12-.279.132-.368.023-.18m-3.678.738c-.037.11-.044.2-.016.2.049,0,.136-.328.1-.376-.009-.013-.047.066-.084.176M77.7,13.18a.341.341,0,0,0-.046.2c.016.022.059-.039.1-.134.088-.226.047-.282-.05-.068m-43.276.009c0,.011-.026.143-.057.294s-.035.24-.007.2c.059-.089.138-.513.1-.513-.017,0-.03.009-.03.021M10.987,14.736c-.1.292-.055.307.064.024.054-.129.077-.235.052-.235s-.078.095-.116.21m22.955.391c-.018.087-.05.229-.072.317s0,.059.055-.065A.737.737,0,0,0,34,15.062c-.013-.051-.037-.022-.056.065m46.142.137c0,.077-.031.14-.063.14s-.058.044-.058.1.033.052.094-.032a.324.324,0,0,0,.063-.237c-.021-.074-.033-.064-.036.032m6.172.04c0,.033-.016.147-.03.255s-.011.174.007.149a.979.979,0,0,0,.058-.464c-.016,0-.032.027-.035.06m54.154.063a1.029,1.029,0,0,0-.031.263c0,.073.028.027.056-.1.055-.252.035-.376-.025-.16m-106.777.755a.409.409,0,0,0-.01.211c.016.022.047-.037.069-.132a.413.413,0,0,0,.01-.211c-.016-.022-.047.037-.069.132m49.575-.107a.49.49,0,0,0-.035.22c0,.153.008.151.059-.025.057-.2.045-.29-.024-.195m33.618,1.024a.512.512,0,0,0-.045.2.761.761,0,0,0,.117-.2c.052-.11.073-.2.045-.2s-.08.09-.117.2m-52.433.177a.425.425,0,0,1,.2.109.179.179,0,0,0,.113.073c.032,0,.007-.053-.055-.117a.386.386,0,0,0-.259-.109l-.146.009.146.035m-23.426.342a.561.561,0,0,0,.2.158c.064,0-.226-.313-.294-.316-.028,0,.015.07.1.158m72,.618c-.143.287-.152.321-.036.14.154-.241.287-.519.247-.519a2.625,2.625,0,0,0-.211.379M62.117,19.489l-.131.264.16-.225c.088-.124.147-.242.131-.264s-.087.08-.16.225m-9.987.363c-.045.111-.109.539-.073.49a1.764,1.764,0,0,0,.119-.55c-.012,0-.033.027-.046.06m30.2.944c-.048.17-.045.313.005.244s.089-.37.053-.37c-.012,0-.038.057-.058.126m-21.307.676c-.045.1-.049.156-.01.156s.076-.056.1-.124c.052-.187,0-.209-.085-.033m-50.417.467a1.052,1.052,0,0,0,.11.247c.047,0-.049-.323-.12-.4s-.058-.03.01.157m128.671.657c-.034.181-.04.3-.013.259a1.473,1.473,0,0,0,.1-.589,1.154,1.154,0,0,0-.088.329M72.586,23.624c-.058.088-.076.16-.04.16s.093-.072.128-.16.052-.159.04-.159a.653.653,0,0,0-.128.159m37.151-.033c-.055.195-.043.215.052.084s.112-.211.035-.211c-.029,0-.068.057-.087.126M12.023,25.1c.1.26.179.4.179.319a.876.876,0,0,0-.12-.279q-.119-.2-.059-.04m46.985.327a.5.5,0,0,0-.083.236c.014.018.083-.074.153-.2s.108-.238.083-.236-.094.093-.153.2m12.528.351c-.058.088-.092.179-.075.2s.074-.049.127-.16c.116-.243.093-.261-.052-.042m3.358-.06c0,.077-.031.14-.063.14s-.058.044-.058.1.033.052.094-.032a.323.323,0,0,0,.063-.237c-.022-.074-.033-.063-.036.032m30.961.294c-.074.189-.077.269-.009.211.051-.043.132-.365.091-.365a.421.421,0,0,0-.082.154m-93.127.3a.939.939,0,0,0,.19.313l.189.234-.175-.279c-.1-.154-.181-.294-.189-.313s-.015,0-.015.045m27.508.578a.508.508,0,0,0,.022.26c.034.074.05.025.051-.151,0-.29-.029-.336-.073-.109m40.969.069c-.02.077-.047.167-.06.2s0,.06.031.06.068-.09.083-.2c.032-.23,0-.266-.054-.06m11.309.714a.361.361,0,0,0,.2,0c.056-.02.01-.037-.1-.037s-.158.017-.1.037m18.033.344c-.1.087-.145.159-.108.159.064,0,.373-.311.313-.316a.926.926,0,0,0-.2.157m-26.637.111a.328.328,0,0,0-.013.193c.053.073.1-.046.078-.2s-.023-.138-.065.005m-35.8,1.462a.473.473,0,0,0,.233,0c.056-.02,0-.035-.132-.034s-.174.017-.1.036m.841.622a.973.973,0,0,0,.147.2.611.611,0,0,0-.076-.2c-.052-.11-.119-.2-.147-.2s.006.09.076.2m84.055.092c-.091.147-.144.265-.117.262a1.275,1.275,0,0,0,.3-.506c-.012-.013-.1.1-.188.243m-85.848.047-.171.26.2-.239c.112-.132.215-.249.228-.26s0-.02-.033-.02-.134.117-.228.26m22.085-.012c-.111.242-.044.274.071.034.053-.111.076-.2.051-.2s-.08.075-.122.168m-29.679.188c-.036.109-.043.216-.016.239s.063-.057.08-.177c.04-.285.017-.307-.064-.062m13.553.166a1.232,1.232,0,0,0-.031.3c0,.123.022.095.062-.1.058-.276.034-.438-.031-.207m59.559.516c.034.088.088.159.119.159s.024-.071-.016-.159-.093-.16-.119-.16-.018.072.016.16m-66.418.36c-.108.153-.181.278-.161.278a1.71,1.71,0,0,0,.379-.527c-.012-.016-.11.1-.218.249m9.719.264c-.106.161-.13.291-.038.214.061-.051.2-.359.157-.359a.561.561,0,0,0-.119.146M30.018,32l-.117.069.117,0a.337.337,0,0,0,.2-.073c.116-.1-.03-.1-.2,0m41.693.16c-.05.132-.077.239-.061.239a.721.721,0,0,0,.12-.239c.05-.132.077-.239.061-.239a.728.728,0,0,0-.12.239m-54.07.632a.531.531,0,0,0,.164.234c.112.1.124.1.058.007-.047-.063-.12-.169-.164-.235-.064-.1-.075-.1-.058-.007m27.564.3c-.111.163-.148.243-.084.18a1.744,1.744,0,0,0,.321-.448c0-.064-.046-.012-.237.268m51.121-.077c.055.314.08.324.08.034,0-.139-.027-.253-.059-.253s-.044.089-.021.219m27.734.02c0,.154.012.216.027.14a.915.915,0,0,0,0-.28c-.015-.077-.027-.014-.027.14m-13.587.159c0,.154.012.216.027.14a.89.89,0,0,0,0-.279c-.015-.077-.027-.014-.027.139m24.451.09c.024.106.017.151-.02.12s-.047.013-.029.11c.049.258.134.183.134-.12,0-.154-.028-.279-.062-.279s-.046.069-.023.17m2.781.389c0,.154.012.216.027.14a.912.912,0,0,0,0-.279c-.015-.077-.027-.014-.027.139m-72.661.08a3.872,3.872,0,0,1-.047.4c-.028.153-.02.179.034.111a.763.763,0,0,0,.047-.4c-.013-.175-.028-.223-.034-.11m37.226.2c-.062.065-.087.117-.055.117a.386.386,0,0,0,.171-.117c.062-.065.087-.117.055-.117a.384.384,0,0,0-.172.117m15.748.152c-.212.38-.192.455.022.085a2.735,2.735,0,0,0,.175-.33c0-.077-.058-.005-.2.245M44.5,34.076c-.076.086-.117.158-.091.159s.1-.069.171-.157c.162-.206.1-.208-.08,0m17.69.162c0,.154.012.216.027.14a.892.892,0,0,0,0-.28c-.015-.077-.027-.014-.027.14m67.268.242a1.025,1.025,0,0,0-.249.231c-.019.042.084-.015.229-.126a1.34,1.34,0,0,0,.264-.235c0-.046,0-.044-.244.129M54.6,34.874c-.207.461-.237.6-.065.3a.978.978,0,0,0,.117-.264.6.6,0,0,1,.1-.208c.053-.08.083-.166.065-.19s-.113.138-.213.361m55.589-.288c-.035.05-.163.208-.286.351s-.2.258-.17.256a2.5,2.5,0,0,0,.543-.668c-.013-.017-.051.011-.086.061m-85.175.1c-.218.162-.2.229.015.074a.563.563,0,0,0,.175-.161c0-.052-.006-.048-.19.088m37.173.114c0,.153.012.216.027.139a.889.889,0,0,0,0-.279c-.015-.077-.027-.014-.027.14m-9.839.079a.411.411,0,0,0-.01.212c.016.022.047-.037.069-.132a.416.416,0,0,0,.01-.212c-.016-.022-.047.037-.069.132m-28.136.28c-.1.079-.116.115-.051.117a.234.234,0,0,0,.168-.117c.089-.147.07-.147-.117,0m-7.056.079c.04.066.1.12.131.12s.026-.053-.014-.12-.1-.12-.131-.12-.026.053.014.12m45.03.12c0,.154.012.216.027.14a.889.889,0,0,0,0-.279c-.015-.077-.027-.014-.027.139m55.071.336c-.047.248-.011.261.068.024.037-.11.044-.2.016-.2s-.065.079-.084.176m10.749.064c-.08.086-.117.157-.082.158s.111-.07.169-.158c.133-.2.1-.2-.087,0m-13.743.6c0,.307.011.423.023.258a4.074,4.074,0,0,0,0-.559c-.013-.142-.023-.006-.023.3m-27.7,0c0,.263.011.362.024.218a2.909,2.909,0,0,0,0-.479c-.013-.12-.024,0-.023.261m9.307-.22c0,.033-.013.123-.024.2a.252.252,0,0,0,.022.174c.022.019.047-.071.054-.2.011-.195-.038-.359-.051-.174m9.032.043a2.311,2.311,0,0,1-.221.239c-.079.075-.118.136-.085.136.066,0,.485-.47.423-.476-.022,0-.075.043-.117.1m-40.019.344c.026.387.085.449.085.09a.711.711,0,0,0-.052-.332c-.029-.024-.044.085-.033.243m58.632-.188c0,.228.114.344.115.12,0-.121-.025-.219-.057-.219s-.058.045-.057.1M113,36.713c-.228.206-.147.207.1,0,.1-.088.165-.159.133-.159a.692.692,0,0,0-.233.159m-94.757.079c.058.088.132.16.164.16s0-.072-.076-.16a.691.691,0,0,0-.164-.159c-.016,0,.018.072.076.159m.238.3a.509.509,0,0,1,.1.2c.021.077.071.139.112.138s.054-.021.012-.06a.509.509,0,0,1-.1-.2c-.021-.077-.071-.139-.112-.138s-.054.021-.012.06m107.713.077c-.12.068-.219.151-.219.184s.1-.008.233-.092a.843.843,0,0,0,.233-.192c0-.021-.007-.034-.015-.03l-.233.13m-22.633.344c-.3.3-.339.374-.123.2.255-.2.4-.359.374-.4-.014-.019-.127.069-.251.2M41.3,37.757q-.145.163-.029.081c.19-.135.3-.245.233-.245a.546.546,0,0,0-.2.164m-22.453.53c-.016.185-.007.306.02.27a.768.768,0,0,0,.029-.337c-.02-.263-.021-.261-.049.068m34.073.6c-.1.185-.14.3-.093.3.026,0,.078-.09.115-.2.073-.217.065-.254-.022-.1m-13.647.035a.361.361,0,0,0,.2,0c.056-.02.01-.037-.1-.037s-.158.017-.1.037m42.677,0a1.708,1.708,0,0,1-.045.239c-.029.113-.021.126.035.055a.341.341,0,0,0,.045-.239c-.015-.081-.031-.106-.035-.055m-19.133.266a.864.864,0,0,0,.154.239c.016,0-.027-.108-.1-.239a.864.864,0,0,0-.154-.239c-.016,0,.027.108.1.239m56.475.21c-.1.122-.126.17-.054.121.107-.073.308-.335.25-.328a1.6,1.6,0,0,0-.2.207m-102.516.785c-.062.065-.087.117-.055.117a.386.386,0,0,0,.171-.117c.062-.064.087-.117.055-.117a.384.384,0,0,0-.171.117m35.546.139a.693.693,0,0,0-.086.293c.031.042.024.055.155-.289s.079-.337-.069,0m14.451-.043a.245.245,0,0,0-.129.151c-.027.094-.006.091.112-.014s.2-.228.129-.181a1.149,1.149,0,0,1-.112.045m44.753.086a1.2,1.2,0,0,1-.124.279c-.048.077-.062.14-.03.14.048,0,.11-.128.238-.5.012-.033.005-.06-.014-.06s-.051.063-.071.14m-4.3.818c-.058.088-.092.179-.075.2s.074-.049.127-.16c.116-.243.093-.261-.052-.042m-92.133.244c-.1.084-.145.154-.108.154a.469.469,0,0,0,.2-.156c.174-.2.132-.2-.1,0M38.436,42a.205.205,0,0,0,.191.044c.117-.025.109-.036-.053-.073-.116-.026-.17-.015-.138.03m.417-.02c-.071.062-.063.078.044.079.072,0,.131-.035.131-.079,0-.1-.062-.1-.175,0m9.162.373a1.708,1.708,0,0,1-.045.239c-.029.113-.021.125.035.055a.34.34,0,0,0,.045-.239c-.015-.081-.031-.106-.035-.055m88.682.365c-.043.2-.041.379,0,.379s.052-.09.045-.2c-.01-.169-.033-.253-.049-.18m-26.7.419c-.075.11-.123.2-.106.2.058,0,.3-.32.272-.359-.016-.022-.09.05-.165.16m-3.309,2.172a.924.924,0,0,0,.32,0c.088-.018.016-.033-.16-.033s-.248.015-.16.033m28.181,2.046a.835.835,0,0,0,.29.158c.167.047.168.045.029-.036-.08-.047-.191-.118-.247-.158-.154-.109-.2-.085-.072.036m-110.982.331c0,.22.012.3.025.179a1.967,1.967,0,0,0,0-.4c-.014-.1-.025,0-.024.22m56.55-.139c0,.194.01.2.054.06.068-.218.068-.28,0-.28-.032,0-.057.1-.054.22m55.436.156a.621.621,0,0,0,.262,0c.072-.019.013-.035-.131-.035s-.2.016-.131.035m-88.543.821c0,.285.01.4.023.26a3.468,3.468,0,0,0,0-.519c-.013-.143-.023-.026-.023.259m-26.284.6a.638.638,0,0,0-.014.247c.014.019.042-.062.064-.179a.635.635,0,0,0,.014-.247c-.014-.019-.043.061-.064.178m-15.153.436c-.054.087-.076.157-.048.157.064,0,.207-.231.172-.279-.014-.02-.07.035-.125.122m45.66.5-.1.259.118-.188c.1-.16.153-.332.1-.33a1.593,1.593,0,0,0-.118.26m-.6,1.1c-.058.088-.076.16-.04.16s.093-.072.128-.16.052-.159.04-.159a.644.644,0,0,0-.128.159M4.368,51.9l-.1.26.12-.2c.107-.177.154-.319.106-.319a1.4,1.4,0,0,0-.122.26m3.21.762a1.066,1.066,0,0,0-.157.28c0,.057.144-.129.284-.367.126-.215.045-.159-.127.088m68.985.654a.268.268,0,0,0,.022.2c.029.024.053-.047.053-.159,0-.245-.033-.264-.075-.045M21.4,56.833c-.057.092-.094.181-.082.2s.08-.058.15-.167.106-.2.082-.2-.092.075-.15.168M4.1,57.943c.169.358.169.359.169.272a1.1,1.1,0,0,0-.151-.312l-.15-.239.132.279m131.94-.025c-.056.02-.1.067-.1.1,0,.082.223.009.267-.088.033-.073.005-.076-.165-.015M78.7,58.283a2.887,2.887,0,0,1-.04.34c-.025.15-.021.194.012.118.081-.19.133-.559.078-.559-.028,0-.05.045-.05.1M5.347,59.79c-.026.057-.016.07.026.035s.068-.023.068.019a.177.177,0,0,0,.1.128c.086.045.085.032-.009-.111-.126-.191-.128-.192-.183-.071m72.777,2.821-.056.244c-.016.068-.006.1.022.081a.542.542,0,0,0,.079-.244c.03-.218,0-.274-.045-.081"/>
  <path id="path2" class="cls-3"/>
  <path id="path3" class="cls-3"/>
  <path id="path4" class="cls-3"/>
</svg>
