<svg xmlns="http://www.w3.org/2000/svg" viewBox="0 0 608 608"><defs><style>.cls-1{fill:#f8bb3e;}.cls-2{fill:none;stroke:#f8bb3e;stroke-miterlimit:10;stroke-width:20px;}</style></defs><title>ob2</title><g id="Layer_2" data-name="Layer 2"><g id="outbound"><path class="cls-1" d="M202.1,432.1A37.85,37.85,0,1,1,240,394.25,37.89,37.89,0,0,1,202.1,432.1Zm0-64.05a26.2,26.2,0,1,0,26.21,26.2,26.22,26.22,0,0,0-26.21-26.2Z"/><path class="cls-1" d="M484.5,490.32h-361V448.56c0-12.91,7.55-25,19.7-31.62.84-.46,1.63-.94,2.4-1.46a33.61,33.61,0,0,1,37.32,0,29.59,29.59,0,0,0,32.54,0,33.67,33.67,0,0,1,37.33,0,29.6,29.6,0,0,0,32.55,0,33.65,33.65,0,0,1,37.32,0,29.6,29.6,0,0,0,32.55,0,33.65,33.65,0,0,1,37.32,0,29.6,29.6,0,0,0,32.55,0,33.65,33.65,0,0,1,37.32,0c.77.52,1.56,1,2.39,1.45h0c12.15,6.6,19.7,18.71,19.7,31.62ZM135.15,478.68h337.7V448.56c0-8.76-5.09-16.76-13.61-21.39-1.15-.62-2.27-1.31-3.36-2a21.87,21.87,0,0,0-24.29,0,41.39,41.39,0,0,1-45.58,0,21.87,21.87,0,0,0-24.29,0,41.39,41.39,0,0,1-45.58,0,21.87,21.87,0,0,0-24.29,0,41.39,41.39,0,0,1-45.58,0,21.87,21.87,0,0,0-24.29,0,41.39,41.39,0,0,1-45.58,0,21.87,21.87,0,0,0-24.29,0c-1.08.74-2.21,1.42-3.36,2.05-8.51,4.62-13.6,12.61-13.6,21.38Z"/><path class="cls-1" d="M373.87,187.55a34.94,34.94,0,1,1,34.94-34.94,35,35,0,0,1-34.94,34.94Zm0-58.23a23.29,23.29,0,1,0,23.29,23.29,23.31,23.31,0,0,0-23.29-23.29Z"/><path class="cls-1" d="M467,240H385.51a5.82,5.82,0,0,1,0-11.64H467a5.83,5.83,0,0,0,0-11.65H385.51a5.82,5.82,0,0,1,0-11.64H467A17.47,17.47,0,1,1,467,240Z"/><path class="cls-1" d="M310.34,224.76a5.88,5.88,0,0,1-2.16-.42l-51.43-20.57a17.48,17.48,0,0,1-10.84-18.39l5.83-46.58a17.47,17.47,0,1,1,34.66,4.34l-4.15,33.2L321.43,192a5.82,5.82,0,1,1-4.32,10.81l-43.36-17.33a5.83,5.83,0,0,1-3.62-6.13l4.71-37.67a5.82,5.82,0,0,0-11.55-1.45l-5.83,46.58a5.82,5.82,0,0,0,3.62,6.13l51.43,20.58a5.82,5.82,0,0,1-2.17,11.23Z"/><path class="cls-1" d="M266.83,412.2a17.45,17.45,0,0,1-16.4-23.41l28.8-79.68a5.82,5.82,0,0,1,10.95,4l-28.8,79.69a5.82,5.82,0,1,0,10.95,3.95L301.15,317a5.82,5.82,0,1,1,11,4l-28.82,79.72a17.51,17.51,0,0,1-16.45,11.53Z"/><path class="cls-1" d="M336.26,370.94a17.28,17.28,0,0,1-5.95-1.05,17.49,17.49,0,0,1-10.49-22.36l16.49-45.61a5.81,5.81,0,0,1,3-3.29,5.87,5.87,0,0,1,4.45-.21l21.9,7.92a5.83,5.83,0,0,1,3.5,7.46l-16.49,45.6a17.49,17.49,0,0,1-16.41,11.54Zm-2-12a5.83,5.83,0,0,0,7.45-3.5l14.51-40.13-11-4-14.51,40.12a5.85,5.85,0,0,0,3.5,7.47Z"/><path class="cls-1" d="M312.43,323.48a5.88,5.88,0,0,1-1.6-.22l-27.73-7.92a5.83,5.83,0,0,1-4-7.35l33.42-106.15a24.79,24.79,0,0,1,30.72-16.77l30.61,8.9a24.82,24.82,0,0,1,16.89,30.77L381,258.26A5.82,5.82,0,1,1,369.85,255l9.76-33.53a13.18,13.18,0,0,0-9-16.33L340,196.24a13.17,13.17,0,0,0-16.33,9L292.05,305.78l17,4.86,7.54-18a23.9,23.9,0,0,1,26.18-14.15,5.82,5.82,0,0,1-2.1,11.45,12.19,12.19,0,0,0-13.35,7.21l-9.54,22.72a5.82,5.82,0,0,1-5.36,3.57Z"/><path class="cls-1" d="M365.92,320.16a5.85,5.85,0,0,1-2-.34l-28.81-10.43a5.82,5.82,0,0,1-3.5-7.45l14.58-40.33a17.46,17.46,0,0,1,22.37-10.49l6.91,2.5A17.45,17.45,0,0,1,386,276L371.4,316.32a5.81,5.81,0,0,1-5.48,3.84Zm-21.36-19.74,17.86,6.46L375,272a5.82,5.82,0,0,0-.21-4.45,5.72,5.72,0,0,0-3.29-3l-6.91-2.51a5.85,5.85,0,0,0-7.47,3.5Z"/><circle class="cls-2" cx="304" cy="304" r="294"/></g></g></svg>