<svg xmlns="http://www.w3.org/2000/svg" viewBox="0 0 608 608"><defs><style>.cls-1{fill:none;stroke:#f8bb3e;stroke-miterlimit:10;stroke-width:20px;}.cls-2{fill:#f8bb3e;}</style></defs><title>oh2</title><g id="Layer_2" data-name="Layer 2"><g id="open_house" data-name="open house"><circle class="cls-1" cx="304" cy="304" r="294"/><path class="cls-2" d="M483.73,234.86l.06-.09C482.29,233.7,333.24,128,308.89,97.56a6.52,6.52,0,0,0-9.82,0C274.74,128,125.69,233.7,124.17,234.77l.06.09a6.18,6.18,0,0,0-2.68,5V466.38a6.29,6.29,0,0,0,6.29,6.29H153a11.77,11.77,0,0,0,2.81-.62L230,434.93H373.21v31.45a6.28,6.28,0,0,0,6.29,6.29h25.16a11.66,11.66,0,0,0,2.81-.62L483,434.3a6.31,6.31,0,0,0,3.48-5.66V239.9a6.17,6.17,0,0,0-2.72-5Zm-9.86,101.81L461.28,343V296.52h6.29a18.83,18.83,0,0,0,6.3-1.16ZM134.13,246.19H473.87v12.58H134.13Zm308.28,37.75a6.29,6.29,0,0,1-6.29-6.29v-6.3h37.75v6.3a6.3,6.3,0,0,1-6.3,6.29Zm-69.2-6.29a6.3,6.3,0,0,1-6.3,6.29H341.75a6.29,6.29,0,0,1-6.29-6.29v-6.3h37.75Zm-50.34,0a6.29,6.29,0,0,1-6.29,6.29H291.42a6.29,6.29,0,0,1-6.29-6.29v-6.3h37.74Zm-100.66,0a6.29,6.29,0,0,1-6.29,6.29H190.76a6.29,6.29,0,0,1-6.29-6.29v-6.3h37.74Zm-88.08-6.3h37.75v6.3a6.29,6.29,0,0,1-6.29,6.29H140.43a6.3,6.3,0,0,1-6.3-6.29Zm25.17,25.17h6.29a18.77,18.77,0,0,0,12.58-4.91,18.8,18.8,0,0,0,12.59,4.91h25.16a18.73,18.73,0,0,0,6.29-1.16v41L159.3,362.58Zm75.49-25.17h37.75v6.3a6.29,6.29,0,0,1-6.29,6.29H241.09a6.3,6.3,0,0,1-6.3-6.29ZM260,296.52h6.29a18.77,18.77,0,0,0,12.58-4.91,18.8,18.8,0,0,0,12.59,4.91h25.16a18.8,18.8,0,0,0,12.59-4.91,18.75,18.75,0,0,0,12.58,4.91h25.16a18.83,18.83,0,0,0,6.3-1.16V328H260Zm125.83-25.17h37.74v6.3a6.29,6.29,0,0,1-6.29,6.29H392.08a6.29,6.29,0,0,1-6.29-6.29Zm31.45,25.17a18.8,18.8,0,0,0,12.59-4.91,18.75,18.75,0,0,0,12.58,4.91h6.29V328H411V296.52Zm-6.29,44H448.7v8.69L411,368.13ZM304,110.92c28.47,29.65,119.3,95.91,156.53,122.69H147.47c37.24-26.78,128.06-93,156.53-122.69ZM134.13,295.36a18.83,18.83,0,0,0,6.3,1.16h6.29V460.09H134.13Zm25.17,80.85L222.21,350v74.75L159.3,456.21Zm75.49-80.85a18.83,18.83,0,0,0,6.3,1.16h6.29V422.35H234.79Zm25.17,127V409.76h25.17V397.18H260V340.56H373.21v81.79Zm125.83-127a18.73,18.73,0,0,0,6.29,1.16h6.29V460.09H385.79ZM411,382.18l62.92-31.46v74L411,456.21Z"/><rect class="cls-2" x="297.71" y="397.18" width="12.58" height="12.58"/></g></g></svg>