<svg xmlns="http://www.w3.org/2000/svg" viewBox="0 0 608 608"><defs><style>.cls-1{fill:#f8bb3e;}.cls-2{fill:none;stroke:#f8bb3e;stroke-miterlimit:10;stroke-width:20px;}</style></defs><title>pk22</title><g id="Layer_2" data-name="Layer 2"><g id="pk2maba"><rect class="cls-1" x="250" y="241" width="12" height="12"/><rect class="cls-1" x="250" y="265" width="12" height="12"/><rect class="cls-1" x="250" y="289" width="12" height="12"/><rect class="cls-1" x="250" y="313" width="12" height="12"/><rect class="cls-1" x="274" y="241" width="12" height="12"/><rect class="cls-1" x="274" y="265" width="12" height="12"/><rect class="cls-1" x="274" y="289" width="12" height="12"/><rect class="cls-1" x="274" y="313" width="12" height="12"/><rect class="cls-1" x="298" y="241" width="12" height="12"/><rect class="cls-1" x="298" y="265" width="12" height="12"/><rect class="cls-1" x="298" y="289" width="12" height="12"/><rect class="cls-1" x="298" y="313" width="12" height="12"/><rect class="cls-1" x="322" y="241" width="12" height="12"/><rect class="cls-1" x="274" y="217" width="12" height="12"/><rect class="cls-1" x="298" y="217" width="12" height="12"/><rect class="cls-1" x="322" y="217" width="12" height="12"/><rect class="cls-1" x="322" y="265" width="12" height="12"/><rect class="cls-1" x="322" y="289" width="12" height="12"/><rect class="cls-1" x="322" y="313" width="12" height="12"/><rect class="cls-1" x="346" y="241" width="12" height="12"/><rect class="cls-1" x="346" y="265" width="12" height="12"/><rect class="cls-1" x="346" y="313" width="12" height="12"/><rect class="cls-1" x="346" y="289" width="12" height="12"/><rect class="cls-1" x="406" y="259" width="12" height="96"/><rect class="cls-1" x="442" y="259" width="12" height="96"/><rect class="cls-1" x="154" y="259" width="12" height="96"/><rect class="cls-1" x="190" y="259" width="12" height="96"/><path class="cls-1" d="M340,145H268a6,6,0,0,0-6,6h0v48a6,6,0,0,0,6,6h72a6,6,0,0,0,6-6h0V151a6,6,0,0,0-6-6Zm-6,48H274V157h60Z"/><path class="cls-1" d="M478,211H388V127a6,6,0,0,0-6-6H226a6,6,0,0,0-6,6h0v84H130a6,6,0,0,0-6,6h0V433a6,6,0,0,0,6,6h12.55a35.51,35.51,0,0,0-.54,6v30a6,6,0,0,0,6,6H460a6,6,0,0,0,6-6h0V445a36.57,36.57,0,0,0-.54-6H478a6,6,0,0,0,6-6h0V217a6,6,0,0,0-6-6ZM382,379a12,12,0,1,1-12-12,12,12,0,0,1,12,12ZM238,367a12,12,0,1,1-12,12,12,12,0,0,1,12-12ZM202,469H154V445a24,24,0,0,1,48,0Zm-36-72a12,12,0,1,1,12,12,12,12,0,0,1-12-12Zm36.91,22.07a36.56,36.56,0,0,0-7.55-5.59,24,24,0,1,0-34.72,0A36.19,36.19,0,0,0,146.87,427H136V223h84V363.29a23.67,23.67,0,0,0,.64,32.19,36.11,36.11,0,0,0-17.73,23.59ZM262,469H214V427a24,24,0,0,1,48,0Zm72,0H274V427a30,30,0,0,1,60,0ZM286,367a18,18,0,1,1,18,18,18,18,0,0,1-18-18Zm54.54,39.37a42.31,42.31,0,0,0-17.21-16.62,30,30,0,1,0-42.28-3.62,30.94,30.94,0,0,0,3.62,3.62,42.31,42.31,0,0,0-17.21,16.62,36.31,36.31,0,0,0-12.1-10.89A23.83,23.83,0,0,0,232,355.85V133H376V355.85a23.89,23.89,0,0,0-23.36,39.63,36.22,36.22,0,0,0-12.1,10.89ZM394,445v24H346V427a24,24,0,0,1,48,0Zm60,24H406V445a24,24,0,0,1,48,0Zm-36-72a12,12,0,1,1,12,12,12,12,0,0,1-12-12Zm54,30H461.13a36.19,36.19,0,0,0-13.77-13.52,24,24,0,1,0-34.72,0,36.29,36.29,0,0,0-7.55,5.59,36.11,36.11,0,0,0-17.73-23.59,23.67,23.67,0,0,0,.64-32.19V223h84Z"/><circle class="cls-2" cx="304" cy="304" r="294"/></g></g></svg>