<svg xmlns="http://www.w3.org/2000/svg" viewBox="0 0 608 608"><defs><style>.cls-1{fill:none;stroke:#f8bb3e;stroke-miterlimit:10;stroke-width:20px;}.cls-2{fill:#f8bb3e;}</style></defs><title>pkm2</title><g id="Layer_2" data-name="Layer 2"><g id="PKM"><circle class="cls-1" cx="304" cy="304" r="294"/><path class="cls-2" d="M415.92,127.46a46.8,46.8,0,0,0-11.07,1.38l2.87,11.65a34.06,34.06,0,0,1,42.47,33.24c0,50.46-57.47,87.66-81.43,94.66l3.37,11.52c30.43-8.9,90.06-50.45,90.07-106.18a46.32,46.32,0,0,0-46.28-46.27Z"/><path class="cls-2" d="M157.8,173.73a34,34,0,0,1,42.46-33.24l2.88-11.65c-30-7.38-57.34,15.76-57.34,44.89,0,55.74,59.64,97.29,90.06,106.18l3.37-11.52c-24-7-81.43-44.2-81.43-94.66Z"/><path class="cls-2" d="M324.8,335.35H283.19a6,6,0,0,0-6,6v22.77a6,6,0,0,0,7.26,5.86,96.38,96.38,0,0,1,39.09,0,6,6,0,0,0,7.26-5.86V341.35a6,6,0,0,0-6-6Zm-6,21.62a110.37,110.37,0,0,0-29.61,0v-9.63H318.8Z"/><path class="cls-2" d="M385,461.84H223a6,6,0,0,0-6,6V490a6,6,0,0,0,6,6H385a6,6,0,0,0,6-6V467.84a6,6,0,0,0-6-6ZM379,484H229V473.84H379Z"/><path class="cls-2" d="M374.59,377.3H233.4a6,6,0,0,0-6,6v84.54a6,6,0,0,0,6,6H374.59a6,6,0,0,0,6-6V383.3a6,6,0,0,0-6-6Zm-6,84.54H239.4V389.3H368.59Z"/><path class="cls-2" d="M350.6,401.3H257.4a6,6,0,0,0-6,6v36.53a6,6,0,0,0,6,6h93.2a6,6,0,0,0,6-6V407.3a6,6,0,0,0-6-6Zm-6,36.53H263.4V413.3h81.2Z"/><path class="cls-2" d="M409.74,115a10,10,0,0,0-7.2-3H205.46a10.17,10.17,0,0,0-10.15,10.22c0,4.09.21,8.11.39,12.69.15,3.69.36,7.36.61,11,3,44.43,12.89,85,28.63,117.41,2.32,4.77,4.83,9.44,7.44,13.87,12,20.41,25.79,35.06,40.94,43.54a6,6,0,0,0,5.13.34c1.4.05,3,.05,4.73.05h46.46a6,6,0,0,0,5-.39c15.14-8.47,28.91-23.12,40.94-43.54,2.59-4.42,5.09-9.08,7.42-13.85,15.75-32.4,25.65-73,28.64-117.43.24-3.64.45-7.29.6-11,.17-4.19.34-8.39.38-12.64a10,10,0,0,0-2.92-7.23Zm-9.45,19.39c-.15,3.6-.35,7.15-.59,10.69-2.88,42.9-12.38,82-27.46,113-2.18,4.49-4.53,8.88-7,13-10.23,17.38-22.12,30.47-34.5,38H277.23c-12.38-7.54-24.28-20.63-34.5-38-2.45-4.16-4.8-8.54-7-13-15.07-31-24.57-70.07-27.46-113-.23-3.53-.44-7.09-.61-11.23-.13-3.28-.27-6.56-.33-9.87H400.63c-.06,3.5-.2,6.95-.34,10.41Z"/><path class="cls-2" d="M376.08,138c-.1,1.88-.2,3.66-.32,5.42-2.51,37.17-11,72.21-23.83,98.66-1.8,3.7-3.75,7.36-5.81,10.86C339,265,331,274.37,323.08,280l7,9.78c9.33-6.63,18.45-17.29,26.42-30.8,2.22-3.78,4.33-7.72,6.27-11.7,13.51-27.81,22.39-64.43,25-103.12.12-1.83.23-3.65.34-5.59Z"/><path class="cls-2" d="M324.8,309.12H282.92c-10.1,0-11.1,19.57-11.1,19.77s1.18,18.46,11.37,18.46h41.89c9.92,0,11.1-18.27,11.1-18.46s-1-19.77-11.38-19.77Zm-2.19,26.23H285.38a26.36,26.36,0,0,1-1.57-6.45,33.3,33.3,0,0,1,1.75-7.78h36.87a32.84,32.84,0,0,1,1.75,7.77,25.87,25.87,0,0,1-1.57,6.46Z"/><path class="cls-2" d="M326.07,358.25a108.53,108.53,0,0,0-44.15,0c-19.87,4.3-31.74,13.67-31.74,25.05a6,6,0,0,0,6,6h95.64a6,6,0,0,0,6-6c0-11.39-11.87-20.75-31.75-25.05ZM266.41,377.3c3.71-2.79,9.79-5.53,18-7.32a96.33,96.33,0,0,1,39.08,0c8.26,1.79,14.34,4.53,18.05,7.32Z"/></g></g></svg>