<svg xmlns="http://www.w3.org/2000/svg" viewBox="0 0 393.91 329.03"><defs><style>.cls-1{fill:#043d59;}</style></defs><title>agama_biru</title><g id="Layer_2" data-name="Layer 2"><g id="Layer_13" data-name="Layer 13"><path class="cls-1" d="M173.61,118.83a23.7,23.7,0,0,0-30.31,14.31l-14.19,39.53-1.42-24.36L172.53,23.75A17.73,17.73,0,0,0,140,9.75L77.14,134.21a20.26,20.26,0,0,0-2.14,9l.33,93.66L17.55,267.24a32.77,32.77,0,1,0,30.46,58l106.81-56.08,2.44-1.28a27.13,27.13,0,0,0,14-19.41L189,145.13a23.7,23.7,0,0,0-15.36-26.3Z"/><path class="cls-1" d="M376.36,267.24,318.58,236.9l.33-93.66a20.26,20.26,0,0,0-2.14-9L253.89,9.74a17.74,17.74,0,0,0-32.52,14l44.85,124.56-1.42,24.36-14.18-39.53a23.7,23.7,0,0,0-45.68,12L222.63,248.5a27.13,27.13,0,0,0,14,19.41l2.44,1.28L345.9,325.27a32.77,32.77,0,1,0,30.46-58Z"/></g></g></svg>