<svg xmlns="http://www.w3.org/2000/svg" viewBox="0 0 291.9 384"><defs><style>.cls-1{fill:#043d59;}</style></defs><title>alergi_biru</title><g id="Layer_2" data-name="Layer 2"><g id="Layer_9" data-name="Layer 9"><path class="cls-1" d="M146,0C65.47,0,0,65.47,0,146v92.1c0,80.48,65.47,146,146,146s146-65.47,146-145.95V146C291.9,65.47,226.43,0,146,0Zm0,22.76a123.4,123.4,0,0,1,119.86,94.73c-21.83-6-44.35-17.22-60.84-33a11.4,11.4,0,0,0-15.72,0,137.15,137.15,0,0,1-95.11,38.1c-21.48,0-46-5-65.43-14.49A123.4,123.4,0,0,1,146,22.76ZM269.13,238.05a123.19,123.19,0,1,1-246.37,0V146a124.65,124.65,0,0,1,1.14-16.72,160.42,160.42,0,0,0,70.24,16.15A159.71,159.71,0,0,0,197.1,108a158.84,158.84,0,0,0,72,34.36c0,1.19.06,2.37.06,3.57v92.1Z"/><path class="cls-1" d="M97,228.43C96.73,222.26,92,217,85.63,217c-5.95,0-11.66,5.24-11.38,11.39s5,11.38,11.38,11.38c6,0,11.65-5.24,11.38-11.38Z"/><path class="cls-1" d="M105,228.43c.27,6.16,5,11.38,11.38,11.38,6,0,11.65-5.24,11.38-11.38s-5-11.39-11.38-11.39c-6,0-11.66,5.24-11.38,11.39Z"/><path class="cls-1" d="M66.28,228.43C66,222.26,61.28,217,54.9,217c-6,0-11.66,5.24-11.39,11.39s5,11.38,11.39,11.38c6,0,11.65-5.24,11.38-11.38Z"/><path class="cls-1" d="M70.26,246.25c-6,0-11.66,5.24-11.38,11.39S63.88,269,70.26,269c6,0,11.66-5.23,11.38-11.38s-5-11.39-11.38-11.39Z"/><path class="cls-1" d="M112.37,257.64c-.27-6.17-5-11.39-11.38-11.39-5.95,0-11.65,5.24-11.38,11.39S94.61,269,101,269c6,0,11.66-5.23,11.38-11.38Z"/><path class="cls-1" d="M221.07,228.43c-.27-6.17-5-11.39-11.38-11.39-6,0-11.66,5.24-11.38,11.39s5,11.38,11.38,11.38c5.95,0,11.66-5.24,11.38-11.38Z"/><path class="cls-1" d="M240.42,217c-6,0-11.66,5.24-11.38,11.39s5,11.38,11.38,11.38c6,0,11.66-5.24,11.38-11.38S246.8,217,240.42,217Z"/><path class="cls-1" d="M179,239.81c5.95,0,11.66-5.24,11.38-11.38S185.34,217,179,217c-6,0-11.66,5.24-11.38,11.39s5,11.38,11.38,11.38Z"/><path class="cls-1" d="M194.32,246.25c-5.95,0-11.65,5.24-11.38,11.39s5,11.38,11.38,11.38c6,0,11.66-5.23,11.39-11.38s-5-11.39-11.39-11.39Z"/><path class="cls-1" d="M225.05,246.25c-6,0-11.65,5.24-11.38,11.39s5,11.38,11.38,11.38c6,0,11.66-5.23,11.39-11.38s-5-11.39-11.39-11.39Z"/><path class="cls-1" d="M209.69,196.67A36.31,36.31,0,0,0,235.53,186a11.38,11.38,0,0,0-16.09-16.1,13.79,13.79,0,0,1-19.5,0A11.38,11.38,0,1,0,183.85,186a36.31,36.31,0,0,0,25.84,10.7Z"/><path class="cls-1" d="M146,273.62a49.89,49.89,0,0,0-35.52,14.71,11.38,11.38,0,0,0,16.1,16.1,27.45,27.45,0,0,1,38.84,0,11.38,11.38,0,1,0,16.1-16.1A49.89,49.89,0,0,0,146,273.62Z"/><path class="cls-1" d="M85.63,196.67A36.31,36.31,0,0,0,111.47,186a11.38,11.38,0,0,0-16.1-16.1,13.77,13.77,0,0,1-19.49,0A11.38,11.38,0,0,0,59.78,186a36.35,36.35,0,0,0,25.85,10.7Z"/></g></g></svg>