<svg xmlns="http://www.w3.org/2000/svg" viewBox="0 0 479.64 512"><defs><style>.cls-1{fill:#043d59;}</style></defs><title>gender_biru</title><g id="Layer_2" data-name="Layer 2"><g id="Layer_11" data-name="Layer 11"><path class="cls-1" d="M387.74,0V31.35H423.1l-69,65.41a134.29,134.29,0,0,0-213.78,29c-2-.08-3.94-.14-5.92-.14C60.3,125.62,0,185.92,0,260c0,68.82,52,125.71,118.74,133.5V435.2H71.81v31.34h46.93V512h31.35V466.54h49V435.19h-49V393.54a134.68,134.68,0,0,0,102-68.62c2,.09,3.94.14,5.93.14,74.12,0,134.41-60.3,134.41-134.42a133.52,133.52,0,0,0-19.07-68.94l74.92-71V89.59h31.35V0ZM232.86,290.6a103.13,103.13,0,0,1-73.28-130.52A103.09,103.09,0,0,1,232.86,290.6Zm-98.44,72.51a103.07,103.07,0,0,1-6.59-205.92,134.46,134.46,0,0,0,90.94,162A103,103,0,0,1,134.42,363.11Zm130.2-69.61A134.26,134.26,0,0,0,268.84,260c0-60.46-40.14-111.73-95.16-128.56a103.05,103.05,0,1,1,90.94,162Z"/></g></g></svg>