<svg xmlns="http://www.w3.org/2000/svg" viewBox="0 0 219.27 315.2"><defs><style>.cls-1{fill:#043d59;}</style></defs><title>goldar_biru</title><g id="Layer_2" data-name="Layer 2"><g id="goldar"><path class="cls-1" d="M201.91,146.67q-1.28-1.92-13.38-19.37T166.9,95q-9.53-14.88-21.3-38.11A266.81,266.81,0,0,1,127.82,13.7a16.94,16.94,0,0,0-7.17-10.06,19.67,19.67,0,0,0-11-3.64A19.21,19.21,0,0,0,98.71,3.64,18,18,0,0,0,91.43,13.7,266.7,266.7,0,0,1,73.66,56.85Q61.87,80.09,52.35,95T30.72,127.3q-12.09,17.45-13.38,19.37Q0,174.53,0,205.56,0,251,32.12,283.08t77.51,32.12q45.39,0,77.51-32.12t32.13-77.52a107.44,107.44,0,0,0-17.36-58.89ZM101.6,252.35a27.4,27.4,0,0,1-38.76,0,26.41,26.41,0,0,1-8-19.38,28.12,28.12,0,0,1,4.28-14.77c.15-.15,1.25-1.75,3.32-4.82s3.89-5.78,5.47-8.14a97.25,97.25,0,0,0,5.35-9.42A67.73,67.73,0,0,0,77.73,185a4.66,4.66,0,0,1,9,0,67.73,67.73,0,0,0,4.5,10.81,93.2,93.2,0,0,0,5.35,9.42q2.36,3.54,5.46,8.14c2.07,3.07,3.17,4.67,3.32,4.82A28.12,28.12,0,0,1,109.63,233a26.41,26.41,0,0,1-8,19.38Z"/></g></g></svg>