<svg xmlns="http://www.w3.org/2000/svg" xmlns:xlink="http://www.w3.org/1999/xlink" viewBox="0 0 433.58 433.3"><defs><style>.cls-1{fill:none;}.cls-2{clip-path:url(#clip-path);}.cls-3{fill:#043d59;}</style><clipPath id="clip-path" transform="translate(0 -0.48)"><rect class="cls-1" width="433.92" height="434.88"/></clipPath></defs><title>telp_biru</title><g id="Layer_2" data-name="Layer 2"><g id="telephone"><g class="cls-2"><path class="cls-3" d="M433.37,342.44Q434.75,353,427,360.8L365.9,421.38a34.41,34.41,0,0,1-10.79,7.8A44.52,44.52,0,0,1,342,433.32c-.3,0-1.22.08-2.75.23s-3.52.23-6,.23q-8.71,0-28.23-3t-47.73-14.68q-28.23-11.72-64-35.12t-76.2-64.26Q85,285.07,63.88,256.15t-34-53.48q-12.85-24.55-19.28-44.52a236.7,236.7,0,0,1-8.72-34.43Q-.38,109.26.08,101t.45-9.18A44.7,44.7,0,0,1,4.67,78.74,34.53,34.53,0,0,1,12.47,68l61.05-61A20.17,20.17,0,0,1,88.2.48,17.16,17.16,0,0,1,98.76,3.92a32.12,32.12,0,0,1,7.81,8.5l49.11,93.17A22.39,22.39,0,0,1,158,121.66a28.52,28.52,0,0,1-7.8,14.68l-22.49,22.5a7.64,7.64,0,0,0-1.61,3,11.3,11.3,0,0,0-.69,3.44q1.84,9.65,8.27,22,5.5,11,17,26.86t32.59,36.49q20.66,21.11,36.72,32.82t26.85,17.21q10.78,5.5,16.52,6.65l5.74,1.15a10.84,10.84,0,0,0,3-.69,7.56,7.56,0,0,0,3-1.61l26.16-26.62a28.13,28.13,0,0,1,19.28-7.34q7.8,0,12.39,2.75h.46l88.58,52.33q9.64,6,11.48,15.15Z" transform="translate(0 -0.48)"/></g></g></g></svg>