<svg xmlns="http://www.w3.org/2000/svg" viewBox="0 0 386.55 307.62"><defs><style>.cls-1{fill:#043d59;}</style></defs><title>tempat_biru</title><g id="Layer_2" data-name="Layer 2"><g id="Layer_10" data-name="Layer 10"><path class="cls-1" d="M193.27,62.09,55.4,175.75a2.61,2.61,0,0,1-.11.72,3.71,3.71,0,0,0-.11.72V292.27a15.57,15.57,0,0,0,15.33,15.35h92.08V215.54H224v92.08H316a15.56,15.56,0,0,0,15.34-15.35V177.19a3.31,3.31,0,0,0-.24-1.44Z"/><path class="cls-1" d="M383.87,149.86l-52.5-43.64V8.39A7.38,7.38,0,0,0,323.7.72h-46a7.51,7.51,0,0,0-5.52,2.15A7.51,7.51,0,0,0,270,8.39V55.15L211.5,6.24a29.72,29.72,0,0,0-36.44,0L2.66,149.86A6.9,6.9,0,0,0,0,155a7.82,7.82,0,0,0,1.68,5.65l14.86,17.73a8.18,8.18,0,0,0,5,2.65,9,9,0,0,0,5.77-1.68L193.27,41,359.19,179.35a7.37,7.37,0,0,0,5,1.68H365a8.21,8.21,0,0,0,5-2.65l14.87-17.74a7.78,7.78,0,0,0,1.67-5.64,7,7,0,0,0-2.65-5.14Z"/></g></g></svg>