<svg xmlns="http://www.w3.org/2000/svg" viewBox="0 0 356.31 383.73"><defs><style>.cls-1{fill:#043d59;}</style></defs><title>ttl_biru</title><g id="Layer_2" data-name="Layer 2"><g id="ttl"><g id="Layer_6" data-name="Layer 6"><path class="cls-1" d="M348.18,63a26.32,26.32,0,0,0-19.27-8.14H301.5V34.26a33,33,0,0,0-10.07-24.19A33,33,0,0,0,267.23,0H253.54a33,33,0,0,0-24.2,10.07,32.93,32.93,0,0,0-10.07,24.19V54.82H137.05V34.26A33,33,0,0,0,127,10.07,33,33,0,0,0,102.78,0H89.08a33,33,0,0,0-24.2,10.07A33,33,0,0,0,54.82,34.26V54.82H27.41A26.3,26.3,0,0,0,8.14,63,26.32,26.32,0,0,0,0,82.23V356.32a26.33,26.33,0,0,0,8.14,19.27,26.34,26.34,0,0,0,19.27,8.14H328.9a27.8,27.8,0,0,0,27.41-27.41V82.23A26.33,26.33,0,0,0,348.18,63ZM89.08,356.32H27.41V294.64H89.08Zm0-75.38H27.41V212.42H89.08Zm0-82.23H27.41V137.05H89.08Zm-4.82-98a6.61,6.61,0,0,1-2-4.82V34.26a6.93,6.93,0,0,1,6.85-6.85h13.7a7,7,0,0,1,6.86,6.85V95.93a7,7,0,0,1-6.86,6.86H89.08a6.64,6.64,0,0,1-4.82-2Zm87,255.57H102.78V294.64H171.3Zm0-75.38H102.78V212.42H171.3Zm0-82.23H102.78V137.05H171.3Zm82.24,157.61H185V294.64h68.53Zm0-75.38H185V212.42h68.53Zm0-82.23H185V137.05h68.53Zm-4.83-98a6.61,6.61,0,0,1-2-4.82V34.26a6.93,6.93,0,0,1,6.86-6.85h13.69a7,7,0,0,1,6.86,6.85V95.93a7,7,0,0,1-6.86,6.86H253.54a6.64,6.64,0,0,1-4.83-2ZM328.9,356.32H267.23V294.64H328.9Zm0-75.38H267.23V212.42H328.9Zm0-82.23H267.23V137.05H328.9Z"/></g></g></g></svg>