<svg xmlns="http://www.w3.org/2000/svg" viewBox="0 0 531.17 665.49"><defs><style>.cls-1{fill:#f8bb3e;}</style></defs><title>logo3</title><g id="Layer_2" data-name="Layer 2"><g id="Layer_16" data-name="Layer 16"><path class="cls-1" d="M292.37,137.07c-3.43-.31-6.85-.52-10.26-.69,129,21,221.51,140.92,209.43,276.16C478.91,554,356.63,658.61,218.44,646.27a245.52,245.52,0,0,1-109.07-36.72,253,253,0,0,0,135.92,54.59c142.23,12.71,268.06-95,281.06-240.53S434.59,149.77,292.37,137.07Z"/><path class="cls-1" d="M296.1,137.4c-2.18-.19-4.36-.34-6.54-.47,130.79,15.43,230.72,130.42,227.56,267.9C513.76,550.9,395.3,667,252.52,664.18c-3.46-.07-6.91-.21-10.33-.42,2.27.27,4.54.51,6.83.72,142.22,12.7,268.06-95,281.06-240.54S438.32,150.11,296.1,137.4Z"/><circle class="cls-1" cx="399.35" cy="219.69" r="12.67"/><circle class="cls-1" cx="421.56" cy="250.87" r="12.67"/><circle class="cls-1" cx="439.4" cy="285.38" r="12.67"/><circle class="cls-1" cx="452.28" cy="318.51" r="12.67"/><circle class="cls-1" cx="460.81" cy="353.45" r="12.67"/><path class="cls-1" d="M45.66,192.63S35.26,118.4,143,102.12s128.69,123,66.91,194.44S43.63,366.94,14.34,498c0,0-31.76-107.12,84.36-174.84s80.27-184,6.86-168.36L89.08,162S62.9,172,45.66,192.63Z"/><path class="cls-1" d="M112.85,324.52c109.88-64.09,83.68-171.61,18.35-169.77,54.37,12.82,69.05,109.14-32.5,168.37C-17.42,390.84,14.34,498,14.34,498c3.19-14.27,4.31-33,6.58-45.15a8.32,8.32,0,0,1,.25-.95C31.57,419.2,43.78,364.79,112.85,324.52Z"/><path class="cls-1" d="M104.5,155.22c-31.49,12-49.67,25.11-59.63,38.34-13.84,18.37-12.32,39-10.59,68.3C37.26,312.29,0,347,0,347,89,293.92,101.15,243.18,93.94,208.7S104.5,155.22,104.5,155.22ZM66.76,202.17a5.72,5.72,0,1,1,6.18-5.2A5.72,5.72,0,0,1,66.76,202.17Z"/><path class="cls-1" d="M19.55,321.12C10,337.51,0,347,0,347c76.55-44.37,95.55-87.85,95.68-121.09C92.33,254.54,74.53,289,19.55,321.12Z"/><path class="cls-1" d="M46.22,152.12s5.37-60.4,72.85-84.36c52-18.45,135.59-7.87,145.28-67.76,0,0,30.52,19.77,13,43.82-24.43,33.46-70.85,19.59-115.58,26.29l53,17.24c29.1,9.47,50.54-1.14,50.54-1.14s-2.07,24.87-29.63,27.55S170.17,80.89,120.08,92.3C82.34,100.9,50.64,136.15,46.22,152.12Z"/><path class="cls-1" d="M258.7,89c-3.46,7.25-10.88,16-26.65,17.59-27.56,2.68-65.45-32.88-115.54-21.47C90.42,91,67.21,109.7,53.91,126c-6.81,15-7.84,26.59-7.84,26.59,4.42-16,36.12-51.22,73.87-59.82,50.08-11.41,88,24.15,115.54,21.46s29.63-27.56,29.63-27.56A43,43,0,0,1,258.7,89Z"/><path class="cls-1" d="M274.89,9.22c2.93,6.47,3.47,14.39-1.86,23.4-21.11,35.65-68.64,26.29-112.52,37.25a10.28,10.28,0,0,0,2.42.63c-.92-.3-.89-.38-.89-.38,44.73-6.7,91.15,7.17,115.57-26.3C287.83,29.82,281.75,17.26,274.89,9.22Z"/><path class="cls-1" d="M117.59,586.18S104.9,518.76,134.25,478.3s84.68-63.66,104.32-88.65,22-82.7,8.92-110.66c0,0-9.8,45.48-74.48,68.62C86.55,378.54,48.47,441.21,41,475.92,36,499.34,25.77,560.2,117.59,586.18Z"/><path class="cls-1" d="M228.1,398c-23.25,21.66-81.5,36-116.74,71.5-30.25,30.43-33,85.29-33.12,100.19,10.41,6.32,23.37,12,39.48,16.51,0,0-12.69-67.42,16.66-107.88s84.68-63.66,104.31-88.65c10.29-13.09,15.83-35.17,16.9-57.24C252.24,357.88,242.46,384.6,228.1,398Z"/><path class="cls-1" d="M158.73,602.81S86.53,513.21,199,441.92s133.15-101.3,132.89-145.17c0,0,55.48,70.92,47.94,160.34S320.81,604.27,253,621.51,158.73,602.81,158.73,602.81Z"/><path class="cls-1" d="M380.78,458.22C387,384,346.05,314.56,331.91,296.75c5.14,19.4,14.18,103.57-4.43,189.85C310.1,567.24,246,609.05,190,623.05c15,4.76,35.92,6.73,63.95-.4C321.74,605.41,373.24,547.64,380.78,458.22Z"/></g></g></svg>