<?xml version="1.0" encoding="UTF-8" standalone="no"?>
<!DOCTYPE svg PUBLIC "-//W3C//DTD SVG 1.1//EN" "http://www.w3.org/Graphics/SVG/1.1/DTD/svg11.dtd">
<svg width="100%" height="100%" viewBox="0 0 2197 2036" version="1.1" xmlns="http://www.w3.org/2000/svg" xmlns:xlink="http://www.w3.org/1999/xlink" xml:space="preserve" xmlns:serif="http://www.serif.com/" style="fill-rule:evenodd;clip-rule:evenodd;stroke-linecap:round;stroke-linejoin:round;stroke-miterlimit:1.5;">
    <g transform="matrix(1,0,0,1,-986.127,-365.798)">
        <path d="M1120.91,1123.42C1120.91,1123.42 1116.52,1096.59 1092.64,1088C1092.64,1088 1079.1,1080.99 1057.77,1076.85C1057.77,1076.85 1031.97,1073.98 1016.69,1073.98C1016.69,1073.98 993.131,1072.07 992.176,1098.5L986.127,1214.39L987.082,1275.52C987.082,1275.52 985.49,1300.99 1011.92,1309.91C1011.92,1309.91 1052.35,1320.73 1062.54,1319.78C1062.54,1319.78 1065.41,1366.26 1065.72,1372.95C1065.72,1372.95 1063.5,1399.38 1083.55,1396.19L1120.91,1123.42Z" style="fill:rgb(247,187,62);"/>
        <g transform="matrix(-1,0,0,1,4168.98,-5.10971)">
            <path d="M1120.91,1123.42C1120.91,1123.42 1116.52,1096.59 1092.64,1088C1092.64,1088 1079.1,1080.99 1057.77,1076.85C1057.77,1076.85 1031.97,1073.98 1016.69,1073.98C1016.69,1073.98 993.131,1072.07 992.176,1098.5L986.127,1214.39L987.082,1275.52C987.082,1275.52 985.49,1300.99 1011.92,1309.91C1011.92,1309.91 1052.35,1320.73 1062.54,1319.78C1062.54,1319.78 1065.41,1366.26 1065.72,1372.95C1065.72,1372.95 1063.5,1399.38 1083.55,1396.19L1120.91,1123.42Z" style="fill:rgb(247,187,62);"/>
        </g>
        <path d="M1177.9,2187.38L1177.9,2316.43C1177.9,2316.43 1191.18,2390.45 1253.81,2398.04L1371.47,2399.93C1371.47,2399.93 1447.99,2413.75 1454.06,2344.52L1456.49,2221.85L1177.9,2187.38Z" style="fill:white;"/>
        <g transform="matrix(-1,0,-0,1,4152.78,-2.10795)">
            <path d="M1177.9,2187.38L1177.9,2316.43C1177.9,2316.43 1191.18,2390.45 1253.81,2398.04L1371.47,2399.93C1371.47,2399.93 1447.99,2413.75 1454.06,2344.52L1456.49,2221.85L1177.9,2187.38Z" style="fill:white;"/>
        </g>
        <g transform="matrix(1,0,0,1,-12.3551,-98.841)">
            <path d="M1626.11,1272.15C1694.87,1272.15 1750.69,1324.28 1750.69,1388.49C1750.69,1452.7 1694.87,1504.83 1626.11,1504.83C1557.35,1504.83 1501.53,1452.7 1501.53,1388.49C1501.53,1324.28 1557.35,1272.15 1626.11,1272.15ZM1575.66,1340.1C1575.66,1340.1 1633.32,1305.09 1680.68,1342.16C1680.68,1342.16 1631.26,1422.47 1575.66,1340.1Z" style="fill:rgb(194,190,191);"/>
        </g>
        <path d="M1156.01,889.238C1156.01,889.238 1198.28,695.045 1228.64,646.463C1228.64,646.463 1293.01,500.715 1416.9,454.562C1416.9,454.562 1568.72,395.048 1705.96,384.117C1705.96,384.117 1897.76,366.041 1969.12,366.041C1969.12,366.041 2201.4,364.523 2300.09,369.077C2300.09,369.077 2465.57,370.595 2558.18,391.85C2558.18,391.85 2731.26,426.769 2810.2,484.461C2810.2,484.461 2913.44,564.926 2939.25,630.209C2939.25,630.209 2984.8,718.264 3010.61,845.794C3010.61,845.794 3063.74,1147.92 3072.85,1225.35C3072.85,1225.35 3110.81,1610.97 3110.81,1612.49C3110.81,1614.01 3109.71,1902.93 3096.5,1924.7C3096.5,1924.7 3119.04,1931.69 3118.26,1952.68C3118.26,1952.68 3115.15,2042.85 3105.83,2073.95C3105.83,2073.95 3094.17,2119.03 3077.07,2140.79C3077.07,2140.79 3056.86,2163.34 3044.42,2167.22C3044.42,2167.22 3010.22,2234.85 2963.58,2239.51L2749.04,2248.06L1334.13,2248.84L1245.22,2248.12C1245.22,2248.12 1152.91,2243.26 1133.48,2170.39C1133.48,2170.39 1103.12,2171.6 1088.54,2129.09C1088.54,2129.09 1060.61,2069.58 1059.39,2025.85L1056.61,1959.99C1056.61,1959.99 1053.43,1929.75 1080.89,1926.96C1080.89,1926.96 1027.21,1655.61 1061.22,1618.69C1095.23,1581.77 1061.22,1618.69 1061.22,1618.69L1095.23,1298.05L1124.38,1087.2C1124.38,1087.2 1152.66,901.155 1156.01,889.238Z" style="fill:rgb(145,214,229);"/>
        <path d="M1190.37,1926.6L3096.5,1924.7C3096.5,1924.7 3119.71,1932.96 3118.51,1952.46C3117.32,1971.96 3113.74,2038.03 3110.55,2054.74C3107.37,2071.46 3096.8,2104.85 3094.89,2107.11C3092.97,2109.37 3085.65,2128.67 3082.79,2133.01C3082.79,2133.01 3070.57,2148.5 3065.27,2152.85C3065.27,2152.85 3052.64,2167.25 3044.49,2166.98L1155.43,2169.37C1155.43,2169.37 1115.67,2179.06 1101.99,2152.11C1101.99,2152.11 1082.92,2140.5 1071.73,2082.46C1071.73,2082.46 1055.97,2043.08 1059.7,2018.62L1055.97,1962.65C1055.97,1962.65 1052.37,1926.78 1081.44,1926.99L1190.37,1926.6Z" style="fill:rgb(35,151,189);"/>
        <path d="M1132.92,1615.83C1132.92,1615.83 2761.51,1634.6 3008.62,1617.3L3096.01,1615.52C3096.01,1615.52 3137.12,1601.29 3135.54,1664.55L3130.8,1786.32C3130.8,1786.32 3130.8,1824.27 3121.31,1844.83C3121.31,1844.83 3129.22,1881.21 3045.4,1885.95C2961.58,1890.69 1219.97,1905.83 1138.43,1888.54C1138.43,1888.54 1059.21,1905.51 1050.14,1838.14C1050.14,1838.14 1036.54,1777.25 1037.84,1706.64L1039.13,1655.47C1039.13,1655.47 1032.01,1618.55 1078,1617.9L1132.92,1615.83Z" style="fill:rgb(247,187,62);"/>
        <path d="M1390.43,2042.97C1390.43,2031.79 1381.35,2022.71 1370.17,2022.71L1183.36,2022.71C1172.18,2022.71 1163.1,2031.79 1163.1,2042.97L1163.1,2083.49C1163.1,2094.68 1172.18,2103.76 1183.36,2103.76L1370.17,2103.76C1381.35,2103.76 1390.43,2094.68 1390.43,2083.49L1390.43,2042.97Z" style="fill:white;"/>
        <path d="M2999.2,2039.27C2999.2,2028.79 2990.69,2020.29 2980.22,2020.29L2791.71,2020.29C2781.23,2020.29 2772.73,2028.79 2772.73,2039.27L2772.73,2077.22C2772.73,2087.7 2781.23,2096.2 2791.71,2096.2L2980.22,2096.2C2990.69,2096.2 2999.2,2087.7 2999.2,2077.22L2999.2,2039.27Z" style="fill:white;"/>
        <g transform="matrix(1.00842,0,0,1.04211,-19.5445,-90.2277)">
            <path d="M2320.91,1995.8C2320.91,1981.47 2308.89,1969.83 2294.08,1969.83L1866.97,1969.83C1852.16,1969.83 1840.14,1981.47 1840.14,1995.8L1840.14,2116.95C1840.14,2131.28 1852.16,2142.91 1866.97,2142.91L2294.08,2142.91C2308.89,2142.91 2320.91,2131.28 2320.91,2116.95L2320.91,1995.8Z" style="fill:rgb(255,204,97);"/>
        </g>
        <path d="M2301.39,1998.13C2301.39,1989.36 2294.26,1982.24 2285.49,1982.24L1869.67,1982.24C1860.9,1982.24 1853.78,1989.36 1853.78,1998.13L1853.78,2110.8C1853.78,2119.57 1860.9,2126.69 1869.67,2126.69L2285.49,2126.69C2294.26,2126.69 2301.39,2119.57 2301.39,2110.8L2301.39,1998.13Z" style="fill:none;stroke:black;stroke-width:3.1px;"/>
        <g transform="matrix(-1,0,0,1,4173.48,4.08775)">
            <path d="M1139.41,1706.17C1139.41,1706.17 1136.18,1643.34 1206.13,1649.17L1349.29,1658.24C1349.29,1658.24 1419.25,1656.94 1421.19,1721.07L1421.19,1787.14C1421.19,1787.14 1417.95,1845.44 1369.37,1846.74L1203.54,1846.74C1203.54,1846.74 1155.61,1855.16 1149.78,1808.52L1139.41,1706.17Z" style="fill:white;stroke:rgb(3,60,88);stroke-width:12.77px;"/>
        </g>
        <path d="M1523.87,1624.54L1525.84,1885.48" style="fill:none;stroke:rgb(152,147,147);stroke-width:9.81px;"/>
        <path d="M2649.84,1622.51L2650.68,1888.19" style="fill:rgb(152,147,147);stroke:rgb(152,147,147);stroke-width:9.81px;"/>
        <path d="M1419.48,1715.93L2754.8,1717.18" style="fill:none;stroke:rgb(112,108,109);stroke-opacity:0.439216;stroke-width:20.16px;"/>
        <path d="M2754.06,1787.93L1420.88,1788.09" style="fill:none;stroke:rgb(152,147,147);stroke-opacity:0.831373;stroke-width:20.16px;"/>
        <path d="M1139.41,1706.17C1139.41,1706.17 1136.18,1643.34 1206.13,1649.17L1349.29,1658.24C1349.29,1658.24 1419.25,1656.94 1421.19,1721.07L1421.19,1787.14C1421.19,1787.14 1417.95,1845.44 1369.37,1846.74L1203.54,1846.74C1203.54,1846.74 1155.61,1855.16 1149.78,1808.52L1139.41,1706.17Z" style="fill:white;stroke:rgb(3,60,88);stroke-width:12.77px;"/>
        <path d="M1221.48,1340.1C1221.48,1340.1 1260.61,1280.38 1435.64,1280.38L1492.49,1283.57L1474.47,1381.39L1232.52,1381.39L1221.48,1340.1Z" style="fill:rgb(139,130,131);"/>
        <path d="M1300.14,879.357C1300.14,879.357 1249.08,1166 1239.19,1228.6C1239.19,1228.6 1226.01,1325.79 1230.95,1340.62C1230.95,1340.62 1213.66,1377.38 1283.25,1378.43L2849.19,1377.38C2849.19,1377.38 2980.46,1408.27 2957.3,1261.55L2867.2,759.624C2867.2,759.624 2838.4,695.665 2815.23,677.647L1392.31,646.368C1392.31,646.368 1305.97,693.094 1300.14,879.357Z" style="fill:rgb(255,216,136);stroke:rgb(3,60,88);stroke-width:12.77px;"/>
        <path d="M1348.24,682.48L2833.43,685.054C2833.43,685.054 2735.62,579.521 2555.44,574.373L1626.23,574.373C1626.23,574.373 1428.03,571.799 1348.24,682.48Z" style="fill:rgb(35,151,189);"/>
        <path d="M1618.26,922.636L1636.79,780.552C1636.79,780.552 1665.62,677.593 1562.66,722.895L1424.69,778.493C1424.69,778.493 1350.56,827.914 1334.09,899.985C1334.09,899.985 1301.14,994.708 1301.14,1070.9L1299.08,1155.32C1299.08,1155.32 1286.73,1188.27 1334.09,1188.27L1486.47,1180.04L1618.26,922.636Z" style="fill:white;"/>
        <g transform="matrix(-1,0,0,1,4179.83,2.05919)">
            <path d="M1618.26,922.636L1636.79,780.552C1636.79,780.552 1665.62,677.593 1562.66,722.895L1424.69,778.493C1424.69,778.493 1350.56,827.914 1334.09,899.985C1334.09,899.985 1301.14,994.708 1301.14,1070.9L1299.08,1155.32C1299.08,1155.32 1286.73,1188.27 1334.09,1188.27L1486.47,1180.04L1618.26,922.636Z" style="fill:white;"/>
        </g>
        <path d="M1702.68,957.643C1702.68,957.643 1704.74,840.269 1708.86,819.677C1708.86,819.677 1710.92,704.363 1853.01,704.363L2281.32,704.363C2281.32,704.363 2460.47,700.244 2468.7,840.269L2468.7,994.708L2476.94,1132.67C2476.94,1132.67 1846.83,1112.08 1766.52,1118.26L1702.68,957.643Z" style="fill:white;"/>
        <path d="M1342.55,1294.66C1342.55,1294.66 1344.65,1245.11 1355.2,1180.79C1355.2,1180.79 1366.8,1018.43 1379.45,998.398C1379.45,998.398 1403.69,915.108 1529.16,915.108L1779.03,912.999C1779.03,912.999 1911.87,901.402 1935.07,1016.32L1974.07,1282.01L1342.55,1294.66" style="fill:rgb(3,60,88);"/>
        <g transform="matrix(-1,0,0,1,4150.59,0)">
            <path d="M1342.55,1294.66C1342.55,1294.66 1344.65,1245.11 1355.2,1180.79C1355.2,1180.79 1366.8,1018.43 1379.45,998.398C1379.45,998.398 1403.69,915.108 1529.16,915.108L1779.03,912.999C1779.03,912.999 1911.87,901.402 1935.07,1016.32L1974.07,1282.01L1342.55,1294.66" style="fill:rgb(3,60,88);"/>
        </g>
        <path d="M1374.09,1492.07C1374.09,1492.07 1376.66,1255.26 1634.06,1185.76C1634.06,1185.76 2071.64,1095.67 2421.7,1098.25C2421.7,1098.25 2779.48,1095.67 2846.41,1108.54C2846.41,1108.54 2980.25,1090.53 3011.14,1262.98C3011.14,1262.98 3039.45,1420 3036.88,1471.48C3036.88,1471.48 3065.2,1561.56 2985.4,1569.29C2985.4,1569.29 2135.99,1566.71 1948.09,1584.73L1610.89,1607.9C1610.89,1607.9 1332.9,1661.95 1374.09,1492.07Z" style="fill:white;fill-opacity:0.32549;"/>
        <g transform="matrix(0.809322,-0.587365,0.752755,1.03721,-804.041,854.191)">
            <ellipse cx="1542.52" cy="1451.05" rx="14.845" ry="9.447" style="fill:rgb(35,151,189);"/>
        </g>
        <path d="M1501.82,1436.96C1501.82,1436.96 1474.4,1454.88 1490.22,1464.37C1490.22,1464.37 1496.54,1475.97 1521.85,1456.99C1547.15,1438.02 1521.85,1456.99 1521.85,1456.99L1648.36,1355.78L1807.56,1249.3L1945.68,1175.5L2239.83,1089.04L2235.61,1076.39L1934.08,1159.68L1802.29,1241.92L1646.26,1344.18L1501.82,1436.96Z" style="fill:rgb(247,177,62);"/>
        <g transform="matrix(0.809322,-0.587365,0.752755,1.03721,-147.063,850.277)">
            <ellipse cx="1542.52" cy="1451.05" rx="14.845" ry="9.447" style="fill:rgb(35,151,189);"/>
        </g>
        <g transform="matrix(1,0,0,1,656.978,-3.91369)">
            <path d="M1501.82,1436.96C1501.82,1436.96 1474.4,1454.88 1490.22,1464.37C1490.22,1464.37 1496.54,1475.97 1521.85,1456.99C1547.15,1438.02 1521.85,1456.99 1521.85,1456.99L1648.36,1355.78L1807.56,1249.3L1945.68,1175.5L2239.83,1089.04L2235.61,1076.39L1934.08,1159.68L1802.29,1241.92L1646.26,1344.18L1501.82,1436.96Z" style="fill:rgb(247,177,62);"/>
        </g>
        <path d="M1723.05,778.557L2441.04,781.469" style="fill:none;stroke:black;stroke-width:3.1px;"/>
        <path d="M2468.72,878.992L1703.03,880.31" style="fill:none;stroke:black;stroke-width:3.1px;"/>
        <g transform="matrix(1,0,0,1,-15.2878,10.1919)">
            <text x="1893.01px" y="2072.21px" style="font-family:'BernardMT-Condensed', 'Bernard MT Condensed', serif;font-stretch:condensed;font-size:83.333px;">PK  2  MABA</text>
        </g>
        <g transform="matrix(1,0,0,1,37.2641,-1418.27)">
            <text x="1893.01px" y="2072.21px" style="font-family:'BernardMT-Condensed', 'Bernard MT Condensed', serif;font-stretch:condensed;font-size:83.333px;fill:rgb(247,225,88);">F I L K O M</text>
        </g>
        <g transform="matrix(1,0,0,1,865.355,-784.457)">
            <text x="1893.01px" y="2105.05px" style="font-family:'BernardMT-Condensed', 'Bernard MT Condensed', serif;font-stretch:condensed;font-size:125px;fill:rgb(35,151,189);">0 8</text>
        </g>
    </g>
</svg>
