<?xml version="1.0" encoding="UTF-8" standalone="no"?>
<!DOCTYPE svg PUBLIC "-//W3C//DTD SVG 1.1//EN" "http://www.w3.org/Graphics/SVG/1.1/DTD/svg11.dtd">
<svg width="100%" height="100%" viewBox="0 0 3557 2088" version="1.1" xmlns="http://www.w3.org/2000/svg" xmlns:xlink="http://www.w3.org/1999/xlink" xml:space="preserve" xmlns:serif="http://www.serif.com/" style="fill-rule:evenodd;clip-rule:evenodd;stroke-linejoin:round;stroke-miterlimit:1.41421;">
    <g transform="matrix(1,0,0,1,-254.35,-466.944)">
        <g>
            <g transform="matrix(1,0,0,1,-83.8116,176.775)">
                <rect x="3256.34" y="1099.54" width="18.656" height="90.169" style="fill:rgb(255,210,119);"/>
            </g>
            <g transform="matrix(1,0,0,1,-83.8116,176.775)">
                <rect x="3438.55" y="1098.92" width="182.826" height="18.034" style="fill:rgb(255,210,119);"/>
            </g>
            <g transform="matrix(1,0,0,1,-83.8116,176.775)">
                <rect x="3712.49" y="1100.13" width="182.185" height="18.218" style="fill:rgb(255,210,119);"/>
            </g>
            <g transform="matrix(1,0,0,1,-83.8116,176.775)">
                <rect x="3875.24" y="1102.56" width="19.433" height="187.043" style="fill:rgb(255,210,119);"/>
            </g>
            <g transform="matrix(1,0,0,1,-83.8116,176.775)">
                <rect x="3255.81" y="1279.88" width="19.433" height="97.165" style="fill:rgb(255,210,119);"/>
            </g>
            <g transform="matrix(1,0,0,1,-83.8116,176.775)">
                <rect x="3263.1" y="1360.05" width="78.947" height="17.004" style="fill:rgb(255,210,119);"/>
            </g>
            <g transform="matrix(1,0,0,1,-83.8116,176.775)">
                <rect x="3434.35" y="1360.05" width="180.97" height="19.433" style="fill:rgb(255,210,119);"/>
            </g>
            <g transform="matrix(1,0,0,1,-83.8116,176.775)">
                <rect x="3706.75" y="1359.03" width="184.225" height="17.101" style="fill:rgb(255,210,119);"/>
            </g>
            <g transform="matrix(1,0,0,1,-83.8116,176.775)">
                <rect x="2801.22" y="2181.22" width="19.737" height="192.812" style="fill:rgb(255,210,119);"/>
            </g>
            <g transform="matrix(1,0,0,1,-83.8116,176.775)">
                <rect x="2890.8" y="2182.74" width="183.703" height="13.664" style="fill:rgb(255,210,119);"/>
            </g>
            <g transform="matrix(1,0,0,1,-83.8116,176.775)">
                <rect x="3165.59" y="2181.22" width="183.703" height="16.7" style="fill:rgb(255,210,119);"/>
            </g>
            <g transform="matrix(1,0,0,1,-83.8116,176.775)">
                <rect x="3438.87" y="2181.22" width="183.703" height="18.218" style="fill:rgb(255,210,119);"/>
            </g>
            <g transform="matrix(1,0,0,1,-83.8116,176.775)">
                <rect x="3715.18" y="2181.22" width="176.112" height="18.218" style="fill:rgb(255,210,119);"/>
            </g>
            <g transform="matrix(1,0,0,1,-83.8116,176.775)">
                <rect x="3876.11" y="2190.33" width="15.182" height="106.274" style="fill:rgb(255,210,119);"/>
            </g>
            <g transform="matrix(1,0,0,1,-83.8116,176.775)">
                <rect x="2877.13" y="2357.33" width="189.776" height="18.218" style="fill:rgb(255,210,119);"/>
            </g>
            <g transform="matrix(1,0,0,1,-83.8116,176.775)">
                <rect x="3150.41" y="2358.85" width="183.703" height="16.7" style="fill:rgb(255,210,119);"/>
            </g>
            <g transform="matrix(1,0,0,1,-83.8116,176.775)">
                <rect x="3422.17" y="2357.33" width="185.221" height="18.218" style="fill:rgb(255,210,119);"/>
            </g>
            <g transform="matrix(1,0,0,1,-83.8116,180.775)">
                <rect x="3698.48" y="2358.85" width="192.812" height="15.182" style="fill:rgb(255,210,119);"/>
            </g>
            <g transform="matrix(1,0,0,1.74565,-83.8116,-1577.79)">
                <rect x="3874.59" y="2339.12" width="16.7" height="27.328" style="fill:rgb(255,210,119);"/>
            </g>
            <g transform="matrix(1,0,0,1,-86.8116,176.775)">
                <rect x="2591.97" y="1485.85" width="64.129" height="19.433" style="fill:rgb(255,210,119);"/>
            </g>
            <g transform="matrix(1,0,0,1,-83.8116,176.775)">
                <rect x="2353.91" y="1485.85" width="183.642" height="18.461" style="fill:rgb(255,210,119);"/>
            </g>
            <g transform="matrix(1,0,0,1,-83.8116,176.775)">
                <rect x="2081.85" y="1487.8" width="182.67" height="16.518" style="fill:rgb(255,210,119);"/>
            </g>
            <g transform="matrix(1,0,0,1,-83.8116,176.775)">
                <rect x="3255.39" y="1099.23" width="92.611" height="18.218" style="fill:rgb(255,210,119);"/>
            </g>
            <g transform="matrix(1,0,0,1,-86.8116,176.775)">
                <rect x="2634.72" y="1373.14" width="21.376" height="132.145" style="fill:rgb(255,210,119);"/>
            </g>
            <g transform="matrix(1,0,0,1,-83.8116,176.775)">
                <rect x="2024.52" y="1373.14" width="18.461" height="99.108" style="fill:rgb(255,210,119);"/>
            </g>
            <g transform="matrix(1,0,0,1,-83.8116,176.775)">
                <rect x="2197.48" y="1373.14" width="183.642" height="17.49" style="fill:rgb(255,210,119);"/>
            </g>
            <g transform="matrix(1,0,0,1,-83.8116,176.775)">
                <rect x="2472.45" y="1373.14" width="181.699" height="18.461" style="fill:rgb(255,210,119);"/>
            </g>
            <g transform="matrix(1,0,0,1,-83.8116,176.775)">
                <rect x="1843.01" y="1525.89" width="1378.25" height="18.978" style="fill:white;"/>
            </g>
            <g transform="matrix(0.83616,0,0,1,367.891,176.775)">
                <rect x="2756.98" y="1098.37" width="29.652" height="1067.49" style="fill:white;"/>
            </g>
            <g transform="matrix(1,0,0,1,-83.8116,176.775)">
                <rect x="3199.26" y="1102.57" width="20.757" height="1061.56" style="fill:white;"/>
            </g>
            <g transform="matrix(1,0,0,1,-83.8116,176.775)">
                <rect x="3211.2" y="1898.2" width="682.585" height="23.077" style="fill:white;"/>
            </g>
            <g transform="matrix(1,0,0,1,-83.8116,174.775)">
                <rect x="2024.52" y="1374.11" width="82.59" height="16.518" style="fill:rgb(255,210,119);"/>
            </g>
            <g transform="matrix(1,0,0,1,-82.8116,175.775)">
                <rect x="337.802" y="937.223" width="305.954" height="19.899" style="fill:white;"/>
            </g>
            <g transform="matrix(1,0,0,1,-83.8116,176.775)">
                <rect x="440.421" y="1485.23" width="1406.71" height="21.35" style="fill:white;"/>
            </g>
            <g transform="matrix(1,0,0,1,-83.8116,176.775)">
                <rect x="710.852" y="1376.11" width="21.35" height="118.61" style="fill:white;"/>
            </g>
            <g transform="matrix(1,0,0,1,-83.8116,176.775)">
                <rect x="1367.95" y="1504.21" width="26.094" height="106.749" style="fill:white;"/>
            </g>
            <g transform="matrix(1,0,0,1,-83.8116,176.775)">
                <rect x="1510.28" y="1245.64" width="23.722" height="249.081" style="fill:white;"/>
            </g>
            <g transform="matrix(1,0,0,1,-83.8116,176.775)">
                <rect x="1787.83" y="1245.64" width="23.722" height="249.081" style="fill:white;"/>
            </g>
            <g transform="matrix(1,0,0,1,-83.8116,176.775)">
                <rect x="1821.15" y="1501.37" width="25.652" height="106.493" style="fill:white;"/>
            </g>
            <g transform="matrix(1,0,0,1,-83.8116,176.775)">
                <rect x="446.318" y="469.697" width="194.331" height="162.448" style="fill:rgb(248,187,62);"/>
            </g>
            <g transform="matrix(1,0,0,1,-83.8116,176.775)">
                <rect x="446.318" y="469.697" width="194.331" height="162.448" style="fill:rgb(145,214,229);"/>
            </g>
            <g transform="matrix(1,0,0,1,-83.8116,176.775)">
                <rect x="692.268" y="468.179" width="141.193" height="165.485" style="fill:rgb(145,214,229);"/>
            </g>
            <g transform="matrix(1,0,0,1,-83.8116,176.775)">
                <rect x="895.708" y="468.179" width="176.112" height="165.485" style="fill:rgb(145,214,229);"/>
            </g>
            <g transform="matrix(1,0,0,1,-83.8116,176.775)">
                <rect x="444.8" y="290.169" width="623.889" height="163.682" style="fill:rgb(91,240,241);"/>
            </g>
            <g transform="matrix(1,0,0,1,-83.8116,176.775)">
                <rect x="648.102" y="767.159" width="652.355" height="607.283" style="fill:rgb(254,197,81);"/>
            </g>
            <g transform="matrix(1,0,0,1,-83.8116,176.775)">
                <rect x="1388.5" y="750.137" width="250.193" height="495.753" style="fill:rgb(255,214,129);"/>
            </g>
            <g transform="matrix(1,0,0,1,-83.8116,176.775)">
                <rect x="1658.38" y="589.013" width="282.292" height="657.099" style="fill:rgb(145,214,229);"/>
            </g>
            <g transform="matrix(1,0,0,1,-83.8116,176.775)">
                <rect x="2025.59" y="746.134" width="625.668" height="590.085" style="fill:rgb(254,197,81);"/>
            </g>
            <g transform="matrix(1,0,0,1,-83.8116,176.775)">
                <rect x="2804.56" y="1099.02" width="358.202" height="398.529" style="fill:rgb(145,214,229);"/>
            </g>
            <g transform="matrix(1,0,0,1,-83.8116,176.775)">
                <rect x="1236.73" y="1611.38" width="275.768" height="598.98" style="fill:rgb(254,197,81);"/>
            </g>
            <g transform="matrix(1,0,0,1,-83.8116,176.775)">
                <rect x="1705.23" y="1605.45" width="272.803" height="601.946" style="fill:rgb(254,197,81);"/>
            </g>
            <g transform="matrix(1,0,0,1,-83.8116,176.775)">
                <rect x="1468.01" y="1833.77" width="296.525" height="148.262" style="fill:rgb(254,197,81);"/>
            </g>
            <g transform="matrix(1,0,0,1,-83.8116,176.775)">
                <rect x="2019.55" y="1563.93" width="625.668" height="598.98" style="fill:rgb(255,214,129);"/>
            </g>
            <g transform="matrix(1,0,0,1,-83.8116,176.775)">
                <rect x="2800.71" y="1557.82" width="358.795" height="593.05" style="fill:rgb(254,197,81);"/>
            </g>
            <g transform="matrix(1,0,0,1,-83.8116,176.775)">
                <rect x="2676.17" y="1786.14" width="166.054" height="115.645" style="fill:rgb(254,197,81);"/>
            </g>
            <g transform="matrix(1,0,0,1,-83.8116,176.775)">
                <rect x="3453.06" y="1391.76" width="440.028" height="489.266" style="fill:rgb(255,214,129);"/>
            </g>
            <g transform="matrix(1,0,0,1,-83.8116,176.775)">
                <rect x="3294.11" y="1560.78" width="180.88" height="142.332" style="fill:rgb(255,214,129);"/>
            </g>
            <g transform="matrix(1,0,0,1,-83.8116,176.775)">
                <rect x="3403.33" y="1936.66" width="488.673" height="222.987" style="fill:rgb(145,214,229);"/>
            </g>
            <g transform="matrix(1,0,0,1,-83.8116,176.775)">
                <rect x="561.032" y="669.235" width="460.207" height="73.538" style="fill:rgb(91,240,241);"/>
            </g>
            <g transform="matrix(1,0,0,1,-83.8116,176.775)">
                <rect x="561.427" y="735.77" width="67.044" height="158.379" style="fill:rgb(91,240,241);"/>
            </g>
            <g transform="matrix(1,0,0,1,-83.8116,176.775)">
                <rect x="1067.66" y="672.613" width="233.197" height="73.846" style="fill:rgb(91,240,241);"/>
            </g>
            <g transform="matrix(1,0,0,1,-83.8116,176.775)">
                <rect x="409.469" y="988.006" width="201.162" height="368.165" style="fill:rgb(91,240,241);"/>
            </g>
            <g transform="matrix(1,0,0,1,-83.8116,176.775)">
                <rect x="407.571" y="1396.02" width="277.073" height="75.91" style="fill:rgb(91,240,241);"/>
            </g>
            <g transform="matrix(1,0,0,1,-83.8116,176.775)">
                <rect x="745.372" y="1397.92" width="554.146" height="70.217" style="fill:rgb(91,240,241);"/>
            </g>
            <g transform="matrix(1.11671,0,0,1.2682,-140.863,-251.937)">
                <rect x="488.844" y="1598.48" width="504.092" height="474.44" style="fill:rgb(145,214,229);"/>
            </g>
            <g transform="matrix(1,0,0,1,-83.8116,176.775)">
                <rect x="393.838" y="679.452" width="57.692" height="92.611" style="fill:rgb(255,225,162);"/>
            </g>
            <g transform="matrix(1,0,0,1,-83.8116,176.775)">
                <rect x="471.303" y="677.509" width="59.076" height="94.056" style="fill:rgb(255,225,162);"/>
            </g>
            <g transform="matrix(1,0,0,1,-83.8116,176.775)">
                <rect x="393.571" y="801.103" width="58.299" height="93.279" style="fill:rgb(255,225,162);"/>
            </g>
            <g transform="matrix(1,0,0,1,-83.8116,176.775)">
                <rect x="470.525" y="801.88" width="59.854" height="92.501" style="fill:rgb(255,225,162);"/>
            </g>
            <g transform="matrix(1,0,0,1,-83.8116,176.775)">
                <rect x="2757.52" y="936.86" width="426.996" height="32.618" style="fill:rgb(255,225,162);"/>
            </g>
            <g transform="matrix(1,0,0,1,-83.8116,176.775)">
                <rect x="3362.43" y="933.895" width="530.779" height="35.583" style="fill:rgb(255,225,162);"/>
            </g>
            <g transform="matrix(1.35785,0,0,1,-1210.67,176.775)">
                <rect x="3246.79" y="1936.15" width="91.923" height="225.359" style="fill:rgb(255,225,162);"/>
            </g>
            <g transform="matrix(1,0,0,1,-83.8116,176.775)">
                <rect x="338.162" y="594.537" width="24.291" height="361.94" style="fill:white;"/>
            </g>
            <g transform="matrix(2.875,0,0,2.95,-938.077,-407.245)">
                <circle cx="470.79" cy="314.68" r="15.182" style="fill:white;"/>
            </g>
            <g transform="matrix(1,0,0,1,-79.1476,173.666)">
                <text x="477.361px" y="368.485px" style="font-family:'Calibri-Bold', 'Calibri', sans-serif;font-weight:700;font-size:66.667px;">1</text>
            </g>
            <g transform="matrix(2.875,0,0,2.95,-936.863,-228.704)">
                <circle cx="470.79" cy="314.68" r="15.182" style="fill:white;"/>
            </g>
            <g transform="matrix(1,0,0,1,-77.9331,352.207)">
                <text x="477.361px" y="368.485px" style="font-family:'Calibri-Bold', 'Calibri', sans-serif;font-weight:700;font-size:66.667px;">2</text>
            </g>
            <g transform="matrix(2.875,0,0,2.95,-714.807,95.3346)">
                <circle cx="470.79" cy="314.68" r="15.182" style="fill:white;"/>
            </g>
            <g transform="matrix(1,0,0,1,144.123,676.246)">
                <text x="477.361px" y="368.485px" style="font-family:'Calibri-Bold', 'Calibri', sans-serif;font-weight:700;font-size:66.667px;">4</text>
            </g>
            <g transform="matrix(2.875,0,0,2.95,-969.907,299.491)">
                <circle cx="470.79" cy="314.68" r="15.182" style="fill:white;"/>
            </g>
            <g transform="matrix(1,0,0,1,-110.978,880.402)">
                <text x="477.361px" y="368.485px" style="font-family:'Calibri-Bold', 'Calibri', sans-serif;font-weight:700;font-size:66.667px;">3</text>
            </g>
            <g transform="matrix(2.875,0,0,2.95,10.799,70.8997)">
                <circle cx="470.79" cy="314.68" r="15.182" style="fill:white;"/>
            </g>
            <g transform="matrix(1,0,0,1,869.729,651.811)">
                <text x="477.361px" y="368.485px" style="font-family:'Calibri-Bold', 'Calibri', sans-serif;font-weight:700;font-size:66.667px;">5</text>
            </g>
            <g transform="matrix(2.875,0,0,2.95,283.601,-92.9297)">
                <circle cx="470.79" cy="314.68" r="15.182" style="fill:white;"/>
            </g>
            <g transform="matrix(1,0,0,1,1142.75,487.981)">
                <text x="477.361px" y="368.485px" style="font-family:'Calibri-Bold', 'Calibri', sans-serif;font-weight:700;font-size:66.667px;">6</text>
            </g>
            <g transform="matrix(2.875,0,0,2.95,-874.371,924.795)">
                <circle cx="470.79" cy="314.68" r="15.182" style="fill:white;"/>
            </g>
            <g transform="matrix(1,0,0,1,-15.4414,1505.71)">
                <text x="477.361px" y="368.485px" style="font-family:'Calibri-Bold', 'Calibri', sans-serif;font-weight:700;font-size:66.667px;">7</text>
            </g>
            <g transform="matrix(2.875,0,0,2.95,-133.439,925.914)">
                <circle cx="470.79" cy="314.68" r="15.182" style="fill:white;"/>
            </g>
            <g transform="matrix(1,0,0,1,725.491,1506.82)">
                <text x="477.361px" y="368.485px" style="font-family:'Calibri-Bold', 'Calibri', sans-serif;font-weight:700;font-size:66.667px;">8</text>
            </g>
            <g transform="matrix(2.875,0,0,2.95,660.371,895.838)">
                <circle cx="470.79" cy="314.68" r="15.182" style="fill:white;"/>
            </g>
            <g transform="matrix(1,0,0,1,1519.3,1476.75)">
                <text x="477.361px" y="368.485px" style="font-family:'Calibri-Bold', 'Calibri', sans-serif;font-weight:700;font-size:66.667px;">9</text>
            </g>
            <g transform="matrix(2.875,0,0,2.95,660.371,61.8647)">
                <circle cx="470.79" cy="314.68" r="15.182" style="fill:white;"/>
            </g>
            <g transform="matrix(1,0,0,1,1502.22,640.878)">
                <text x="477.361px" y="368.485px" style="font-family:'Calibri-Bold', 'Calibri', sans-serif;font-weight:700;font-size:66.667px;">10</text>
            </g>
            <g transform="matrix(2.875,0,0,2.95,1430.32,403.866)">
                <circle cx="470.79" cy="314.68" r="15.182" style="fill:white;"/>
            </g>
            <g transform="matrix(1,0,0,1,2274.06,980.981)">
                <text x="477.361px" y="368.485px" style="font-family:'Calibri-Bold', 'Calibri', sans-serif;font-weight:700;font-size:66.667px;">11</text>
            </g>
            <g transform="matrix(2.875,0,0,2.95,1427.94,873.559)">
                <circle cx="470.79" cy="314.68" r="15.182" style="fill:white;"/>
            </g>
            <g transform="matrix(1,0,0,1,2271.69,1450.67)">
                <text x="477.361px" y="368.485px" style="font-family:'Calibri-Bold', 'Calibri', sans-serif;font-weight:700;font-size:66.667px;">12</text>
            </g>
            <g transform="matrix(2.875,0,0,2.95,2101.2,711.509)">
                <circle cx="470.79" cy="314.68" r="15.182" style="fill:white;"/>
            </g>
            <g transform="matrix(1,0,0,1,2944.95,1288.62)">
                <text x="477.361px" y="368.485px" style="font-family:'Calibri-Bold', 'Calibri', sans-serif;font-weight:700;font-size:66.667px;">13</text>
            </g>
            <g transform="matrix(2.875,0,0,2.95,1894.88,1242.68)">
                <circle cx="470.79" cy="314.68" r="15.182" style="fill:white;"/>
            </g>
            <g transform="matrix(1,0,0,1,2738.63,1819.79)">
                <text x="477.361px" y="368.485px" style="font-family:'Calibri-Bold', 'Calibri', sans-serif;font-weight:700;font-size:66.667px;">14</text>
            </g>
        </g>
    </g>
</svg>
