<?xml version="1.0" encoding="UTF-8" standalone="no"?>
<!DOCTYPE svg PUBLIC "-//W3C//DTD SVG 1.1//EN" "http://www.w3.org/Graphics/SVG/1.1/DTD/svg11.dtd">
<svg width="100%" height="100%" viewBox="0 0 1660 1589" version="1.1" xmlns="http://www.w3.org/2000/svg" xmlns:xlink="http://www.w3.org/1999/xlink" xml:space="preserve" xmlns:serif="http://www.serif.com/" style="fill-rule:evenodd;clip-rule:evenodd;stroke-linejoin:round;stroke-miterlimit:1.41421;">
    <g transform="matrix(1,0,0,1,-586.324,-496.038)">
        <g transform="matrix(0.935964,-0.352096,0.352096,0.935964,-516.201,835.566)">
            <rect x="1988.51" y="1685.79" width="47.444" height="111.493" style="fill:rgb(171,188,180);"/>
        </g>
        <path d="M897.578,1617.7C1024.58,1617.7 1127.68,1722.4 1127.68,1851.36C1127.68,1980.32 1024.58,2085.02 897.578,2085.02C770.58,2085.02 667.475,1980.32 667.475,1851.36C667.475,1722.4 770.58,1617.7 897.578,1617.7ZM898.764,1705.47C980.592,1705.47 1047.03,1771.9 1047.03,1853.73C1047.03,1935.56 980.592,2001.99 898.764,2001.99C816.936,2001.99 750.502,1935.56 750.502,1853.73C750.502,1771.9 816.936,1705.47 898.764,1705.47Z" style="fill:white;"/>
        <g transform="matrix(1,0,0,1,1117.9,-1)">
            <path d="M897.578,1617.7C1024.58,1617.7 1127.68,1722.4 1127.68,1851.36C1127.68,1980.32 1024.58,2085.02 897.578,2085.02C770.58,2085.02 667.475,1980.32 667.475,1851.36C667.475,1722.4 770.58,1617.7 897.578,1617.7ZM898.764,1705.47C980.592,1705.47 1047.03,1771.9 1047.03,1853.73C1047.03,1935.56 980.592,2001.99 898.764,2001.99C816.936,2001.99 750.502,1935.56 750.502,1853.73C750.502,1771.9 816.936,1705.47 898.764,1705.47Z" style="fill:white;"/>
        </g>
        <path d="M1692.59,1199.96C1692.59,1199.96 1642.79,1053 1599.06,995.911L1597.85,944.9L1571.13,924.252L1569.91,1061.5L1585.7,1066.36L1591.78,1026.28C1591.78,1026.28 1646.43,1063.93 1680.44,1198.74L1692.59,1199.96Z" style="fill:white;"/>
        <g transform="matrix(1,0,0,1,0,-9)">
            <path d="M812.158,1551.77L702.088,1534.68L586.324,1690.3L586.324,1720.67L812.158,1551.77Z" style="fill:white;"/>
        </g>
        <path d="M1096.82,1326.31L943.483,1311.13L853.908,1373.38L894.9,1394.63L1178.81,1409.81C1178.81,1409.81 1104.41,1376.41 1096.82,1326.31" style="fill:rgb(246,145,51);"/>
        <path d="M999.852,1569.78L986.188,1591.03L1286.79,1859.75L1596.51,1855.2C1596.51,1855.2 1664.83,1874.94 1702.78,1771.7C1740.74,1668.46 1702.78,1771.7 1702.78,1771.7L1781.73,1553.08L1717.96,1264.97L1663.31,1260.42L1728.59,1523.07L1704.3,1527.62C1704.3,1527.62 1658.75,1687.03 1637.5,1729.54C1637.5,1729.54 1634.46,1829.75 1470.5,1816.08L1420.39,1811.53C1420.39,1811.53 1385.48,1802.42 1391.55,1741.69C1391.55,1741.69 1418.88,1529.14 1434.06,1469.93C1434.06,1469.93 1254.91,1406.17 1136.49,1406.17L1294.38,1583.8L1327.79,1620.23C1327.79,1620.23 1365.74,1652.12 1314.12,1644.52L1034.77,1574.69L999.852,1569.78Z" style="fill:rgb(246,145,51);"/>
        <g transform="matrix(1,0,0,1,-5.69328,9.4888)">
            <ellipse cx="1693.67" cy="1222.5" rx="31.313" ry="33.211" style="fill:rgb(246,145,51);"/>
        </g>
        <g transform="matrix(1,0,0,1,0,-3)">
            <path d="M1098.61,1695.47C1098.61,1695.47 1079.17,1689.4 1075.53,1720.98L1069.46,1793.85C1069.46,1793.85 1077.06,1833.98 1014.88,1803.51L784.053,1692.5L754.903,1679.14C754.903,1679.14 684.458,1682.78 699.033,1761.73L836.279,1843.11L991.743,1929.34C991.743,1929.34 1031.58,1947.95 1069.67,1940.95C1069.67,1940.95 1112.42,1926.18 1151.29,1944.84C1151.29,1944.84 1197.93,1968.16 1249.23,1939.4L1298.2,1913.75L1347.95,1913.75L1098.61,1695.47" style="fill:rgb(171,188,180);"/>
        </g>
        <circle cx="906.789" cy="1851.84" r="68.794" style="fill:white;"/>
        <g transform="matrix(1.05263,0,0,1.07018,-119.641,-134.781)">
            <circle cx="2025.28" cy="1853.03" r="67.608" style="fill:white;"/>
        </g>
        <g transform="matrix(1,0,0,1,7,0)">
            <path d="M1131.3,1406L1318.04,1610.96C1318.04,1610.96 1368.14,1662.58 1299.82,1644.36C1299.82,1644.36 941.524,1563.89 791.221,1544.15L678.874,1528.97C678.874,1528.97 634.846,1532.01 687.983,1492.54C687.983,1492.54 785.149,1406 867.132,1398.41C867.132,1398.41 1067.23,1376.55 1131.3,1406Z" style="fill:rgb(247,187,62);"/>
        </g>
        <path d="M1981.98,1517.68C1981.98,1517.68 2138.69,1536.34 2185.33,1620.29C2185.33,1620.29 2233.21,1684.34 2175.38,1663.2C2175.38,1663.2 2117.55,1633.35 2054.74,1657.6C2054.74,1657.6 1949.64,1680.61 1876.27,1756.47C1876.27,1756.47 1780.83,1846.99 1770.14,1857.68C1770.14,1857.68 1866.97,1634.48 1884.85,1608.83C1884.85,1608.83 1957.85,1505.82 1981.98,1517.68Z" style="fill:rgb(255,208,111);"/>
        <g transform="matrix(1,0,0,1,-6,0)">
            <path d="M1288.78,1860.68L1605.71,1854.99C1605.71,1854.99 1651.26,1879.66 1696.8,1773.39L1784.1,1562.74L1723.37,1266.68C1723.37,1266.68 1694.9,1226.83 1723.37,1202.16C1723.37,1202.16 1624.69,1173.69 1723.37,1107.27C1723.37,1107.27 1814.46,1065.52 1784.1,1173.69C1784.1,1173.69 1753.73,1224.93 1799.28,1192.67L1816.36,1181.29C1816.36,1181.29 1891.06,1225.73 1913.84,1263.69C1913.84,1263.69 2001.13,1366.17 1984.05,1462.95C1984.05,1462.95 1978.36,1544.56 1911.94,1637.55C1911.94,1637.55 1769.61,1859.58 1720.26,1886.15C1720.26,1886.15 1403.34,1965.86 1352.1,1922.21L1288.78,1860.68Z" style="fill:rgb(247,187,62);"/>
        </g>
        <path d="M1461.61,1798.77L1456.64,1851.63C1456.64,1851.63 1548.05,1906.98 1590.34,1869.66L1591.58,1786.96L1461.61,1798.77Z" style="fill:rgb(255,208,162);"/>
        <path d="M1446.07,1851.01L1445.44,1925.63C1445.44,1925.63 1436.74,1954.24 1500.17,1955.48L1617.08,1954.24C1617.08,1954.24 1712.22,1957.35 1715.33,1919.41C1715.33,1919.41 1717.19,1875.88 1653.77,1859.72C1653.77,1859.72 1600.29,1846.04 1594.69,1831.11C1594.69,1831.11 1538.1,1888.32 1476.54,1851.01L1446.07,1832.35L1446.07,1851.01Z" style="fill:rgb(145,214,229);"/>
        <path d="M1274.66,1251.16L1522.43,1311.89C1522.43,1311.89 1598.95,1304.6 1596.52,1412.7L1596.52,1809.86L1443.48,1811.07L1449.56,1503.79C1449.56,1503.79 1458.06,1468.57 1415.55,1456.42L1242.88,1415.56C1242.88,1415.56 1102.97,1421.78 1136.39,1309.07L1274.66,1251.16Z" style="fill:rgb(35,151,189);"/>
        <path d="M1330.68,919.151L1354,883.2L1246.14,832.674L1202.42,895.831L1330.68,919.151Z" style="fill:rgb(30,164,49);"/>
        <path d="M1238.87,836.757C1238.87,836.757 1228.18,869.793 1206.8,884.368C1206.8,884.368 1150.44,924.206 1131.01,986.392C1131.01,986.392 1110.61,1066.07 1106.72,1128.25C1106.72,1128.25 1101.86,1237.08 1101.86,1271.09L1100.89,1330.36C1100.89,1330.36 1083.4,1389.63 1179.6,1367.28L1306.88,1336.19L1358.38,1315.78C1358.38,1315.78 1398.22,1300.24 1368.1,1278.86C1368.1,1278.86 1347.69,1274.97 1345.75,1219.59L1344.37,971.377C1344.37,971.377 1320.08,934.454 1335.62,907.248L1353.11,877.126L1238.87,836.757" style="fill:rgb(145,214,229);"/>
        <g transform="matrix(1,0,0,1,0.213668,-0.267086)">
            <path d="M1439.39,1070.46C1439.48,1071.06 1429.01,1065.75 1393.98,1033.79C1393.98,1033.79 1365.62,1012.4 1356.66,991.501C1356.66,991.501 1349.16,969.95 1346.61,959.443C1346.61,959.443 1336.42,899.586 1280.71,917.416C1280.71,917.416 1216.52,931.957 1223.36,982.95C1223.36,982.95 1225.84,1040.78 1263.78,1088.66C1263.78,1088.66 1324.55,1160.43 1334,1166.4C1334,1166.4 1439.18,1069.09 1439.39,1070.46Z" style="fill:white;"/>
        </g>
        <path d="M1619.91,1176.09C1619.91,1176.09 1669.16,1192.51 1660.21,1239.27C1660.21,1239.27 1657.23,1273.1 1624.39,1294.99C1624.39,1294.99 1573.65,1301.46 1556.24,1271.61L1619.91,1176.09Z" style="fill:rgb(245,213,172);"/>
        <path d="M1574.26,1294.49C1574.26,1294.49 1612.81,1199.34 1628.98,1171.36C1628.98,1171.36 1434.91,1067.07 1426.83,1060.85L1323.3,1143.95C1313.75,1171.63 1479.06,1288.78 1574.26,1294.49Z" style="fill:rgb(145,214,229);"/>
        <g transform="matrix(1.10839,0,0,1,-150.924,0)">
            <ellipse cx="1352.05" cy="712.675" rx="138.946" ry="149.148" style="fill:rgb(247,211,170);"/>
        </g>
        <path d="M1259.85,799.202C1259.85,799.202 1197.17,830.047 1199.16,774.826L1259.85,799.202Z" style="fill:rgb(10,5,0);"/>
        <path d="M1507.93,674.429C1507.93,674.429 1507.93,643.336 1500.16,598.251C1500.16,598.251 1488.5,539.175 1443.42,520.519C1443.42,520.519 1361.8,481.653 1294.95,501.863C1294.95,501.863 1216.44,508.082 1193.12,565.604C1193.12,565.604 1162.8,611.466 1167.47,668.21C1167.47,668.21 1169.8,722.623 1178.35,742.833C1178.35,742.833 1207.95,800.174 1257.06,799.563C1257.06,799.563 1290.89,809.344 1316.97,765.126L1338.8,719.572C1338.8,719.572 1345.02,680.395 1392.28,681.017L1507.93,674.429Z" style="fill:rgb(145,214,229);"/>
        <path d="M1589.4,679.283C1589.4,679.283 1527.15,538.09 1495.27,521.39L1381.4,589.709C1381.4,589.709 1385.96,630.701 1379.88,648.919L1464.9,749.121C1464.9,749.121 1571.18,709.647 1589.4,679.283Z" style="fill:white;fill-opacity:0.572549;"/>
    </g>
</svg>
